M48
; DRILL file {KiCad 9.0.0} date 2025-11-21T20:27:56+0100
; FORMAT={-:-/ absolute / inch / decimal}
; #@! TF.CreationDate,2025-11-21T20:27:56+01:00
; #@! TF.GenerationSoftware,Kicad,Pcbnew,9.0.0
; #@! TF.FileFunction,Plated,1,4,PTH
FMAT,2
INCH
; #@! TA.AperFunction,Plated,PTH,ViaDrill
T1C0.0118
; #@! TA.AperFunction,Plated,PTH,ComponentDrill
T2C0.0394
%
G90
G05
T1
X1.8701Y-1.063
X1.8701Y-1.1024
X1.8701Y-1.1417
X1.8701Y-1.1811
X1.8701Y-1.2205
X1.8701Y-1.2598
X1.8701Y-1.2992
X1.8701Y-1.3386
X1.8701Y-1.378
X1.8701Y-1.4173
X1.8701Y-1.4567
X1.8799Y-2.2933
X1.8996Y-1.0236
X1.8996Y-2.3228
X1.9193Y-1.2008
X1.9291Y-1.1417
X1.9291Y-1.2795
X1.9291Y-1.4173
X1.939Y-1.0039
X1.939Y-1.063
X1.939Y-2.3228
X1.9783Y-1.0039
X1.9783Y-1.2205
X1.9783Y-1.2795
X1.9783Y-1.3484
X1.9783Y-2.3228
X1.988Y-1.927
X1.9882Y-1.4075
X1.9882Y-1.565
X1.9882Y-2.0669
X1.9882Y-2.1555
X1.9882Y-2.2736
X1.989Y-1.976
X1.998Y-1.4764
X1.998Y-1.6535
X2.0079Y-1.8307
X2.0177Y-1.0039
X2.0177Y-1.7126
X2.0177Y-2.3228
X2.0276Y-1.752
X2.0276Y-1.7913
X2.0374Y-1.1811
X2.0374Y-1.2205
X2.0374Y-1.2598
X2.0374Y-1.2992
X2.0374Y-1.3386
X2.0374Y-1.378
X2.0374Y-1.4567
X2.0374Y-1.4961
X2.0374Y-1.5354
X2.0374Y-1.5748
X2.0374Y-1.6142
X2.0374Y-1.6831
X2.0472Y-1.4173
X2.051Y-2.106
X2.0571Y-1.0039
X2.0571Y-1.7224
X2.0571Y-2.3228
X2.063Y-1.759
X2.064Y-1.921
X2.0669Y-1.2008
X2.0669Y-1.2402
X2.0669Y-1.2795
X2.0669Y-1.3189
X2.0669Y-1.3583
X2.0669Y-1.4764
X2.0669Y-1.5157
X2.0669Y-1.5551
X2.0669Y-1.5945
X2.0669Y-1.6339
X2.0669Y-2.2343
X2.0768Y-1.3976
X2.0768Y-1.437
X2.0768Y-1.6831
X2.0965Y-2.3228
X2.104Y-2.13
X2.1063Y-1.1024
X2.1063Y-1.4173
X2.1063Y-1.6339
X2.1063Y-1.6732
X2.1063Y-1.7126
X2.1063Y-1.752
X2.1063Y-1.8307
X2.1083Y-2.2244
X2.123Y-2.15
X2.1358Y-2.3228
X2.1457Y-1.0039
X2.1457Y-1.8307
X2.153Y-2.147
X2.154Y-2.116
X2.1555Y-1.1713
X2.164Y-2.238
X2.1752Y-1.2008
X2.1752Y-1.2402
X2.1752Y-1.2795
X2.1752Y-1.3189
X2.1752Y-1.3583
X2.1752Y-1.3976
X2.1752Y-1.437
X2.1752Y-1.4764
X2.1752Y-1.5157
X2.1752Y-1.5945
X2.1752Y-1.6339
X2.1752Y-1.6732
X2.1752Y-1.7126
X2.1752Y-1.752
X2.1752Y-1.7913
X2.1752Y-2.3228
X2.183Y-2.156
X2.185Y-1.0039
X2.1949Y-1.1713
X2.204Y-2.231
X2.2047Y-1.2205
X2.2047Y-1.2598
X2.2047Y-1.2992
X2.2047Y-1.3386
X2.2047Y-1.378
X2.2047Y-1.4173
X2.2047Y-1.4469
X2.2047Y-1.4961
X2.2047Y-1.5453
X2.2146Y-2.3228
X2.2244Y-1.0039
X2.2244Y-1.8307
X2.2343Y-1.1024
X2.2343Y-1.4665
X2.2343Y-1.5256
X2.2343Y-1.5748
X2.2441Y-1.3976
X2.2539Y-1.437
X2.2539Y-2.3228
X2.2638Y-1.063
X2.2638Y-1.1516
X2.2638Y-1.2303
X2.2638Y-1.3091
X2.2638Y-1.4764
X2.2638Y-1.5157
X2.2638Y-1.5551
X2.2638Y-1.5945
X2.2638Y-1.6732
X2.2638Y-1.752
X2.2638Y-1.7913
X2.2835Y-1.3976
X2.2835Y-2.3228
X2.2933Y-1.0039
X2.2933Y-1.1024
X2.2933Y-1.437
X2.313Y-1.2303
X2.313Y-1.2697
X2.313Y-1.3091
X2.313Y-1.3583
X2.3228Y-1.1811
X2.3228Y-1.4075
X2.3228Y-2.3228
X2.3327Y-1.0039
X2.3425Y-1.2106
X2.3425Y-1.25
X2.3425Y-1.2894
X2.3425Y-1.3287
X2.3425Y-1.3681
X2.3425Y-1.4764
X2.3425Y-1.5157
X2.3425Y-1.5551
X2.3425Y-1.5945
X2.3425Y-1.6339
X2.3425Y-1.6732
X2.3425Y-1.7126
X2.3425Y-1.752
X2.351Y-1.896
X2.353Y-1.824
X2.3622Y-1.1713
X2.3622Y-2.3228
X2.372Y-1.0039
X2.4016Y-2.3228
X2.4114Y-1.4173
X2.4114Y-1.6634
X2.4114Y-1.7028
X2.4114Y-1.752
X2.4213Y-1.1024
X2.4409Y-1.437
X2.4409Y-1.6339
X2.4409Y-1.7224
X2.4409Y-2.3228
X2.4508Y-1.4075
X2.4508Y-1.6732
X2.4508Y-2.24
X2.457Y-1.758
X2.4606Y-1.0039
X2.4606Y-1.1713
X2.4606Y-1.2106
X2.4606Y-1.25
X2.4606Y-1.2894
X2.4606Y-1.3287
X2.4606Y-1.3681
X2.4606Y-1.4764
X2.4606Y-1.5157
X2.4606Y-1.5551
X2.4606Y-1.5945
X2.4803Y-1.4469
X2.4803Y-1.624
X2.4803Y-2.3228
X2.4902Y-1.1909
X2.4902Y-1.2303
X2.4902Y-1.2697
X2.4902Y-1.3091
X2.4902Y-1.3484
X2.4902Y-1.4961
X2.4902Y-1.5354
X2.4902Y-1.5748
X2.495Y-2.2933
X2.5Y-1.0039
X2.5Y-2.2441
X2.5059Y-2.1299
X2.5098Y-1.9587
X2.5197Y-1.4272
X2.5197Y-2.3228
X2.5394Y-1.0039
X2.5394Y-1.3287
X2.5394Y-2.2835
X2.5492Y-1.2303
X2.5591Y-2.3228
X2.5689Y-1.2795
X2.5787Y-1.378
X2.58Y-1.08
X2.5886Y-1.1614
X2.5984Y-1.0236
X2.5984Y-2.3228
X2.6181Y-2.2933
X2.628Y-1.063
X2.628Y-1.1024
X2.628Y-1.1417
X2.628Y-1.1811
X2.628Y-1.2205
X2.628Y-1.2598
X2.628Y-1.2992
X2.628Y-1.3386
X2.628Y-1.378
X2.628Y-1.4173
X2.628Y-1.4567
T2
X1.9Y-1.525
X1.9Y-1.625
X1.9Y-1.725
X1.9Y-1.825
X1.9Y-1.925
X1.9Y-2.025
X1.9Y-2.125
X1.9Y-2.225
X2.6Y-1.525
X2.6Y-1.625
X2.6Y-1.725
X2.6Y-1.825
X2.6Y-1.925
X2.6Y-2.025
X2.6Y-2.125
X2.6Y-2.225
M30
