%TF.GenerationSoftware,KiCad,Pcbnew,9.0.0*%
%TF.CreationDate,2025-11-21T20:28:00+01:00*%
%TF.ProjectId,LR2021-Explorer,4c523230-3231-42d4-9578-706c6f726572,rev?*%
%TF.SameCoordinates,Original*%
%TF.FileFunction,Legend,Top*%
%TF.FilePolarity,Positive*%
%FSLAX46Y46*%
G04 Gerber Fmt 4.6, Leading zero omitted, Abs format (unit mm)*
G04 Created by KiCad (PCBNEW 9.0.0) date 2025-11-21 20:28:00*
%MOMM*%
%LPD*%
G01*
G04 APERTURE LIST*
%ADD10C,0.100000*%
%ADD11C,0.160000*%
%ADD12C,0.000000*%
%ADD13C,0.120000*%
G04 APERTURE END LIST*
D10*
X63754000Y-52070000D02*
X63754000Y-50800000D01*
D11*
G36*
X63976471Y-57266583D02*
G01*
X63976471Y-57133654D01*
X64679500Y-57133654D01*
X64679500Y-57266583D01*
X63976471Y-57266583D01*
G37*
G36*
X64390549Y-56291605D02*
G01*
X64445968Y-56304392D01*
X64497215Y-56325371D01*
X64544966Y-56354747D01*
X64589698Y-56393140D01*
X64628303Y-56437815D01*
X64657774Y-56485301D01*
X64678772Y-56536063D01*
X64691545Y-56590755D01*
X64695913Y-56650193D01*
X64691352Y-56712684D01*
X64678096Y-56769380D01*
X64656444Y-56821228D01*
X64626231Y-56868988D01*
X64586834Y-56913188D01*
X64540941Y-56951331D01*
X64492603Y-56980416D01*
X64441383Y-57001094D01*
X64386673Y-57013633D01*
X64327729Y-57017907D01*
X64278017Y-57014798D01*
X64230934Y-57005620D01*
X64186039Y-56990445D01*
X64142953Y-56969138D01*
X64102924Y-56942411D01*
X64067515Y-56911321D01*
X64036397Y-56875646D01*
X64009383Y-56835012D01*
X63987724Y-56791321D01*
X63972387Y-56746357D01*
X63963166Y-56699765D01*
X63960151Y-56652587D01*
X64088627Y-56652587D01*
X64093005Y-56700081D01*
X64105740Y-56742626D01*
X64126750Y-56781227D01*
X64156631Y-56816590D01*
X64192553Y-56845433D01*
X64232722Y-56866015D01*
X64277970Y-56878662D01*
X64329438Y-56883054D01*
X64375595Y-56879484D01*
X64416347Y-56869214D01*
X64452607Y-56852581D01*
X64485079Y-56829479D01*
X64514214Y-56799365D01*
X64537594Y-56765425D01*
X64554053Y-56729589D01*
X64563971Y-56691382D01*
X64567343Y-56650193D01*
X64562963Y-56604003D01*
X64550149Y-56562168D01*
X64528869Y-56523744D01*
X64498400Y-56488071D01*
X64461934Y-56458793D01*
X64421986Y-56438085D01*
X64377828Y-56425479D01*
X64328455Y-56421136D01*
X64279369Y-56425490D01*
X64235253Y-56438156D01*
X64195131Y-56459018D01*
X64158297Y-56488584D01*
X64127535Y-56524514D01*
X64106029Y-56563325D01*
X64093064Y-56605692D01*
X64088627Y-56652587D01*
X63960151Y-56652587D01*
X63960058Y-56651134D01*
X63964439Y-56592640D01*
X63977293Y-56538440D01*
X63998509Y-56487753D01*
X64028408Y-56439951D01*
X64067726Y-56394593D01*
X64113068Y-56355643D01*
X64161403Y-56325860D01*
X64213212Y-56304605D01*
X64269172Y-56291657D01*
X64330122Y-56287224D01*
X64390549Y-56291605D01*
G37*
G36*
X64522034Y-55755562D02*
G01*
X64562078Y-55767570D01*
X64598666Y-55787440D01*
X64632440Y-55815774D01*
X64660408Y-55849876D01*
X64680021Y-55886647D01*
X64691861Y-55926709D01*
X64695913Y-55970930D01*
X64691647Y-56017297D01*
X64679275Y-56058546D01*
X64658924Y-56095695D01*
X64630046Y-56129461D01*
X64595083Y-56157714D01*
X64558638Y-56177258D01*
X64520186Y-56188882D01*
X64478994Y-56192806D01*
X64446746Y-56190392D01*
X64413812Y-56183018D01*
X64377102Y-56168979D01*
X64312940Y-56137796D01*
X63992692Y-55973793D01*
X64381328Y-55973793D01*
X64384350Y-55997524D01*
X64393172Y-56018147D01*
X64408085Y-56036454D01*
X64427192Y-56050427D01*
X64449206Y-56058869D01*
X64474977Y-56061800D01*
X64500716Y-56058765D01*
X64522996Y-56049963D01*
X64542638Y-56035257D01*
X64558114Y-56016203D01*
X64567073Y-55995782D01*
X64570079Y-55973323D01*
X64567066Y-55949559D01*
X64558198Y-55928443D01*
X64543108Y-55909252D01*
X64523718Y-55894458D01*
X64501309Y-55885547D01*
X64474977Y-55882453D01*
X64449255Y-55885456D01*
X64427244Y-55894122D01*
X64408085Y-55908526D01*
X64393247Y-55927319D01*
X64384386Y-55948792D01*
X64381328Y-55973793D01*
X63992692Y-55973793D01*
X63960058Y-55957081D01*
X64016606Y-55843258D01*
X64255494Y-55966142D01*
X64259557Y-55922693D01*
X64271430Y-55883417D01*
X64291109Y-55847429D01*
X64319223Y-55814107D01*
X64352965Y-55786731D01*
X64390101Y-55767345D01*
X64431332Y-55755526D01*
X64477627Y-55751447D01*
X64522034Y-55755562D01*
G37*
G36*
X64679500Y-51785359D02*
G01*
X64378592Y-51943678D01*
X64378592Y-51956073D01*
X64679500Y-51956073D01*
X64679500Y-52089985D01*
X63976471Y-52089985D01*
X63976471Y-51947952D01*
X63977550Y-51919272D01*
X64105040Y-51919272D01*
X64105040Y-51956073D01*
X64250023Y-51956073D01*
X64250023Y-51914014D01*
X64247582Y-51871017D01*
X64241494Y-51843041D01*
X64233182Y-51825794D01*
X64220137Y-51812829D01*
X64202080Y-51804657D01*
X64177275Y-51801644D01*
X64155400Y-51804714D01*
X64137054Y-51813612D01*
X64122414Y-51827524D01*
X64112520Y-51845626D01*
X64107372Y-51869897D01*
X64105040Y-51919272D01*
X63977550Y-51919272D01*
X63979435Y-51869178D01*
X63986916Y-51815969D01*
X63997116Y-51781812D01*
X64013774Y-51751126D01*
X64036401Y-51724728D01*
X64065632Y-51702183D01*
X64098760Y-51685728D01*
X64136230Y-51675581D01*
X64178985Y-51672049D01*
X64223777Y-51676011D01*
X64261680Y-51687248D01*
X64294005Y-51705303D01*
X64321453Y-51730187D01*
X64344799Y-51763057D01*
X64363974Y-51805448D01*
X64679500Y-51639052D01*
X64679500Y-51785359D01*
G37*
G36*
X64074266Y-51162088D02*
G01*
X64162486Y-51261080D01*
X64126907Y-51290421D01*
X64104567Y-51317439D01*
X64092451Y-51342749D01*
X64088627Y-51367252D01*
X64092300Y-51391665D01*
X64102647Y-51410294D01*
X64118014Y-51423062D01*
X64134276Y-51427006D01*
X64151166Y-51424100D01*
X64167573Y-51415038D01*
X64193378Y-51390086D01*
X64257460Y-51317030D01*
X64337816Y-51224236D01*
X64379583Y-51188231D01*
X64416077Y-51166619D01*
X64454737Y-51153971D01*
X64497587Y-51149650D01*
X64539538Y-51153538D01*
X64576628Y-51164788D01*
X64609822Y-51183260D01*
X64639792Y-51209447D01*
X64663889Y-51240853D01*
X64681301Y-51276690D01*
X64692122Y-51317797D01*
X64695913Y-51365286D01*
X64691613Y-51414224D01*
X64679194Y-51457463D01*
X64658898Y-51496078D01*
X64631070Y-51529894D01*
X64592958Y-51561698D01*
X64542595Y-51591479D01*
X64474336Y-51479109D01*
X64519058Y-51449583D01*
X64547091Y-51420693D01*
X64562417Y-51392013D01*
X64567343Y-51362465D01*
X64565023Y-51340234D01*
X64558360Y-51321167D01*
X64547425Y-51304592D01*
X64532906Y-51291209D01*
X64517727Y-51283660D01*
X64501349Y-51281169D01*
X64478261Y-51285348D01*
X64453862Y-51298864D01*
X64428068Y-51322708D01*
X64381200Y-51376784D01*
X64316075Y-51452855D01*
X64269684Y-51499492D01*
X64237585Y-51525015D01*
X64202738Y-51544117D01*
X64169316Y-51554970D01*
X64136670Y-51558482D01*
X64101605Y-51554992D01*
X64069599Y-51544732D01*
X64039921Y-51527568D01*
X64012075Y-51502789D01*
X63989407Y-51473436D01*
X63973297Y-51441162D01*
X63963455Y-51405377D01*
X63960058Y-51365286D01*
X63962783Y-51330825D01*
X63970926Y-51297576D01*
X63984635Y-51265140D01*
X64003485Y-51235260D01*
X64032528Y-51201160D01*
X64074266Y-51162088D01*
G37*
G36*
X63976471Y-51090623D02*
G01*
X63976471Y-50701837D01*
X64105040Y-50701837D01*
X64105040Y-50829979D01*
X64679500Y-50829979D01*
X64679500Y-50965815D01*
X64105040Y-50965815D01*
X64105040Y-51090623D01*
X63976471Y-51090623D01*
G37*
G36*
X63976471Y-49990404D02*
G01*
X63976471Y-49859355D01*
X64466813Y-49696805D01*
X63976471Y-49531819D01*
X63976471Y-49402694D01*
X64679500Y-49284126D01*
X64679500Y-49413252D01*
X64235490Y-49488778D01*
X64679500Y-49638462D01*
X64679500Y-49756559D01*
X64235490Y-49904320D01*
X64679500Y-49981299D01*
X64679500Y-50111835D01*
X63976471Y-49990404D01*
G37*
G36*
X63976471Y-49186332D02*
G01*
X63976471Y-49053402D01*
X64679500Y-49053402D01*
X64679500Y-49186332D01*
X63976471Y-49186332D01*
G37*
G36*
X64074266Y-48534551D02*
G01*
X64162486Y-48633543D01*
X64126907Y-48662884D01*
X64104567Y-48689902D01*
X64092451Y-48715212D01*
X64088627Y-48739715D01*
X64092300Y-48764128D01*
X64102647Y-48782757D01*
X64118014Y-48795525D01*
X64134276Y-48799469D01*
X64151166Y-48796563D01*
X64167573Y-48787501D01*
X64193378Y-48762549D01*
X64257460Y-48689493D01*
X64337816Y-48596699D01*
X64379583Y-48560694D01*
X64416077Y-48539082D01*
X64454737Y-48526434D01*
X64497587Y-48522113D01*
X64539538Y-48526001D01*
X64576628Y-48537251D01*
X64609822Y-48555723D01*
X64639792Y-48581910D01*
X64663889Y-48613316D01*
X64681301Y-48649153D01*
X64692122Y-48690260D01*
X64695913Y-48737749D01*
X64691613Y-48786687D01*
X64679194Y-48829926D01*
X64658898Y-48868541D01*
X64631070Y-48902357D01*
X64592958Y-48934161D01*
X64542595Y-48963942D01*
X64474336Y-48851572D01*
X64519058Y-48822046D01*
X64547091Y-48793156D01*
X64562417Y-48764476D01*
X64567343Y-48734928D01*
X64565023Y-48712697D01*
X64558360Y-48693630D01*
X64547425Y-48677055D01*
X64532906Y-48663672D01*
X64517727Y-48656123D01*
X64501349Y-48653632D01*
X64478261Y-48657811D01*
X64453862Y-48671327D01*
X64428068Y-48695171D01*
X64381200Y-48749247D01*
X64316075Y-48825318D01*
X64269684Y-48871955D01*
X64237585Y-48897478D01*
X64202738Y-48916580D01*
X64169316Y-48927433D01*
X64136670Y-48930945D01*
X64101605Y-48927455D01*
X64069599Y-48917195D01*
X64039921Y-48900031D01*
X64012075Y-48875252D01*
X63989407Y-48845899D01*
X63973297Y-48813625D01*
X63963455Y-48777840D01*
X63960058Y-48737749D01*
X63962783Y-48703288D01*
X63970926Y-48670039D01*
X63984635Y-48637603D01*
X64003485Y-48607723D01*
X64032528Y-48573623D01*
X64074266Y-48534551D01*
G37*
G36*
X64390549Y-47701863D02*
G01*
X64445968Y-47714650D01*
X64497215Y-47735629D01*
X64544966Y-47765005D01*
X64589698Y-47803398D01*
X64628303Y-47848073D01*
X64657774Y-47895560D01*
X64678772Y-47946321D01*
X64691545Y-48001013D01*
X64695913Y-48060451D01*
X64691352Y-48122942D01*
X64678096Y-48179638D01*
X64656444Y-48231487D01*
X64626231Y-48279246D01*
X64586834Y-48323446D01*
X64540941Y-48361589D01*
X64492603Y-48390674D01*
X64441383Y-48411352D01*
X64386673Y-48423892D01*
X64327729Y-48428165D01*
X64278017Y-48425056D01*
X64230934Y-48415878D01*
X64186039Y-48400703D01*
X64142953Y-48379396D01*
X64102924Y-48352669D01*
X64067515Y-48321579D01*
X64036397Y-48285904D01*
X64009383Y-48245270D01*
X63987724Y-48201579D01*
X63972387Y-48156615D01*
X63963166Y-48110023D01*
X63960151Y-48062845D01*
X64088627Y-48062845D01*
X64093005Y-48110339D01*
X64105740Y-48152885D01*
X64126750Y-48191485D01*
X64156631Y-48226848D01*
X64192553Y-48255691D01*
X64232722Y-48276274D01*
X64277970Y-48288920D01*
X64329438Y-48293313D01*
X64375595Y-48289742D01*
X64416347Y-48279472D01*
X64452607Y-48262839D01*
X64485079Y-48239737D01*
X64514214Y-48209623D01*
X64537594Y-48175683D01*
X64554053Y-48139847D01*
X64563971Y-48101641D01*
X64567343Y-48060451D01*
X64562963Y-48014261D01*
X64550149Y-47972426D01*
X64528869Y-47934002D01*
X64498400Y-47898329D01*
X64461934Y-47869052D01*
X64421986Y-47848343D01*
X64377828Y-47835737D01*
X64328455Y-47831394D01*
X64279369Y-47835748D01*
X64235253Y-47848414D01*
X64195131Y-47869276D01*
X64158297Y-47898842D01*
X64127535Y-47934772D01*
X64106029Y-47973583D01*
X64093064Y-48015950D01*
X64088627Y-48062845D01*
X63960151Y-48062845D01*
X63960058Y-48061392D01*
X63964439Y-48002898D01*
X63977293Y-47948698D01*
X63998509Y-47898011D01*
X64028408Y-47850209D01*
X64067726Y-47804851D01*
X64113068Y-47765901D01*
X64161403Y-47736118D01*
X64213212Y-47714863D01*
X64269172Y-47701915D01*
X64330122Y-47697482D01*
X64390549Y-47701863D01*
G37*
G36*
X63976471Y-47450404D02*
G01*
X63976471Y-47319355D01*
X64466813Y-47156805D01*
X63976471Y-46991819D01*
X63976471Y-46862694D01*
X64679500Y-46744126D01*
X64679500Y-46873252D01*
X64235490Y-46948778D01*
X64679500Y-47098462D01*
X64679500Y-47216559D01*
X64235490Y-47364320D01*
X64679500Y-47441299D01*
X64679500Y-47571835D01*
X63976471Y-47450404D01*
G37*
G36*
X64390549Y-45944905D02*
G01*
X64445968Y-45957693D01*
X64497215Y-45978671D01*
X64544966Y-46008047D01*
X64589698Y-46046441D01*
X64628303Y-46091115D01*
X64657774Y-46138602D01*
X64678772Y-46189364D01*
X64691545Y-46244056D01*
X64695913Y-46303494D01*
X64691352Y-46365985D01*
X64678096Y-46422681D01*
X64656444Y-46474529D01*
X64626231Y-46522289D01*
X64586834Y-46566489D01*
X64540941Y-46604632D01*
X64492603Y-46633717D01*
X64441383Y-46654395D01*
X64386673Y-46666934D01*
X64327729Y-46671208D01*
X64278017Y-46668099D01*
X64230934Y-46658921D01*
X64186039Y-46643746D01*
X64142953Y-46622439D01*
X64102924Y-46595711D01*
X64067515Y-46564622D01*
X64036397Y-46528947D01*
X64009383Y-46488313D01*
X63987724Y-46444621D01*
X63972387Y-46399658D01*
X63963166Y-46353065D01*
X63960151Y-46305888D01*
X64088627Y-46305888D01*
X64093005Y-46353382D01*
X64105740Y-46395927D01*
X64126750Y-46434528D01*
X64156631Y-46469891D01*
X64192553Y-46498734D01*
X64232722Y-46519316D01*
X64277970Y-46531963D01*
X64329438Y-46536355D01*
X64375595Y-46532785D01*
X64416347Y-46522515D01*
X64452607Y-46505882D01*
X64485079Y-46482779D01*
X64514214Y-46452665D01*
X64537594Y-46418725D01*
X64554053Y-46382889D01*
X64563971Y-46344683D01*
X64567343Y-46303494D01*
X64562963Y-46257303D01*
X64550149Y-46215469D01*
X64528869Y-46177045D01*
X64498400Y-46141372D01*
X64461934Y-46112094D01*
X64421986Y-46091386D01*
X64377828Y-46078780D01*
X64328455Y-46074437D01*
X64279369Y-46078790D01*
X64235253Y-46091457D01*
X64195131Y-46112318D01*
X64158297Y-46141885D01*
X64127535Y-46177815D01*
X64106029Y-46216625D01*
X64093064Y-46258993D01*
X64088627Y-46305888D01*
X63960151Y-46305888D01*
X63960058Y-46304434D01*
X63964439Y-46245940D01*
X63977293Y-46191741D01*
X63998509Y-46141053D01*
X64028408Y-46093251D01*
X64067726Y-46047894D01*
X64113068Y-46008944D01*
X64161403Y-45979161D01*
X64213212Y-45957906D01*
X64269172Y-45944958D01*
X64330122Y-45940525D01*
X64390549Y-45944905D01*
G37*
G36*
X64074266Y-45445396D02*
G01*
X64162486Y-45544387D01*
X64126907Y-45573728D01*
X64104567Y-45600747D01*
X64092451Y-45626057D01*
X64088627Y-45650560D01*
X64092300Y-45674973D01*
X64102647Y-45693601D01*
X64118014Y-45706370D01*
X64134276Y-45710314D01*
X64151166Y-45707407D01*
X64167573Y-45698346D01*
X64193378Y-45673393D01*
X64257460Y-45600337D01*
X64337816Y-45507543D01*
X64379583Y-45471538D01*
X64416077Y-45449926D01*
X64454737Y-45437278D01*
X64497587Y-45432958D01*
X64539538Y-45436845D01*
X64576628Y-45448096D01*
X64609822Y-45466568D01*
X64639792Y-45492754D01*
X64663889Y-45524161D01*
X64681301Y-45559997D01*
X64692122Y-45601105D01*
X64695913Y-45648594D01*
X64691613Y-45697532D01*
X64679194Y-45740770D01*
X64658898Y-45779386D01*
X64631070Y-45813202D01*
X64592958Y-45845005D01*
X64542595Y-45874787D01*
X64474336Y-45762417D01*
X64519058Y-45732890D01*
X64547091Y-45704001D01*
X64562417Y-45675320D01*
X64567343Y-45645772D01*
X64565023Y-45623541D01*
X64558360Y-45604475D01*
X64547425Y-45587899D01*
X64532906Y-45574516D01*
X64517727Y-45566967D01*
X64501349Y-45564476D01*
X64478261Y-45568655D01*
X64453862Y-45582172D01*
X64428068Y-45606015D01*
X64381200Y-45660091D01*
X64316075Y-45736163D01*
X64269684Y-45782799D01*
X64237585Y-45808322D01*
X64202738Y-45827424D01*
X64169316Y-45838277D01*
X64136670Y-45841790D01*
X64101605Y-45838299D01*
X64069599Y-45828039D01*
X64039921Y-45810875D01*
X64012075Y-45786096D01*
X63989407Y-45756743D01*
X63973297Y-45724469D01*
X63963455Y-45688684D01*
X63960058Y-45648594D01*
X63962783Y-45614132D01*
X63970926Y-45580883D01*
X63984635Y-45548448D01*
X64003485Y-45518567D01*
X64032528Y-45484467D01*
X64074266Y-45445396D01*
G37*
G36*
X63976471Y-45314133D02*
G01*
X63976471Y-45181204D01*
X64679500Y-45181204D01*
X64679500Y-45314133D01*
X63976471Y-45314133D01*
G37*
G36*
X64074266Y-44306324D02*
G01*
X64162486Y-44405315D01*
X64126907Y-44434656D01*
X64104567Y-44461675D01*
X64092451Y-44486985D01*
X64088627Y-44511488D01*
X64092300Y-44535901D01*
X64102647Y-44554529D01*
X64118014Y-44567298D01*
X64134276Y-44571242D01*
X64151166Y-44568335D01*
X64167573Y-44559274D01*
X64193378Y-44534321D01*
X64257460Y-44461265D01*
X64337816Y-44368471D01*
X64379583Y-44332466D01*
X64416077Y-44310854D01*
X64454737Y-44298206D01*
X64497587Y-44293885D01*
X64539538Y-44297773D01*
X64576628Y-44309024D01*
X64609822Y-44327496D01*
X64639792Y-44353682D01*
X64663889Y-44385089D01*
X64681301Y-44420925D01*
X64692122Y-44462033D01*
X64695913Y-44509521D01*
X64691613Y-44558459D01*
X64679194Y-44601698D01*
X64658898Y-44640313D01*
X64631070Y-44674130D01*
X64592958Y-44705933D01*
X64542595Y-44735715D01*
X64474336Y-44623345D01*
X64519058Y-44593818D01*
X64547091Y-44564929D01*
X64562417Y-44536248D01*
X64567343Y-44506700D01*
X64565023Y-44484469D01*
X64558360Y-44465403D01*
X64547425Y-44448827D01*
X64532906Y-44435444D01*
X64517727Y-44427895D01*
X64501349Y-44425404D01*
X64478261Y-44429583D01*
X64453862Y-44443100D01*
X64428068Y-44466943D01*
X64381200Y-44521019D01*
X64316075Y-44597091D01*
X64269684Y-44643727D01*
X64237585Y-44669250D01*
X64202738Y-44688352D01*
X64169316Y-44699205D01*
X64136670Y-44702717D01*
X64101605Y-44699227D01*
X64069599Y-44688967D01*
X64039921Y-44671803D01*
X64012075Y-44647024D01*
X63989407Y-44617671D01*
X63973297Y-44585397D01*
X63963455Y-44549612D01*
X63960058Y-44509521D01*
X63962783Y-44475060D01*
X63970926Y-44441811D01*
X63984635Y-44409376D01*
X64003485Y-44379495D01*
X64032528Y-44345395D01*
X64074266Y-44306324D01*
G37*
G36*
X64100510Y-43519007D02*
G01*
X64189243Y-43612741D01*
X64151607Y-43653720D01*
X64123571Y-43695312D01*
X64104089Y-43737856D01*
X64092512Y-43781847D01*
X64088627Y-43827907D01*
X64093061Y-43877135D01*
X64105954Y-43921256D01*
X64127190Y-43961281D01*
X64157314Y-43997936D01*
X64193768Y-44028245D01*
X64233595Y-44049594D01*
X64277523Y-44062552D01*
X64326575Y-44067008D01*
X64372466Y-44063460D01*
X64413674Y-44053178D01*
X64450998Y-44036405D01*
X64484605Y-44013221D01*
X64512921Y-43984552D01*
X64536355Y-43949851D01*
X64553451Y-43911517D01*
X64563808Y-43870293D01*
X64567343Y-43825513D01*
X64564850Y-43787091D01*
X64557574Y-43751694D01*
X64545673Y-43718871D01*
X64528897Y-43688165D01*
X64503248Y-43653042D01*
X64466727Y-43612741D01*
X64561274Y-43521870D01*
X64609347Y-43576190D01*
X64643672Y-43625024D01*
X64666549Y-43669161D01*
X64682517Y-43716234D01*
X64692456Y-43768712D01*
X64695913Y-43827437D01*
X64691479Y-43892755D01*
X64678676Y-43951349D01*
X64657943Y-44004230D01*
X64629300Y-44052227D01*
X64592348Y-44095945D01*
X64548899Y-44133313D01*
X64501317Y-44162210D01*
X64449012Y-44183085D01*
X64391170Y-44195956D01*
X64326788Y-44200408D01*
X64274688Y-44197291D01*
X64226646Y-44188202D01*
X64182109Y-44173376D01*
X64140602Y-44152835D01*
X64102208Y-44126749D01*
X64067718Y-44095606D01*
X64036881Y-44059054D01*
X64009596Y-44016572D01*
X63987874Y-43971233D01*
X63972463Y-43924521D01*
X63963186Y-43876083D01*
X63960058Y-43825513D01*
X63964110Y-43768274D01*
X63976230Y-43712587D01*
X63996603Y-43657920D01*
X64024405Y-43606653D01*
X64058918Y-43560496D01*
X64100510Y-43519007D01*
G37*
G36*
X63976471Y-43400653D02*
G01*
X63976471Y-43265330D01*
X64217710Y-43265330D01*
X63976471Y-43074527D01*
X63976471Y-42913388D01*
X64289688Y-43159158D01*
X64679500Y-42889495D01*
X64679500Y-43048241D01*
X64365684Y-43265330D01*
X64679500Y-43265330D01*
X64679500Y-43400653D01*
X63976471Y-43400653D01*
G37*
G36*
X63976471Y-42066119D02*
G01*
X63976471Y-41937977D01*
X64439116Y-41636258D01*
X63976471Y-41636258D01*
X63976471Y-41502346D01*
X64679500Y-41502346D01*
X64679500Y-41631001D01*
X64218308Y-41932250D01*
X64679500Y-41932250D01*
X64679500Y-42066119D01*
X63976471Y-42066119D01*
G37*
G36*
X64074266Y-40973023D02*
G01*
X64162486Y-41072014D01*
X64126907Y-41101355D01*
X64104567Y-41128374D01*
X64092451Y-41153684D01*
X64088627Y-41178187D01*
X64092300Y-41202600D01*
X64102647Y-41221228D01*
X64118014Y-41233997D01*
X64134276Y-41237941D01*
X64151166Y-41235034D01*
X64167573Y-41225973D01*
X64193378Y-41201020D01*
X64257460Y-41127964D01*
X64337816Y-41035170D01*
X64379583Y-40999165D01*
X64416077Y-40977553D01*
X64454737Y-40964905D01*
X64497587Y-40960585D01*
X64539538Y-40964472D01*
X64576628Y-40975723D01*
X64609822Y-40994195D01*
X64639792Y-41020381D01*
X64663889Y-41051788D01*
X64681301Y-41087624D01*
X64692122Y-41128732D01*
X64695913Y-41176221D01*
X64691613Y-41225159D01*
X64679194Y-41268397D01*
X64658898Y-41307013D01*
X64631070Y-41340829D01*
X64592958Y-41372632D01*
X64542595Y-41402414D01*
X64474336Y-41290044D01*
X64519058Y-41260517D01*
X64547091Y-41231628D01*
X64562417Y-41202947D01*
X64567343Y-41173400D01*
X64565023Y-41151168D01*
X64558360Y-41132102D01*
X64547425Y-41115526D01*
X64532906Y-41102143D01*
X64517727Y-41094594D01*
X64501349Y-41092103D01*
X64478261Y-41096282D01*
X64453862Y-41109799D01*
X64428068Y-41133642D01*
X64381200Y-41187718D01*
X64316075Y-41263790D01*
X64269684Y-41310426D01*
X64237585Y-41335949D01*
X64202738Y-41355051D01*
X64169316Y-41365904D01*
X64136670Y-41369417D01*
X64101605Y-41365927D01*
X64069599Y-41355666D01*
X64039921Y-41338503D01*
X64012075Y-41313723D01*
X63989407Y-41284370D01*
X63973297Y-41252096D01*
X63963455Y-41216312D01*
X63960058Y-41176221D01*
X63962783Y-41141760D01*
X63970926Y-41108511D01*
X63984635Y-41076075D01*
X64003485Y-41046194D01*
X64032528Y-41012094D01*
X64074266Y-40973023D01*
G37*
G36*
X64074266Y-40463532D02*
G01*
X64162486Y-40562524D01*
X64126907Y-40591865D01*
X64104567Y-40618883D01*
X64092451Y-40644193D01*
X64088627Y-40668696D01*
X64092300Y-40693109D01*
X64102647Y-40711738D01*
X64118014Y-40724506D01*
X64134276Y-40728450D01*
X64151166Y-40725544D01*
X64167573Y-40716482D01*
X64193378Y-40691530D01*
X64257460Y-40618474D01*
X64337816Y-40525680D01*
X64379583Y-40489674D01*
X64416077Y-40468063D01*
X64454737Y-40455415D01*
X64497587Y-40451094D01*
X64539538Y-40454982D01*
X64576628Y-40466232D01*
X64609822Y-40484704D01*
X64639792Y-40510891D01*
X64663889Y-40542297D01*
X64681301Y-40578134D01*
X64692122Y-40619241D01*
X64695913Y-40666730D01*
X64691613Y-40715668D01*
X64679194Y-40758907D01*
X64658898Y-40797522D01*
X64631070Y-40831338D01*
X64592958Y-40863142D01*
X64542595Y-40892923D01*
X64474336Y-40780553D01*
X64519058Y-40751027D01*
X64547091Y-40722137D01*
X64562417Y-40693457D01*
X64567343Y-40663909D01*
X64565023Y-40641678D01*
X64558360Y-40622611D01*
X64547425Y-40606036D01*
X64532906Y-40592653D01*
X64517727Y-40585104D01*
X64501349Y-40582613D01*
X64478261Y-40586792D01*
X64453862Y-40600308D01*
X64428068Y-40624151D01*
X64381200Y-40678228D01*
X64316075Y-40754299D01*
X64269684Y-40800936D01*
X64237585Y-40826459D01*
X64202738Y-40845561D01*
X64169316Y-40856414D01*
X64136670Y-40859926D01*
X64101605Y-40856436D01*
X64069599Y-40846175D01*
X64039921Y-40829012D01*
X64012075Y-40804233D01*
X63989407Y-40774880D01*
X63973297Y-40742606D01*
X63963455Y-40706821D01*
X63960058Y-40666730D01*
X63962783Y-40632269D01*
X63970926Y-40599020D01*
X63984635Y-40566584D01*
X64003485Y-40536704D01*
X64032528Y-40502604D01*
X64074266Y-40463532D01*
G37*
G36*
X63976471Y-54726583D02*
G01*
X63976471Y-54593654D01*
X64679500Y-54593654D01*
X64679500Y-54726583D01*
X63976471Y-54726583D01*
G37*
G36*
X64390549Y-53751605D02*
G01*
X64445968Y-53764392D01*
X64497215Y-53785371D01*
X64544966Y-53814747D01*
X64589698Y-53853140D01*
X64628303Y-53897815D01*
X64657774Y-53945301D01*
X64678772Y-53996063D01*
X64691545Y-54050755D01*
X64695913Y-54110193D01*
X64691352Y-54172684D01*
X64678096Y-54229380D01*
X64656444Y-54281228D01*
X64626231Y-54328988D01*
X64586834Y-54373188D01*
X64540941Y-54411331D01*
X64492603Y-54440416D01*
X64441383Y-54461094D01*
X64386673Y-54473633D01*
X64327729Y-54477907D01*
X64278017Y-54474798D01*
X64230934Y-54465620D01*
X64186039Y-54450445D01*
X64142953Y-54429138D01*
X64102924Y-54402411D01*
X64067515Y-54371321D01*
X64036397Y-54335646D01*
X64009383Y-54295012D01*
X63987724Y-54251321D01*
X63972387Y-54206357D01*
X63963166Y-54159765D01*
X63960151Y-54112587D01*
X64088627Y-54112587D01*
X64093005Y-54160081D01*
X64105740Y-54202626D01*
X64126750Y-54241227D01*
X64156631Y-54276590D01*
X64192553Y-54305433D01*
X64232722Y-54326015D01*
X64277970Y-54338662D01*
X64329438Y-54343054D01*
X64375595Y-54339484D01*
X64416347Y-54329214D01*
X64452607Y-54312581D01*
X64485079Y-54289479D01*
X64514214Y-54259365D01*
X64537594Y-54225425D01*
X64554053Y-54189589D01*
X64563971Y-54151382D01*
X64567343Y-54110193D01*
X64562963Y-54064003D01*
X64550149Y-54022168D01*
X64528869Y-53983744D01*
X64498400Y-53948071D01*
X64461934Y-53918793D01*
X64421986Y-53898085D01*
X64377828Y-53885479D01*
X64328455Y-53881136D01*
X64279369Y-53885490D01*
X64235253Y-53898156D01*
X64195131Y-53919018D01*
X64158297Y-53948584D01*
X64127535Y-53984514D01*
X64106029Y-54023325D01*
X64093064Y-54065692D01*
X64088627Y-54112587D01*
X63960151Y-54112587D01*
X63960058Y-54111134D01*
X63964439Y-54052640D01*
X63977293Y-53998440D01*
X63998509Y-53947753D01*
X64028408Y-53899951D01*
X64067726Y-53854593D01*
X64113068Y-53815643D01*
X64161403Y-53785860D01*
X64213212Y-53764605D01*
X64269172Y-53751657D01*
X64330122Y-53747224D01*
X64390549Y-53751605D01*
G37*
G36*
X63976471Y-53537572D02*
G01*
X63976471Y-53208113D01*
X64099569Y-53208113D01*
X64099569Y-53437640D01*
X64226600Y-53466320D01*
X64221599Y-53442897D01*
X64219932Y-53420885D01*
X64224171Y-53374230D01*
X64236452Y-53332820D01*
X64256612Y-53295628D01*
X64285157Y-53261926D01*
X64319598Y-53234488D01*
X64358315Y-53214850D01*
X64402139Y-53202750D01*
X64452195Y-53198539D01*
X64502312Y-53203058D01*
X64547253Y-53216204D01*
X64588047Y-53237861D01*
X64625430Y-53268594D01*
X64656471Y-53305820D01*
X64678245Y-53346122D01*
X64691404Y-53390202D01*
X64695913Y-53439051D01*
X64692560Y-53483411D01*
X64682826Y-53523489D01*
X64666926Y-53560003D01*
X64644707Y-53593522D01*
X64617090Y-53622689D01*
X64584919Y-53646401D01*
X64547633Y-53664915D01*
X64504426Y-53678152D01*
X64504426Y-53537572D01*
X64533302Y-53518368D01*
X64553452Y-53494787D01*
X64565898Y-53466950D01*
X64570079Y-53436187D01*
X64566500Y-53407885D01*
X64556012Y-53383008D01*
X64538236Y-53360661D01*
X64515353Y-53343567D01*
X64488495Y-53333178D01*
X64456512Y-53329544D01*
X64425338Y-53332941D01*
X64399173Y-53342628D01*
X64376925Y-53358481D01*
X64359447Y-53379393D01*
X64349232Y-53402464D01*
X64345766Y-53428536D01*
X64348454Y-53450104D01*
X64356751Y-53471791D01*
X64370011Y-53492281D01*
X64389748Y-53513636D01*
X64365470Y-53622672D01*
X63976471Y-53537572D01*
G37*
G36*
X64513443Y-39060730D02*
G01*
X64549159Y-39070906D01*
X64582688Y-39087881D01*
X64612740Y-39110567D01*
X64636802Y-39136766D01*
X64655435Y-39166784D01*
X64667952Y-39199941D01*
X64676366Y-39243559D01*
X64679500Y-39300183D01*
X64679500Y-39497184D01*
X63976471Y-39497184D01*
X63976471Y-39386737D01*
X63978869Y-39328906D01*
X64105040Y-39328906D01*
X64105040Y-39363314D01*
X64252758Y-39363314D01*
X64252758Y-39335574D01*
X64373121Y-39335574D01*
X64373121Y-39363314D01*
X64550930Y-39363314D01*
X64550930Y-39329847D01*
X64547860Y-39273860D01*
X64540310Y-39238567D01*
X64530200Y-39217733D01*
X64514443Y-39201791D01*
X64494737Y-39192192D01*
X64469805Y-39188796D01*
X64441616Y-39192692D01*
X64418449Y-39203885D01*
X64399066Y-39222734D01*
X64385899Y-39246976D01*
X64376697Y-39283184D01*
X64373121Y-39335574D01*
X64252758Y-39335574D01*
X64252758Y-39334164D01*
X64250088Y-39302212D01*
X64242979Y-39278738D01*
X64232285Y-39261715D01*
X64217201Y-39248705D01*
X64198933Y-39240814D01*
X64176506Y-39238036D01*
X64155628Y-39240662D01*
X64138544Y-39248140D01*
X64124360Y-39260518D01*
X64114258Y-39276664D01*
X64107554Y-39298835D01*
X64105040Y-39328906D01*
X63978869Y-39328906D01*
X63980190Y-39297064D01*
X63988909Y-39246157D01*
X64003672Y-39206177D01*
X64024406Y-39173050D01*
X64051228Y-39145755D01*
X64083252Y-39125089D01*
X64118688Y-39112691D01*
X64158554Y-39108441D01*
X64197344Y-39112773D01*
X64231644Y-39125409D01*
X64262398Y-39146787D01*
X64293193Y-39180633D01*
X64316052Y-39140028D01*
X64341106Y-39109334D01*
X64368334Y-39086941D01*
X64399564Y-39070710D01*
X64434781Y-39060741D01*
X64474891Y-39057278D01*
X64513443Y-39060730D01*
G37*
G36*
X64074266Y-38560225D02*
G01*
X64162486Y-38659217D01*
X64126907Y-38688558D01*
X64104567Y-38715576D01*
X64092451Y-38740886D01*
X64088627Y-38765389D01*
X64092300Y-38789802D01*
X64102647Y-38808431D01*
X64118014Y-38821199D01*
X64134276Y-38825143D01*
X64151166Y-38822237D01*
X64167573Y-38813175D01*
X64193378Y-38788223D01*
X64257460Y-38715167D01*
X64337816Y-38622373D01*
X64379583Y-38586368D01*
X64416077Y-38564756D01*
X64454737Y-38552108D01*
X64497587Y-38547787D01*
X64539538Y-38551675D01*
X64576628Y-38562925D01*
X64609822Y-38581397D01*
X64639792Y-38607584D01*
X64663889Y-38638990D01*
X64681301Y-38674827D01*
X64692122Y-38715934D01*
X64695913Y-38763423D01*
X64691613Y-38812361D01*
X64679194Y-38855600D01*
X64658898Y-38894215D01*
X64631070Y-38928031D01*
X64592958Y-38959835D01*
X64542595Y-38989616D01*
X64474336Y-38877246D01*
X64519058Y-38847720D01*
X64547091Y-38818830D01*
X64562417Y-38790150D01*
X64567343Y-38760602D01*
X64565023Y-38738371D01*
X64558360Y-38719304D01*
X64547425Y-38702729D01*
X64532906Y-38689346D01*
X64517727Y-38681797D01*
X64501349Y-38679306D01*
X64478261Y-38683485D01*
X64453862Y-38697001D01*
X64428068Y-38720845D01*
X64381200Y-38774921D01*
X64316075Y-38850992D01*
X64269684Y-38897629D01*
X64237585Y-38923152D01*
X64202738Y-38942254D01*
X64169316Y-38953107D01*
X64136670Y-38956619D01*
X64101605Y-38953129D01*
X64069599Y-38942869D01*
X64039921Y-38925705D01*
X64012075Y-38900926D01*
X63989407Y-38871573D01*
X63973297Y-38839299D01*
X63963455Y-38803514D01*
X63960058Y-38763423D01*
X63962783Y-38728962D01*
X63970926Y-38695713D01*
X63984635Y-38663277D01*
X64003485Y-38633397D01*
X64032528Y-38599297D01*
X64074266Y-38560225D01*
G37*
G36*
X63976471Y-38469611D02*
G01*
X63976471Y-38325697D01*
X64227455Y-38194649D01*
X63976471Y-38064583D01*
X63976471Y-37922593D01*
X64375045Y-38128184D01*
X64679500Y-38128184D01*
X64679500Y-38263037D01*
X64375045Y-38263037D01*
X63976471Y-38469611D01*
G37*
G36*
X50208465Y-38347924D02*
G01*
X50115928Y-38253720D01*
X50151286Y-38215513D01*
X50177833Y-38175978D01*
X50196442Y-38134776D01*
X50207598Y-38091405D01*
X50211372Y-38045222D01*
X50206902Y-37994503D01*
X50193943Y-37949286D01*
X50172680Y-37908516D01*
X50142642Y-37871431D01*
X50106063Y-37840530D01*
X50066536Y-37818898D01*
X50023375Y-37805845D01*
X49975604Y-37801376D01*
X49926200Y-37806015D01*
X49881641Y-37819557D01*
X49840901Y-37841993D01*
X49803266Y-37874038D01*
X49772386Y-37912493D01*
X49750540Y-37954641D01*
X49737239Y-38001251D01*
X49732656Y-38053386D01*
X49736081Y-38098862D01*
X49745755Y-38137432D01*
X49761122Y-38170287D01*
X49782914Y-38199163D01*
X49812212Y-38224720D01*
X49850283Y-38247052D01*
X49850283Y-38043341D01*
X49976117Y-38043341D01*
X49976117Y-38397207D01*
X49946668Y-38398147D01*
X49886778Y-38392869D01*
X49829083Y-38377068D01*
X49772748Y-38350318D01*
X49721529Y-38314676D01*
X49680042Y-38273509D01*
X49647299Y-38226450D01*
X49623751Y-38174201D01*
X49609167Y-38115208D01*
X49604086Y-38048129D01*
X49607192Y-37993591D01*
X49616252Y-37943196D01*
X49631020Y-37896406D01*
X49651445Y-37852753D01*
X49677640Y-37812106D01*
X49708665Y-37776129D01*
X49744791Y-37744473D01*
X49786469Y-37716960D01*
X49831303Y-37695043D01*
X49877520Y-37679502D01*
X49925482Y-37670149D01*
X49975604Y-37666994D01*
X50030399Y-37670773D01*
X50081410Y-37681865D01*
X50129272Y-37700138D01*
X50174513Y-37725776D01*
X50217527Y-37759275D01*
X50261619Y-37805747D01*
X50295473Y-37856702D01*
X50319804Y-37912775D01*
X50334767Y-37974905D01*
X50339941Y-38044282D01*
X50336118Y-38104792D01*
X50324853Y-38161821D01*
X50306260Y-38215936D01*
X50283898Y-38258710D01*
X50251810Y-38302581D01*
X50208465Y-38347924D01*
G37*
G36*
X50323528Y-38521758D02*
G01*
X50323528Y-38649900D01*
X49860883Y-38951619D01*
X50323528Y-38951619D01*
X50323528Y-39085532D01*
X49620500Y-39085532D01*
X49620500Y-38956877D01*
X50081691Y-38655628D01*
X49620500Y-38655628D01*
X49620500Y-38521758D01*
X50323528Y-38521758D01*
G37*
G36*
X50323528Y-39405417D02*
G01*
X50320525Y-39485504D01*
X50312432Y-39548297D01*
X50300454Y-39596759D01*
X50285530Y-39633533D01*
X50264174Y-39668339D01*
X50236882Y-39700304D01*
X50203080Y-39729648D01*
X50161961Y-39756418D01*
X50118518Y-39777112D01*
X50071142Y-39792183D01*
X50019264Y-39801500D01*
X49962226Y-39804717D01*
X49908584Y-39801605D01*
X49858968Y-39792524D01*
X49812841Y-39777704D01*
X49769210Y-39756948D01*
X49731766Y-39732075D01*
X49699830Y-39703075D01*
X49672449Y-39669762D01*
X49651932Y-39635508D01*
X49637682Y-39600023D01*
X49629275Y-39561762D01*
X49623004Y-39500392D01*
X49621431Y-39442218D01*
X49749069Y-39442218D01*
X49752033Y-39503871D01*
X49759619Y-39546711D01*
X49770226Y-39575361D01*
X49786935Y-39600551D01*
X49810279Y-39623055D01*
X49841393Y-39643022D01*
X49875733Y-39657159D01*
X49916383Y-39666150D01*
X49964577Y-39669352D01*
X50020563Y-39664974D01*
X50067278Y-39652680D01*
X50106394Y-39633240D01*
X50139180Y-39606734D01*
X50161886Y-39577150D01*
X50179274Y-39538620D01*
X50190739Y-39488974D01*
X50194959Y-39425506D01*
X50194959Y-39380070D01*
X49749069Y-39380070D01*
X49749069Y-39442218D01*
X49621431Y-39442218D01*
X49620500Y-39407810D01*
X49620500Y-39246671D01*
X50323528Y-39246671D01*
X50323528Y-39405417D01*
G37*
G36*
X50323528Y-40249180D02*
G01*
X50323528Y-40382109D01*
X49620500Y-40382109D01*
X49620500Y-40249180D01*
X50323528Y-40249180D01*
G37*
G36*
X50021982Y-40500965D02*
G01*
X50069065Y-40510143D01*
X50113960Y-40525318D01*
X50157046Y-40546625D01*
X50197075Y-40573352D01*
X50232484Y-40604442D01*
X50263602Y-40640117D01*
X50290616Y-40680751D01*
X50312275Y-40724442D01*
X50327612Y-40769406D01*
X50336833Y-40815998D01*
X50339941Y-40864629D01*
X50335560Y-40923123D01*
X50322706Y-40977323D01*
X50301490Y-41028010D01*
X50271591Y-41075812D01*
X50232273Y-41121170D01*
X50186931Y-41160120D01*
X50138596Y-41189903D01*
X50086787Y-41211158D01*
X50030827Y-41224106D01*
X49969877Y-41228539D01*
X49909450Y-41224158D01*
X49854031Y-41211371D01*
X49802784Y-41190392D01*
X49755033Y-41161016D01*
X49710301Y-41122623D01*
X49671696Y-41077948D01*
X49642225Y-41030462D01*
X49621227Y-40979700D01*
X49608454Y-40925008D01*
X49604086Y-40865570D01*
X49732656Y-40865570D01*
X49737036Y-40911760D01*
X49749850Y-40953595D01*
X49771130Y-40992019D01*
X49801599Y-41027692D01*
X49838065Y-41056970D01*
X49878013Y-41077678D01*
X49922171Y-41090284D01*
X49971544Y-41094627D01*
X50020630Y-41090273D01*
X50064746Y-41077607D01*
X50104868Y-41056745D01*
X50141702Y-41027179D01*
X50172464Y-40991249D01*
X50193970Y-40952438D01*
X50206935Y-40910071D01*
X50211372Y-40863176D01*
X50206994Y-40815682D01*
X50194259Y-40773137D01*
X50173249Y-40734536D01*
X50143368Y-40699173D01*
X50107446Y-40670330D01*
X50067277Y-40649748D01*
X50022029Y-40637101D01*
X49970561Y-40632709D01*
X49924404Y-40636279D01*
X49883652Y-40646549D01*
X49847392Y-40663182D01*
X49814920Y-40686284D01*
X49785785Y-40716398D01*
X49762405Y-40750338D01*
X49745946Y-40786174D01*
X49736028Y-40824381D01*
X49732656Y-40865570D01*
X49604086Y-40865570D01*
X49608647Y-40803079D01*
X49621903Y-40746383D01*
X49643555Y-40694535D01*
X49673768Y-40646775D01*
X49713165Y-40602575D01*
X49759058Y-40564432D01*
X49807396Y-40535347D01*
X49858616Y-40514669D01*
X49913326Y-40502130D01*
X49972270Y-40497856D01*
X50021982Y-40500965D01*
G37*
G36*
X50323528Y-41435797D02*
G01*
X50323528Y-41636174D01*
X49620500Y-41636174D01*
X49620500Y-41503245D01*
X50200430Y-41503245D01*
X50200430Y-41358348D01*
X50323528Y-41435797D01*
G37*
G36*
X50323528Y-41984269D02*
G01*
X50323528Y-42184646D01*
X49620500Y-42184646D01*
X49620500Y-42051717D01*
X50200430Y-42051717D01*
X50200430Y-41906820D01*
X50323528Y-41984269D01*
G37*
G36*
X50323528Y-42789180D02*
G01*
X50323528Y-42922109D01*
X49620500Y-42922109D01*
X49620500Y-42789180D01*
X50323528Y-42789180D01*
G37*
G36*
X50021982Y-43040965D02*
G01*
X50069065Y-43050143D01*
X50113960Y-43065318D01*
X50157046Y-43086625D01*
X50197075Y-43113352D01*
X50232484Y-43144442D01*
X50263602Y-43180117D01*
X50290616Y-43220751D01*
X50312275Y-43264442D01*
X50327612Y-43309406D01*
X50336833Y-43355998D01*
X50339941Y-43404629D01*
X50335560Y-43463123D01*
X50322706Y-43517323D01*
X50301490Y-43568010D01*
X50271591Y-43615812D01*
X50232273Y-43661170D01*
X50186931Y-43700120D01*
X50138596Y-43729903D01*
X50086787Y-43751158D01*
X50030827Y-43764106D01*
X49969877Y-43768539D01*
X49909450Y-43764158D01*
X49854031Y-43751371D01*
X49802784Y-43730392D01*
X49755033Y-43701016D01*
X49710301Y-43662623D01*
X49671696Y-43617948D01*
X49642225Y-43570462D01*
X49621227Y-43519700D01*
X49608454Y-43465008D01*
X49604086Y-43405570D01*
X49732656Y-43405570D01*
X49737036Y-43451760D01*
X49749850Y-43493595D01*
X49771130Y-43532019D01*
X49801599Y-43567692D01*
X49838065Y-43596970D01*
X49878013Y-43617678D01*
X49922171Y-43630284D01*
X49971544Y-43634627D01*
X50020630Y-43630273D01*
X50064746Y-43617607D01*
X50104868Y-43596745D01*
X50141702Y-43567179D01*
X50172464Y-43531249D01*
X50193970Y-43492438D01*
X50206935Y-43450071D01*
X50211372Y-43403176D01*
X50206994Y-43355682D01*
X50194259Y-43313137D01*
X50173249Y-43274536D01*
X50143368Y-43239173D01*
X50107446Y-43210330D01*
X50067277Y-43189748D01*
X50022029Y-43177101D01*
X49970561Y-43172709D01*
X49924404Y-43176279D01*
X49883652Y-43186549D01*
X49847392Y-43203182D01*
X49814920Y-43226284D01*
X49785785Y-43256398D01*
X49762405Y-43290338D01*
X49745946Y-43326174D01*
X49736028Y-43364381D01*
X49732656Y-43405570D01*
X49604086Y-43405570D01*
X49608647Y-43343079D01*
X49621903Y-43286383D01*
X49643555Y-43234535D01*
X49673768Y-43186775D01*
X49713165Y-43142575D01*
X49759058Y-43104432D01*
X49807396Y-43075347D01*
X49858616Y-43054669D01*
X49913326Y-43042130D01*
X49972270Y-43037856D01*
X50021982Y-43040965D01*
G37*
G36*
X50323528Y-43975797D02*
G01*
X50323528Y-44176174D01*
X49620500Y-44176174D01*
X49620500Y-44043245D01*
X50200430Y-44043245D01*
X50200430Y-43898348D01*
X50323528Y-43975797D01*
G37*
G36*
X50047308Y-44393488D02*
G01*
X50114179Y-44401951D01*
X50168017Y-44414730D01*
X50210904Y-44430989D01*
X50244668Y-44450154D01*
X50279411Y-44479275D01*
X50305709Y-44511769D01*
X50324448Y-44548047D01*
X50335950Y-44588857D01*
X50339941Y-44635229D01*
X50335538Y-44685389D01*
X50322879Y-44729218D01*
X50302285Y-44767901D01*
X50273890Y-44801184D01*
X50236130Y-44829868D01*
X50187265Y-44853942D01*
X50134640Y-44869604D01*
X50064217Y-44880311D01*
X49971757Y-44884332D01*
X49878380Y-44880242D01*
X49807440Y-44869365D01*
X49754583Y-44853472D01*
X49705300Y-44829293D01*
X49667945Y-44801600D01*
X49640503Y-44770509D01*
X49620829Y-44734134D01*
X49608473Y-44690844D01*
X49604086Y-44639033D01*
X49604126Y-44638562D01*
X49729920Y-44638562D01*
X49732858Y-44661465D01*
X49741474Y-44681581D01*
X49756112Y-44699651D01*
X49777920Y-44716012D01*
X49806662Y-44729493D01*
X49846506Y-44740501D01*
X49900411Y-44748076D01*
X49971757Y-44750933D01*
X50044855Y-44748268D01*
X50098219Y-44741312D01*
X50136007Y-44731414D01*
X50161833Y-44719602D01*
X50185848Y-44701725D01*
X50201761Y-44682538D01*
X50210996Y-44661725D01*
X50214107Y-44638562D01*
X50211687Y-44616706D01*
X50204543Y-44596790D01*
X50192480Y-44578296D01*
X50176274Y-44563329D01*
X50152248Y-44549813D01*
X50118108Y-44538118D01*
X50059248Y-44528309D01*
X49963679Y-44524269D01*
X49893503Y-44526960D01*
X49842136Y-44533995D01*
X49805621Y-44544032D01*
X49780527Y-44556069D01*
X49757445Y-44574067D01*
X49742009Y-44593524D01*
X49732979Y-44614781D01*
X49729920Y-44638562D01*
X49604126Y-44638562D01*
X49608462Y-44587221D01*
X49620872Y-44543236D01*
X49640759Y-44505633D01*
X49668366Y-44473230D01*
X49704966Y-44445017D01*
X49752189Y-44421003D01*
X49803187Y-44405299D01*
X49872610Y-44394486D01*
X49965090Y-44390400D01*
X50047308Y-44393488D01*
G37*
G36*
X50323528Y-45603416D02*
G01*
X50323528Y-45736345D01*
X49620500Y-45736345D01*
X49620500Y-45603416D01*
X50323528Y-45603416D01*
G37*
G36*
X50021982Y-45855201D02*
G01*
X50069065Y-45864379D01*
X50113960Y-45879554D01*
X50157046Y-45900861D01*
X50197075Y-45927588D01*
X50232484Y-45958678D01*
X50263602Y-45994353D01*
X50290616Y-46034987D01*
X50312275Y-46078678D01*
X50327612Y-46123642D01*
X50336833Y-46170234D01*
X50339941Y-46218865D01*
X50335560Y-46277359D01*
X50322706Y-46331559D01*
X50301490Y-46382246D01*
X50271591Y-46430048D01*
X50232273Y-46475406D01*
X50186931Y-46514356D01*
X50138596Y-46544139D01*
X50086787Y-46565394D01*
X50030827Y-46578342D01*
X49969877Y-46582775D01*
X49909450Y-46578394D01*
X49854031Y-46565607D01*
X49802784Y-46544628D01*
X49755033Y-46515252D01*
X49710301Y-46476859D01*
X49671696Y-46432184D01*
X49642225Y-46384698D01*
X49621227Y-46333936D01*
X49608454Y-46279244D01*
X49604086Y-46219806D01*
X49732656Y-46219806D01*
X49737036Y-46265996D01*
X49749850Y-46307831D01*
X49771130Y-46346255D01*
X49801599Y-46381928D01*
X49838065Y-46411206D01*
X49878013Y-46431914D01*
X49922171Y-46444520D01*
X49971544Y-46448863D01*
X50020630Y-46444509D01*
X50064746Y-46431843D01*
X50104868Y-46410981D01*
X50141702Y-46381415D01*
X50172464Y-46345485D01*
X50193970Y-46306674D01*
X50206935Y-46264307D01*
X50211372Y-46217412D01*
X50206994Y-46169918D01*
X50194259Y-46127373D01*
X50173249Y-46088772D01*
X50143368Y-46053409D01*
X50107446Y-46024566D01*
X50067277Y-46003984D01*
X50022029Y-45991337D01*
X49970561Y-45986945D01*
X49924404Y-45990515D01*
X49883652Y-46000785D01*
X49847392Y-46017418D01*
X49814920Y-46040520D01*
X49785785Y-46070634D01*
X49762405Y-46104574D01*
X49745946Y-46140410D01*
X49736028Y-46178617D01*
X49732656Y-46219806D01*
X49604086Y-46219806D01*
X49608647Y-46157315D01*
X49621903Y-46100619D01*
X49643555Y-46048771D01*
X49673768Y-46001011D01*
X49713165Y-45956811D01*
X49759058Y-45918668D01*
X49807396Y-45889583D01*
X49858616Y-45868905D01*
X49913326Y-45856366D01*
X49972270Y-45852092D01*
X50021982Y-45855201D01*
G37*
G36*
X50166013Y-46691829D02*
G01*
X50206169Y-46703842D01*
X50242786Y-46723701D01*
X50276511Y-46751992D01*
X50304461Y-46786112D01*
X50324060Y-46822897D01*
X50335892Y-46862968D01*
X50339941Y-46907191D01*
X50335678Y-46953561D01*
X50323311Y-46994803D01*
X50302973Y-47031937D01*
X50274118Y-47065680D01*
X50239220Y-47093929D01*
X50202759Y-47113487D01*
X50164201Y-47125132D01*
X50122809Y-47129067D01*
X50090632Y-47126650D01*
X50057926Y-47119279D01*
X50021484Y-47105288D01*
X49957439Y-47074100D01*
X49636755Y-46910054D01*
X50025356Y-46910054D01*
X50028391Y-46933776D01*
X50037251Y-46954399D01*
X50052241Y-46972715D01*
X50071469Y-46986723D01*
X50093385Y-46995148D01*
X50118792Y-46998061D01*
X50144755Y-46995016D01*
X50167113Y-46986204D01*
X50186709Y-46971518D01*
X50202160Y-46952467D01*
X50211105Y-46932045D01*
X50214107Y-46909584D01*
X50211079Y-46885830D01*
X50202160Y-46864699D01*
X50186966Y-46845470D01*
X50167486Y-46830665D01*
X50145204Y-46821784D01*
X50119262Y-46818714D01*
X50093591Y-46821710D01*
X50071531Y-46830371D01*
X50052241Y-46844786D01*
X50037327Y-46863589D01*
X50028427Y-46885062D01*
X50025356Y-46910054D01*
X49636755Y-46910054D01*
X49604086Y-46893342D01*
X49659823Y-46779519D01*
X49899523Y-46902403D01*
X49903581Y-46858950D01*
X49915438Y-46819664D01*
X49935092Y-46783663D01*
X49963166Y-46750326D01*
X49996886Y-46722965D01*
X50033987Y-46703593D01*
X50075170Y-46691783D01*
X50121399Y-46687708D01*
X50166013Y-46691829D01*
G37*
G36*
X50323528Y-48143416D02*
G01*
X50323528Y-48276345D01*
X49620500Y-48276345D01*
X49620500Y-48143416D01*
X50323528Y-48143416D01*
G37*
G36*
X50021982Y-48395201D02*
G01*
X50069065Y-48404379D01*
X50113960Y-48419554D01*
X50157046Y-48440861D01*
X50197075Y-48467588D01*
X50232484Y-48498678D01*
X50263602Y-48534353D01*
X50290616Y-48574987D01*
X50312275Y-48618678D01*
X50327612Y-48663642D01*
X50336833Y-48710234D01*
X50339941Y-48758865D01*
X50335560Y-48817359D01*
X50322706Y-48871559D01*
X50301490Y-48922246D01*
X50271591Y-48970048D01*
X50232273Y-49015406D01*
X50186931Y-49054356D01*
X50138596Y-49084139D01*
X50086787Y-49105394D01*
X50030827Y-49118342D01*
X49969877Y-49122775D01*
X49909450Y-49118394D01*
X49854031Y-49105607D01*
X49802784Y-49084628D01*
X49755033Y-49055252D01*
X49710301Y-49016859D01*
X49671696Y-48972184D01*
X49642225Y-48924698D01*
X49621227Y-48873936D01*
X49608454Y-48819244D01*
X49604086Y-48759806D01*
X49732656Y-48759806D01*
X49737036Y-48805996D01*
X49749850Y-48847831D01*
X49771130Y-48886255D01*
X49801599Y-48921928D01*
X49838065Y-48951206D01*
X49878013Y-48971914D01*
X49922171Y-48984520D01*
X49971544Y-48988863D01*
X50020630Y-48984509D01*
X50064746Y-48971843D01*
X50104868Y-48950981D01*
X50141702Y-48921415D01*
X50172464Y-48885485D01*
X50193970Y-48846674D01*
X50206935Y-48804307D01*
X50211372Y-48757412D01*
X50206994Y-48709918D01*
X50194259Y-48667373D01*
X50173249Y-48628772D01*
X50143368Y-48593409D01*
X50107446Y-48564566D01*
X50067277Y-48543984D01*
X50022029Y-48531337D01*
X49970561Y-48526945D01*
X49924404Y-48530515D01*
X49883652Y-48540785D01*
X49847392Y-48557418D01*
X49814920Y-48580520D01*
X49785785Y-48610634D01*
X49762405Y-48644574D01*
X49745946Y-48680410D01*
X49736028Y-48718617D01*
X49732656Y-48759806D01*
X49604086Y-48759806D01*
X49608647Y-48697315D01*
X49621903Y-48640619D01*
X49643555Y-48588771D01*
X49673768Y-48541011D01*
X49713165Y-48496811D01*
X49759058Y-48458668D01*
X49807396Y-48429583D01*
X49858616Y-48408905D01*
X49913326Y-48396366D01*
X49972270Y-48392092D01*
X50021982Y-48395201D01*
G37*
G36*
X49855699Y-49201785D02*
G01*
X49889110Y-49209862D01*
X49920210Y-49223177D01*
X49948804Y-49241455D01*
X49975843Y-49265378D01*
X50001463Y-49295626D01*
X50034913Y-49267577D01*
X50069296Y-49248053D01*
X50106182Y-49236048D01*
X50145249Y-49232025D01*
X50180992Y-49235034D01*
X50214045Y-49243881D01*
X50244967Y-49258568D01*
X50272685Y-49278571D01*
X50295900Y-49303184D01*
X50314937Y-49332897D01*
X50328575Y-49365636D01*
X50337011Y-49402226D01*
X50339941Y-49443386D01*
X50336982Y-49483867D01*
X50328463Y-49519797D01*
X50314680Y-49551910D01*
X50295485Y-49580995D01*
X50271743Y-49605501D01*
X50243044Y-49625811D01*
X50211239Y-49640861D01*
X50178165Y-49649814D01*
X50143326Y-49652825D01*
X50106786Y-49649239D01*
X50073570Y-49638720D01*
X50041615Y-49620310D01*
X50001463Y-49587300D01*
X49978997Y-49617000D01*
X49952963Y-49641475D01*
X49923074Y-49661159D01*
X49890332Y-49675628D01*
X49855957Y-49684301D01*
X49819466Y-49687232D01*
X49779946Y-49683824D01*
X49742813Y-49673732D01*
X49707480Y-49656842D01*
X49675729Y-49634060D01*
X49650101Y-49607018D01*
X49630031Y-49575333D01*
X49616248Y-49540259D01*
X49607315Y-49497289D01*
X49604086Y-49444797D01*
X49604195Y-49442874D01*
X49729920Y-49442874D01*
X49733228Y-49475961D01*
X49742473Y-49502676D01*
X49757233Y-49524383D01*
X49777168Y-49541222D01*
X49800374Y-49551284D01*
X49827886Y-49554773D01*
X49855351Y-49551213D01*
X49879205Y-49540812D01*
X49900377Y-49523187D01*
X49916475Y-49500677D01*
X49926224Y-49474720D01*
X49929613Y-49444327D01*
X49929301Y-49441463D01*
X50055447Y-49441463D01*
X50058025Y-49463148D01*
X50065433Y-49481452D01*
X50077716Y-49497156D01*
X50093732Y-49509076D01*
X50112726Y-49516355D01*
X50135547Y-49518912D01*
X50157030Y-49516352D01*
X50174997Y-49509022D01*
X50190257Y-49496900D01*
X50201775Y-49481109D01*
X50208866Y-49462130D01*
X50211372Y-49439069D01*
X50208874Y-49417976D01*
X50201695Y-49400132D01*
X50189787Y-49384786D01*
X50174292Y-49373078D01*
X50156155Y-49365979D01*
X50134606Y-49363501D01*
X50113077Y-49366072D01*
X50094504Y-49373525D01*
X50078186Y-49385983D01*
X50065549Y-49402148D01*
X50058031Y-49420413D01*
X50055447Y-49441463D01*
X49929301Y-49441463D01*
X49926231Y-49413241D01*
X49916481Y-49386459D01*
X49900377Y-49363031D01*
X49879163Y-49344381D01*
X49856216Y-49333639D01*
X49830707Y-49330033D01*
X49803829Y-49333519D01*
X49780271Y-49343738D01*
X49759156Y-49361107D01*
X49743231Y-49383395D01*
X49733400Y-49410231D01*
X49729920Y-49442874D01*
X49604195Y-49442874D01*
X49607299Y-49388269D01*
X49616003Y-49343923D01*
X49629091Y-49309474D01*
X49648497Y-49278408D01*
X49673545Y-49251758D01*
X49704830Y-49229161D01*
X49739757Y-49212559D01*
X49777732Y-49202480D01*
X49819466Y-49199028D01*
X49855699Y-49201785D01*
G37*
G36*
X50323528Y-50683416D02*
G01*
X50323528Y-50816345D01*
X49620500Y-50816345D01*
X49620500Y-50683416D01*
X50323528Y-50683416D01*
G37*
G36*
X50021982Y-50935201D02*
G01*
X50069065Y-50944379D01*
X50113960Y-50959554D01*
X50157046Y-50980861D01*
X50197075Y-51007588D01*
X50232484Y-51038678D01*
X50263602Y-51074353D01*
X50290616Y-51114987D01*
X50312275Y-51158678D01*
X50327612Y-51203642D01*
X50336833Y-51250234D01*
X50339941Y-51298865D01*
X50335560Y-51357359D01*
X50322706Y-51411559D01*
X50301490Y-51462246D01*
X50271591Y-51510048D01*
X50232273Y-51555406D01*
X50186931Y-51594356D01*
X50138596Y-51624139D01*
X50086787Y-51645394D01*
X50030827Y-51658342D01*
X49969877Y-51662775D01*
X49909450Y-51658394D01*
X49854031Y-51645607D01*
X49802784Y-51624628D01*
X49755033Y-51595252D01*
X49710301Y-51556859D01*
X49671696Y-51512184D01*
X49642225Y-51464698D01*
X49621227Y-51413936D01*
X49608454Y-51359244D01*
X49604086Y-51299806D01*
X49732656Y-51299806D01*
X49737036Y-51345996D01*
X49749850Y-51387831D01*
X49771130Y-51426255D01*
X49801599Y-51461928D01*
X49838065Y-51491206D01*
X49878013Y-51511914D01*
X49922171Y-51524520D01*
X49971544Y-51528863D01*
X50020630Y-51524509D01*
X50064746Y-51511843D01*
X50104868Y-51490981D01*
X50141702Y-51461415D01*
X50172464Y-51425485D01*
X50193970Y-51386674D01*
X50206935Y-51344307D01*
X50211372Y-51297412D01*
X50206994Y-51249918D01*
X50194259Y-51207373D01*
X50173249Y-51168772D01*
X50143368Y-51133409D01*
X50107446Y-51104566D01*
X50067277Y-51083984D01*
X50022029Y-51071337D01*
X49970561Y-51066945D01*
X49924404Y-51070515D01*
X49883652Y-51080785D01*
X49847392Y-51097418D01*
X49814920Y-51120520D01*
X49785785Y-51150634D01*
X49762405Y-51184574D01*
X49745946Y-51220410D01*
X49736028Y-51258617D01*
X49732656Y-51299806D01*
X49604086Y-51299806D01*
X49608647Y-51237315D01*
X49621903Y-51180619D01*
X49643555Y-51128771D01*
X49673768Y-51081011D01*
X49713165Y-51036811D01*
X49759058Y-50998668D01*
X49807396Y-50969583D01*
X49858616Y-50948905D01*
X49913326Y-50936366D01*
X49972270Y-50932092D01*
X50021982Y-50935201D01*
G37*
G36*
X50323528Y-51767708D02*
G01*
X50323528Y-52229156D01*
X50254713Y-52229156D01*
X49604086Y-51911665D01*
X49658968Y-51798311D01*
X50200430Y-52062289D01*
X50200430Y-51767708D01*
X50323528Y-51767708D01*
G37*
G36*
X50323528Y-52972902D02*
G01*
X50323528Y-53110618D01*
X49824082Y-53287530D01*
X50323528Y-53466834D01*
X50323528Y-53604551D01*
X49620500Y-53351130D01*
X49620500Y-53222005D01*
X50323528Y-52972902D01*
G37*
G36*
X50323528Y-53871606D02*
G01*
X50320525Y-53951693D01*
X50312432Y-54014486D01*
X50300454Y-54062949D01*
X50285530Y-54099723D01*
X50264174Y-54134528D01*
X50236882Y-54166493D01*
X50203080Y-54195837D01*
X50161961Y-54222607D01*
X50118518Y-54243301D01*
X50071142Y-54258372D01*
X50019264Y-54267689D01*
X49962226Y-54270906D01*
X49908584Y-54267795D01*
X49858968Y-54258713D01*
X49812841Y-54243893D01*
X49769210Y-54223137D01*
X49731766Y-54198264D01*
X49699830Y-54169265D01*
X49672449Y-54135951D01*
X49651932Y-54101697D01*
X49637682Y-54066212D01*
X49629275Y-54027951D01*
X49623004Y-53966581D01*
X49621431Y-53908407D01*
X49749069Y-53908407D01*
X49752033Y-53970060D01*
X49759619Y-54012900D01*
X49770226Y-54041550D01*
X49786935Y-54066741D01*
X49810279Y-54089245D01*
X49841393Y-54109211D01*
X49875733Y-54123348D01*
X49916383Y-54132340D01*
X49964577Y-54135541D01*
X50020563Y-54131163D01*
X50067278Y-54118869D01*
X50106394Y-54099430D01*
X50139180Y-54072923D01*
X50161886Y-54043339D01*
X50179274Y-54004809D01*
X50190739Y-53955163D01*
X50194959Y-53891695D01*
X50194959Y-53846260D01*
X49749069Y-53846260D01*
X49749069Y-53908407D01*
X49621431Y-53908407D01*
X49620500Y-53873999D01*
X49620500Y-53712860D01*
X50323528Y-53712860D01*
X50323528Y-53871606D01*
G37*
G36*
X50323528Y-54557537D02*
G01*
X50320525Y-54637625D01*
X50312432Y-54700418D01*
X50300454Y-54748880D01*
X50285530Y-54785654D01*
X50264174Y-54820460D01*
X50236882Y-54852425D01*
X50203080Y-54881769D01*
X50161961Y-54908539D01*
X50118518Y-54929233D01*
X50071142Y-54944304D01*
X50019264Y-54953621D01*
X49962226Y-54956838D01*
X49908584Y-54953726D01*
X49858968Y-54944644D01*
X49812841Y-54929825D01*
X49769210Y-54909069D01*
X49731766Y-54884196D01*
X49699830Y-54855196D01*
X49672449Y-54821883D01*
X49651932Y-54787629D01*
X49637682Y-54752144D01*
X49629275Y-54713883D01*
X49623004Y-54652513D01*
X49621431Y-54594339D01*
X49749069Y-54594339D01*
X49752033Y-54655991D01*
X49759619Y-54698832D01*
X49770226Y-54727482D01*
X49786935Y-54752672D01*
X49810279Y-54775176D01*
X49841393Y-54795143D01*
X49875733Y-54809280D01*
X49916383Y-54818271D01*
X49964577Y-54821472D01*
X50020563Y-54817094D01*
X50067278Y-54804800D01*
X50106394Y-54785361D01*
X50139180Y-54758855D01*
X50161886Y-54729271D01*
X50179274Y-54690740D01*
X50190739Y-54641095D01*
X50194959Y-54577626D01*
X50194959Y-54532191D01*
X49749069Y-54532191D01*
X49749069Y-54594339D01*
X49621431Y-54594339D01*
X49620500Y-54559931D01*
X49620500Y-54398792D01*
X50323528Y-54398792D01*
X50323528Y-54557537D01*
G37*
G36*
X50208465Y-56127924D02*
G01*
X50115928Y-56033720D01*
X50151286Y-55995513D01*
X50177833Y-55955978D01*
X50196442Y-55914776D01*
X50207598Y-55871405D01*
X50211372Y-55825222D01*
X50206902Y-55774503D01*
X50193943Y-55729286D01*
X50172680Y-55688516D01*
X50142642Y-55651431D01*
X50106063Y-55620530D01*
X50066536Y-55598898D01*
X50023375Y-55585845D01*
X49975604Y-55581376D01*
X49926200Y-55586015D01*
X49881641Y-55599557D01*
X49840901Y-55621993D01*
X49803266Y-55654038D01*
X49772386Y-55692493D01*
X49750540Y-55734641D01*
X49737239Y-55781251D01*
X49732656Y-55833386D01*
X49736081Y-55878862D01*
X49745755Y-55917432D01*
X49761122Y-55950287D01*
X49782914Y-55979163D01*
X49812212Y-56004720D01*
X49850283Y-56027052D01*
X49850283Y-55823341D01*
X49976117Y-55823341D01*
X49976117Y-56177207D01*
X49946668Y-56178147D01*
X49886778Y-56172869D01*
X49829083Y-56157068D01*
X49772748Y-56130318D01*
X49721529Y-56094676D01*
X49680042Y-56053509D01*
X49647299Y-56006450D01*
X49623751Y-55954201D01*
X49609167Y-55895208D01*
X49604086Y-55828129D01*
X49607192Y-55773591D01*
X49616252Y-55723196D01*
X49631020Y-55676406D01*
X49651445Y-55632753D01*
X49677640Y-55592106D01*
X49708665Y-55556129D01*
X49744791Y-55524473D01*
X49786469Y-55496960D01*
X49831303Y-55475043D01*
X49877520Y-55459502D01*
X49925482Y-55450149D01*
X49975604Y-55446994D01*
X50030399Y-55450773D01*
X50081410Y-55461865D01*
X50129272Y-55480138D01*
X50174513Y-55505776D01*
X50217527Y-55539275D01*
X50261619Y-55585747D01*
X50295473Y-55636702D01*
X50319804Y-55692775D01*
X50334767Y-55754905D01*
X50339941Y-55824282D01*
X50336118Y-55884792D01*
X50324853Y-55941821D01*
X50306260Y-55995936D01*
X50283898Y-56038710D01*
X50251810Y-56082581D01*
X50208465Y-56127924D01*
G37*
G36*
X50323528Y-56301758D02*
G01*
X50323528Y-56429900D01*
X49860883Y-56731619D01*
X50323528Y-56731619D01*
X50323528Y-56865532D01*
X49620500Y-56865532D01*
X49620500Y-56736877D01*
X50081691Y-56435628D01*
X49620500Y-56435628D01*
X49620500Y-56301758D01*
X50323528Y-56301758D01*
G37*
G36*
X50323528Y-57185417D02*
G01*
X50320525Y-57265504D01*
X50312432Y-57328297D01*
X50300454Y-57376759D01*
X50285530Y-57413533D01*
X50264174Y-57448339D01*
X50236882Y-57480304D01*
X50203080Y-57509648D01*
X50161961Y-57536418D01*
X50118518Y-57557112D01*
X50071142Y-57572183D01*
X50019264Y-57581500D01*
X49962226Y-57584717D01*
X49908584Y-57581605D01*
X49858968Y-57572524D01*
X49812841Y-57557704D01*
X49769210Y-57536948D01*
X49731766Y-57512075D01*
X49699830Y-57483075D01*
X49672449Y-57449762D01*
X49651932Y-57415508D01*
X49637682Y-57380023D01*
X49629275Y-57341762D01*
X49623004Y-57280392D01*
X49621431Y-57222218D01*
X49749069Y-57222218D01*
X49752033Y-57283871D01*
X49759619Y-57326711D01*
X49770226Y-57355361D01*
X49786935Y-57380551D01*
X49810279Y-57403055D01*
X49841393Y-57423022D01*
X49875733Y-57437159D01*
X49916383Y-57446150D01*
X49964577Y-57449352D01*
X50020563Y-57444974D01*
X50067278Y-57432680D01*
X50106394Y-57413240D01*
X50139180Y-57386734D01*
X50161886Y-57357150D01*
X50179274Y-57318620D01*
X50190739Y-57268974D01*
X50194959Y-57205506D01*
X50194959Y-57160070D01*
X49749069Y-57160070D01*
X49749069Y-57222218D01*
X49621431Y-57222218D01*
X49620500Y-57187810D01*
X49620500Y-57026671D01*
X50323528Y-57026671D01*
X50323528Y-57185417D01*
G37*
D12*
%TO.C,kibuzzard-6920B030*%
G36*
X62138731Y-57309161D02*
G01*
X62197534Y-57317884D01*
X62255198Y-57332328D01*
X62311169Y-57352355D01*
X62364908Y-57377771D01*
X62415897Y-57408333D01*
X62463644Y-57443744D01*
X62507691Y-57483666D01*
X62547612Y-57527713D01*
X62583024Y-57575460D01*
X62613586Y-57626449D01*
X62639002Y-57680187D01*
X62659029Y-57736158D01*
X62673473Y-57793823D01*
X62682196Y-57852626D01*
X62685112Y-57912000D01*
X62682196Y-57971374D01*
X62673473Y-58030177D01*
X62659029Y-58087842D01*
X62639002Y-58143813D01*
X62613586Y-58197551D01*
X62583024Y-58248540D01*
X62547612Y-58296287D01*
X62507691Y-58340334D01*
X62463644Y-58380256D01*
X62415897Y-58415667D01*
X62364908Y-58446229D01*
X62311169Y-58471645D01*
X62255198Y-58491672D01*
X62197534Y-58506116D01*
X62138731Y-58514839D01*
X62079357Y-58517756D01*
X61893723Y-58517756D01*
X61228598Y-58517756D01*
X60668434Y-58517756D01*
X59588897Y-58517756D01*
X59093995Y-58517756D01*
X58247768Y-58517756D01*
X57981283Y-58517756D01*
X57196511Y-58517756D01*
X56572173Y-58517756D01*
X55987537Y-58517756D01*
X55530705Y-58517756D01*
X54642602Y-58517756D01*
X54283118Y-58517756D01*
X53673465Y-58517756D01*
X53034444Y-58517756D01*
X52660277Y-58517756D01*
X52474643Y-58517756D01*
X52415269Y-58514839D01*
X52356466Y-58506116D01*
X52298802Y-58491672D01*
X52242831Y-58471645D01*
X52189092Y-58446229D01*
X52138103Y-58415667D01*
X52090356Y-58380256D01*
X52046309Y-58340334D01*
X52020629Y-58312000D01*
X52660277Y-58312000D01*
X53034444Y-58312000D01*
X53160617Y-58312000D01*
X53312894Y-58312000D01*
X53312894Y-57973183D01*
X53327034Y-57973183D01*
X53507048Y-58312000D01*
X53673465Y-58312000D01*
X53634687Y-58239124D01*
X53728937Y-58239124D01*
X53728937Y-58312000D01*
X54283118Y-58312000D01*
X54283118Y-58171143D01*
X53998142Y-58171143D01*
X54087877Y-58076514D01*
X54152202Y-58005149D01*
X54201602Y-57940431D01*
X54213798Y-57919886D01*
X54359801Y-57919886D01*
X54363668Y-58016993D01*
X54375270Y-58098026D01*
X54394607Y-58162986D01*
X54436075Y-58237493D01*
X54490868Y-58290246D01*
X54559529Y-58321653D01*
X54642602Y-58332122D01*
X54725131Y-58321721D01*
X54792160Y-58290518D01*
X54843423Y-58239124D01*
X54976524Y-58239124D01*
X54976524Y-58312000D01*
X55530705Y-58312000D01*
X55530705Y-58171143D01*
X55245729Y-58171143D01*
X55335464Y-58076514D01*
X55399789Y-58005149D01*
X55449188Y-57940431D01*
X55483662Y-57882360D01*
X55514050Y-57802959D01*
X55524179Y-57728995D01*
X55515817Y-57669648D01*
X55509538Y-57655032D01*
X55671562Y-57655032D01*
X55836347Y-57655032D01*
X55836347Y-58312000D01*
X55987537Y-58312000D01*
X56759801Y-58312000D01*
X57196511Y-58312000D01*
X57269386Y-58312000D01*
X57441786Y-58312000D01*
X57625063Y-58030831D01*
X57809971Y-58312000D01*
X57981283Y-58312000D01*
X58095491Y-58312000D01*
X58247768Y-58312000D01*
X58719828Y-58312000D01*
X59093995Y-58312000D01*
X59093995Y-58166793D01*
X58872105Y-58166793D01*
X58872105Y-57911728D01*
X59170678Y-57911728D01*
X59178122Y-57994461D01*
X59200453Y-58071347D01*
X59237673Y-58142387D01*
X59289780Y-58207581D01*
X59353139Y-58262068D01*
X59424111Y-58300987D01*
X59502697Y-58324339D01*
X59588897Y-58332122D01*
X59671613Y-58324542D01*
X59713692Y-58312000D01*
X60155586Y-58312000D01*
X60307863Y-58312000D01*
X60307863Y-57973183D01*
X60322003Y-57973183D01*
X60502017Y-58312000D01*
X60668434Y-58312000D01*
X60791888Y-58312000D01*
X61228598Y-58312000D01*
X61380875Y-58312000D01*
X61533152Y-58312000D01*
X61533152Y-57973183D01*
X61547292Y-57973183D01*
X61727306Y-58312000D01*
X61893723Y-58312000D01*
X61704464Y-57956324D01*
X61771018Y-57922673D01*
X61818400Y-57876106D01*
X61846748Y-57816623D01*
X61856198Y-57744223D01*
X61847632Y-57674203D01*
X61821935Y-57614243D01*
X61782167Y-57567133D01*
X61731385Y-57535657D01*
X61685369Y-57522514D01*
X61622374Y-57514629D01*
X61542398Y-57512000D01*
X61380875Y-57512000D01*
X61380875Y-58312000D01*
X61228598Y-58312000D01*
X61228598Y-58162442D01*
X60943077Y-58162442D01*
X60943077Y-57951973D01*
X61228598Y-57951973D01*
X61228598Y-57805678D01*
X60943077Y-57805678D01*
X60943077Y-57661014D01*
X61228598Y-57661014D01*
X61228598Y-57512000D01*
X60791888Y-57512000D01*
X60791888Y-58312000D01*
X60668434Y-58312000D01*
X60479175Y-57956324D01*
X60545729Y-57922673D01*
X60593111Y-57876106D01*
X60621460Y-57816623D01*
X60630909Y-57744223D01*
X60622343Y-57674203D01*
X60596646Y-57614243D01*
X60556878Y-57567133D01*
X60506096Y-57535657D01*
X60460080Y-57522514D01*
X60397085Y-57514629D01*
X60317109Y-57512000D01*
X60155586Y-57512000D01*
X60155586Y-58312000D01*
X59713692Y-58312000D01*
X59747904Y-58301803D01*
X59817772Y-58263903D01*
X59881215Y-58210844D01*
X59933917Y-58146840D01*
X59971562Y-58076106D01*
X59994148Y-57998642D01*
X60001677Y-57914447D01*
X59994046Y-57829437D01*
X59971154Y-57751157D01*
X59932999Y-57679607D01*
X59879583Y-57614787D01*
X59815562Y-57561014D01*
X59745593Y-57522605D01*
X59669675Y-57499559D01*
X59587809Y-57491878D01*
X59514782Y-57498132D01*
X59445079Y-57516895D01*
X59378700Y-57548166D01*
X59318604Y-57590133D01*
X59267755Y-57640983D01*
X59226150Y-57700715D01*
X59195332Y-57766944D01*
X59176841Y-57837281D01*
X59170678Y-57911728D01*
X58872105Y-57911728D01*
X58872105Y-57512000D01*
X58719828Y-57512000D01*
X58719828Y-58312000D01*
X58247768Y-58312000D01*
X58247768Y-57973183D01*
X58346069Y-57970056D01*
X58408203Y-57960674D01*
X58475436Y-57930491D01*
X58527034Y-57883448D01*
X58559869Y-57820906D01*
X58570814Y-57744223D01*
X58562452Y-57673999D01*
X58537367Y-57614515D01*
X58497802Y-57567880D01*
X58446001Y-57536201D01*
X58399260Y-57522756D01*
X58336264Y-57514689D01*
X58257014Y-57512000D01*
X58095491Y-57512000D01*
X58095491Y-58312000D01*
X57981283Y-58312000D01*
X57710990Y-57899220D01*
X57965511Y-57512000D01*
X57794199Y-57512000D01*
X57625063Y-57768152D01*
X57457557Y-57512000D01*
X57286245Y-57512000D01*
X57539678Y-57899220D01*
X57269386Y-58312000D01*
X57196511Y-58312000D01*
X57196511Y-58162442D01*
X56910990Y-58162442D01*
X56910990Y-57951973D01*
X57196511Y-57951973D01*
X57196511Y-57805678D01*
X56910990Y-57805678D01*
X56910990Y-57661014D01*
X57196511Y-57661014D01*
X57196511Y-57512000D01*
X56759801Y-57512000D01*
X56759801Y-58312000D01*
X55987537Y-58312000D01*
X55987537Y-58086303D01*
X56295899Y-58086303D01*
X56572173Y-58086303D01*
X56572173Y-57948166D01*
X56295899Y-57948166D01*
X56295899Y-58086303D01*
X55987537Y-58086303D01*
X55987537Y-57512000D01*
X55759665Y-57512000D01*
X55671562Y-57655032D01*
X55509538Y-57655032D01*
X55490732Y-57611252D01*
X55451711Y-57560131D01*
X55401541Y-57522605D01*
X55341514Y-57499559D01*
X55272921Y-57491878D01*
X55198988Y-57500126D01*
X55134542Y-57524871D01*
X55079583Y-57566113D01*
X55037073Y-57621736D01*
X55009971Y-57689627D01*
X54998278Y-57769784D01*
X55146748Y-57769784D01*
X55156538Y-57713768D01*
X55181555Y-57670804D01*
X55218264Y-57643475D01*
X55263132Y-57634366D01*
X55342262Y-57664549D01*
X55372989Y-57740960D01*
X55365579Y-57788207D01*
X55343349Y-57840756D01*
X55316912Y-57881514D01*
X55277121Y-57930189D01*
X55223975Y-57986779D01*
X54976524Y-58239124D01*
X54843423Y-58239124D01*
X54845389Y-58237153D01*
X54886517Y-58160266D01*
X54906005Y-58093313D01*
X54917698Y-58010648D01*
X54921596Y-57912272D01*
X54917758Y-57814833D01*
X54906247Y-57732802D01*
X54887061Y-57666181D01*
X54845321Y-57589158D01*
X54789169Y-57534842D01*
X54719760Y-57502619D01*
X54638251Y-57491878D01*
X54554921Y-57503963D01*
X54484765Y-57540220D01*
X54427782Y-57600647D01*
X54398040Y-57657717D01*
X54376796Y-57729947D01*
X54364050Y-57817337D01*
X54359801Y-57919886D01*
X54213798Y-57919886D01*
X54236075Y-57882360D01*
X54266463Y-57802959D01*
X54276592Y-57728995D01*
X54268230Y-57669648D01*
X54243145Y-57611252D01*
X54204124Y-57560131D01*
X54153954Y-57522605D01*
X54093927Y-57499559D01*
X54025334Y-57491878D01*
X53951401Y-57500126D01*
X53886955Y-57524871D01*
X53831997Y-57566113D01*
X53789486Y-57621736D01*
X53762384Y-57689627D01*
X53750691Y-57769784D01*
X53899162Y-57769784D01*
X53908951Y-57713768D01*
X53933968Y-57670804D01*
X53970678Y-57643475D01*
X54015545Y-57634366D01*
X54094675Y-57664549D01*
X54125402Y-57740960D01*
X54117993Y-57788207D01*
X54095763Y-57840756D01*
X54069326Y-57881514D01*
X54029534Y-57930189D01*
X53976388Y-57986779D01*
X53728937Y-58239124D01*
X53634687Y-58239124D01*
X53484206Y-57956324D01*
X53550759Y-57922673D01*
X53598142Y-57876106D01*
X53626490Y-57816623D01*
X53635939Y-57744223D01*
X53627374Y-57674203D01*
X53601677Y-57614243D01*
X53561908Y-57567133D01*
X53511126Y-57535657D01*
X53465111Y-57522514D01*
X53402115Y-57514629D01*
X53322139Y-57512000D01*
X53160617Y-57512000D01*
X53160617Y-58312000D01*
X53034444Y-58312000D01*
X53034444Y-58166793D01*
X52812554Y-58166793D01*
X52812554Y-57512000D01*
X52660277Y-57512000D01*
X52660277Y-58312000D01*
X52020629Y-58312000D01*
X52006388Y-58296287D01*
X51970976Y-58248540D01*
X51940414Y-58197551D01*
X51914998Y-58143813D01*
X51894971Y-58087842D01*
X51880527Y-58030177D01*
X51871804Y-57971374D01*
X51868888Y-57912000D01*
X51871804Y-57852626D01*
X51880527Y-57793823D01*
X51894971Y-57736158D01*
X51914998Y-57680187D01*
X51940414Y-57626449D01*
X51970976Y-57575460D01*
X52006388Y-57527713D01*
X52046309Y-57483666D01*
X52090356Y-57443744D01*
X52138103Y-57408333D01*
X52189092Y-57377771D01*
X52242831Y-57352355D01*
X52298802Y-57332328D01*
X52356466Y-57317884D01*
X52415269Y-57309161D01*
X52474643Y-57306244D01*
X52660277Y-57306244D01*
X61893723Y-57306244D01*
X62079357Y-57306244D01*
X62138731Y-57309161D01*
G37*
G36*
X59655730Y-57649684D02*
G01*
X59717909Y-57676061D01*
X59772717Y-57720022D01*
X59815319Y-57776673D01*
X59840879Y-57841119D01*
X59849400Y-57913360D01*
X59840940Y-57985812D01*
X59815560Y-58050168D01*
X59773261Y-58106426D01*
X59718937Y-58149933D01*
X59657482Y-58176038D01*
X59588897Y-58184740D01*
X59527502Y-58178032D01*
X59470942Y-58157910D01*
X59419216Y-58124373D01*
X59366342Y-58066725D01*
X59334618Y-57996750D01*
X59324043Y-57914447D01*
X59332442Y-57839698D01*
X59357641Y-57774255D01*
X59399638Y-57718118D01*
X59453962Y-57675215D01*
X59516142Y-57649473D01*
X59586177Y-57640892D01*
X59655730Y-57649684D01*
G37*
G36*
X54693383Y-57651497D02*
G01*
X54734240Y-57696364D01*
X54754030Y-57747123D01*
X54765904Y-57819637D01*
X54769862Y-57913903D01*
X54765451Y-58007687D01*
X54752217Y-58081650D01*
X54730161Y-58135793D01*
X54691820Y-58176990D01*
X54642058Y-58190722D01*
X54589780Y-58176242D01*
X54548244Y-58132802D01*
X54528152Y-58083765D01*
X54516097Y-58013881D01*
X54512078Y-57923149D01*
X54516021Y-57820770D01*
X54527850Y-57746398D01*
X54547156Y-57694937D01*
X54573533Y-57661286D01*
X54642058Y-57636541D01*
X54693383Y-57651497D01*
G37*
G36*
X53438523Y-57669444D02*
G01*
X53474961Y-57697180D01*
X53488557Y-57742591D01*
X53461092Y-57805678D01*
X53422275Y-57819954D01*
X53360753Y-57824712D01*
X53312894Y-57824712D01*
X53312894Y-57661014D01*
X53354770Y-57661014D01*
X53438523Y-57669444D01*
G37*
G36*
X58350283Y-57664957D02*
G01*
X58387537Y-57676786D01*
X58423431Y-57744223D01*
X58410651Y-57789634D01*
X58375572Y-57816555D01*
X58296171Y-57824712D01*
X58247768Y-57824712D01*
X58247768Y-57661014D01*
X58290732Y-57661014D01*
X58350283Y-57664957D01*
G37*
G36*
X60433492Y-57669444D02*
G01*
X60469930Y-57697180D01*
X60483526Y-57742591D01*
X60456062Y-57805678D01*
X60417245Y-57819954D01*
X60355722Y-57824712D01*
X60307863Y-57824712D01*
X60307863Y-57661014D01*
X60349740Y-57661014D01*
X60433492Y-57669444D01*
G37*
G36*
X61658781Y-57669444D02*
G01*
X61695219Y-57697180D01*
X61708815Y-57742591D01*
X61681351Y-57805678D01*
X61642534Y-57819954D01*
X61581011Y-57824712D01*
X61533152Y-57824712D01*
X61533152Y-57661014D01*
X61575029Y-57661014D01*
X61658781Y-57669444D01*
G37*
%TO.C,kibuzzard-6920AF6E*%
G36*
X65101633Y-28010428D02*
G01*
X65101633Y-28384596D01*
X65101633Y-28663046D01*
X64516000Y-29053468D01*
X63930367Y-28663046D01*
X63930367Y-28384596D01*
X63930367Y-28232318D01*
X64116000Y-28232318D01*
X64116000Y-28384596D01*
X64916000Y-28384596D01*
X64916000Y-28010428D01*
X64770793Y-28010428D01*
X64770793Y-28232318D01*
X64116000Y-28232318D01*
X63930367Y-28232318D01*
X63930367Y-27495404D01*
X64116000Y-27495404D01*
X64116000Y-27892413D01*
X64916000Y-27892413D01*
X64916000Y-27741768D01*
X64555973Y-27741768D01*
X64555973Y-27495404D01*
X64409678Y-27495404D01*
X64409678Y-27741768D01*
X64264470Y-27741768D01*
X64264470Y-27495404D01*
X64116000Y-27495404D01*
X63930367Y-27495404D01*
X63930367Y-27216954D01*
X64516000Y-26826532D01*
X65101633Y-27216954D01*
X65101633Y-27495404D01*
X65101633Y-27741768D01*
X65101633Y-28010428D01*
G37*
%TO.C,kibuzzard-6920AF52*%
G36*
X50877633Y-27175713D02*
G01*
X50877633Y-27361346D01*
X50877633Y-28518654D01*
X50877633Y-28704287D01*
X50292000Y-29094710D01*
X49706367Y-28704287D01*
X49706367Y-28518654D01*
X49706367Y-28272291D01*
X49706367Y-28121645D01*
X49892000Y-28121645D01*
X49892000Y-28272291D01*
X50252027Y-28272291D01*
X50252027Y-28518654D01*
X50398322Y-28518654D01*
X50398322Y-28272291D01*
X50543530Y-28272291D01*
X50543530Y-28518654D01*
X50692000Y-28518654D01*
X50692000Y-28121645D01*
X49892000Y-28121645D01*
X49706367Y-28121645D01*
X49706367Y-27937281D01*
X49706367Y-27361346D01*
X49892000Y-27361346D01*
X49892000Y-27515799D01*
X50242782Y-27515799D01*
X50242782Y-27783372D01*
X49892000Y-27783372D01*
X49892000Y-27937281D01*
X50692000Y-27937281D01*
X50692000Y-27783372D01*
X50390165Y-27783372D01*
X50390165Y-27515799D01*
X50692000Y-27515799D01*
X50692000Y-27361346D01*
X49892000Y-27361346D01*
X49706367Y-27361346D01*
X49706367Y-27175713D01*
X50292000Y-26785290D01*
X50877633Y-27175713D01*
G37*
D13*
%TO.C,C26*%
X61585000Y-53988748D02*
X61585000Y-54511252D01*
X63055000Y-53988748D02*
X63055000Y-54511252D01*
%TO.C,L8*%
X59612122Y-56860000D02*
X58812878Y-56860000D01*
X59612122Y-55740000D02*
X58812878Y-55740000D01*
%TO.C,C13*%
X57260000Y-56172164D02*
X57260000Y-56387836D01*
X56540000Y-56172164D02*
X56540000Y-56387836D01*
%TO.C,C19*%
X60772164Y-32910000D02*
X60987836Y-32910000D01*
X60772164Y-32190000D02*
X60987836Y-32190000D01*
%TO.C,TH1*%
X51815000Y-54853641D02*
X51815000Y-54546359D01*
X51055000Y-54853641D02*
X51055000Y-54546359D01*
%TO.C,C7*%
X53812164Y-40910000D02*
X54027836Y-40910000D01*
X53812164Y-40190000D02*
X54027836Y-40190000D01*
%TO.C,C4*%
X53812164Y-32910000D02*
X54027836Y-32910000D01*
X53812164Y-32190000D02*
X54027836Y-32190000D01*
%TO.C,J3*%
X54900000Y-29440000D02*
X54100000Y-29440000D01*
X54900000Y-29240000D02*
X54900000Y-29440000D01*
X54700000Y-26440000D02*
X54900000Y-26640000D01*
X54100000Y-26440000D02*
X54700000Y-26440000D01*
X54100000Y-26440000D02*
X54100000Y-25940000D01*
X52700000Y-29440000D02*
X51900000Y-29440000D01*
X52700000Y-26440000D02*
X52700000Y-25940000D01*
X51900000Y-29440000D02*
X51900000Y-29240000D01*
X51900000Y-26640000D02*
X51900000Y-26440000D01*
X51900000Y-26440000D02*
X52700000Y-26440000D01*
%TO.C,C1*%
X53760000Y-48427836D02*
X53760000Y-48212164D01*
X53040000Y-48427836D02*
X53040000Y-48212164D01*
%TO.C,C16*%
X58760000Y-40157836D02*
X58760000Y-39942164D01*
X58040000Y-40157836D02*
X58040000Y-39942164D01*
%TO.C,C18*%
X60760000Y-42157836D02*
X60760000Y-41942164D01*
X60040000Y-42157836D02*
X60040000Y-41942164D01*
%TO.C,C24*%
X61210000Y-53372164D02*
X61210000Y-53587836D01*
X60490000Y-53372164D02*
X60490000Y-53587836D01*
%TO.C,R3*%
X52980000Y-54546359D02*
X52980000Y-54853641D01*
X52220000Y-54546359D02*
X52220000Y-54853641D01*
%TO.C,C11*%
X56760000Y-42157836D02*
X56760000Y-41942164D01*
X56040000Y-42157836D02*
X56040000Y-41942164D01*
%TO.C,C2*%
X51760000Y-48427836D02*
X51760000Y-48212164D01*
X51040000Y-48427836D02*
X51040000Y-48212164D01*
D10*
%TO.C,D1*%
X52875000Y-31550000D02*
G75*
G02*
X52775000Y-31550000I-50000J0D01*
G01*
X52775000Y-31550000D02*
G75*
G02*
X52875000Y-31550000I50000J0D01*
G01*
D13*
%TO.C,C5*%
X53812164Y-34910000D02*
X54027836Y-34910000D01*
X53812164Y-34190000D02*
X54027836Y-34190000D01*
%TO.C,C12*%
X56772164Y-43940000D02*
X56987836Y-43940000D01*
X56772164Y-43220000D02*
X56987836Y-43220000D01*
%TO.C,J4*%
X62900000Y-29440000D02*
X62100000Y-29440000D01*
X62900000Y-29240000D02*
X62900000Y-29440000D01*
X62700000Y-26440000D02*
X62900000Y-26640000D01*
X62100000Y-26440000D02*
X62700000Y-26440000D01*
X62100000Y-26440000D02*
X62100000Y-25940000D01*
X60700000Y-29440000D02*
X59900000Y-29440000D01*
X60700000Y-26440000D02*
X60700000Y-25940000D01*
X59900000Y-29440000D02*
X59900000Y-29240000D01*
X59900000Y-26640000D02*
X59900000Y-26440000D01*
X59900000Y-26440000D02*
X60700000Y-26440000D01*
%TO.C,C10*%
X55027836Y-56160000D02*
X54812164Y-56160000D01*
X55027836Y-55440000D02*
X54812164Y-55440000D01*
%TO.C,C20*%
X60772164Y-34910000D02*
X60987836Y-34910000D01*
X60772164Y-34190000D02*
X60987836Y-34190000D01*
%TO.C,C3*%
X62760000Y-46137836D02*
X62760000Y-45922164D01*
X62040000Y-46137836D02*
X62040000Y-45922164D01*
%TO.C,Y1*%
X53300000Y-50450000D02*
X51000000Y-50450000D01*
X51000000Y-50450000D02*
X51000000Y-53150000D01*
%TO.C,U1*%
X54540000Y-48190000D02*
X54300000Y-47860000D01*
X54780000Y-47860000D01*
X54540000Y-48190000D01*
G36*
X54540000Y-48190000D02*
G01*
X54300000Y-47860000D01*
X54780000Y-47860000D01*
X54540000Y-48190000D01*
G37*
X59760000Y-53410000D02*
X59760000Y-52935000D01*
X59760000Y-48190000D02*
X59760000Y-48665000D01*
X59285000Y-53410000D02*
X59760000Y-53410000D01*
X59285000Y-48190000D02*
X59760000Y-48190000D01*
X55015000Y-53410000D02*
X54540000Y-53410000D01*
X55015000Y-48190000D02*
X54840000Y-48190000D01*
X54540000Y-53410000D02*
X54540000Y-52935000D01*
X54540000Y-48665000D02*
X54540000Y-48430000D01*
%TO.C,C14*%
X57812164Y-41910000D02*
X58027836Y-41910000D01*
X57812164Y-41190000D02*
X58027836Y-41190000D01*
%TO.C,C9*%
X54760000Y-42157836D02*
X54760000Y-41942164D01*
X54040000Y-42157836D02*
X54040000Y-41942164D01*
%TO.C,C17*%
X61760000Y-39157836D02*
X61760000Y-38942164D01*
X61040000Y-39157836D02*
X61040000Y-38942164D01*
%TO.C,C25*%
X59812164Y-47410000D02*
X60027836Y-47410000D01*
X59812164Y-46690000D02*
X60027836Y-46690000D01*
D10*
%TO.C,D2*%
X59845000Y-31550000D02*
G75*
G02*
X59745000Y-31550000I-50000J0D01*
G01*
X59745000Y-31550000D02*
G75*
G02*
X59845000Y-31550000I50000J0D01*
G01*
D13*
%TO.C,C22*%
X60772164Y-40910000D02*
X60987836Y-40910000D01*
X60772164Y-40190000D02*
X60987836Y-40190000D01*
%TO.C,C15*%
X58272164Y-55160000D02*
X58487836Y-55160000D01*
X58272164Y-54440000D02*
X58487836Y-54440000D01*
%TO.C,C8*%
X53760000Y-39157836D02*
X53760000Y-38942164D01*
X53040000Y-39157836D02*
X53040000Y-38942164D01*
%TO.C,C6*%
X53812164Y-37910000D02*
X54027836Y-37910000D01*
X53812164Y-37190000D02*
X54027836Y-37190000D01*
%TO.C,C21*%
X60772164Y-37910000D02*
X60987836Y-37910000D01*
X60772164Y-37190000D02*
X60987836Y-37190000D01*
%TO.C,C23*%
X52760000Y-45922164D02*
X52760000Y-46137836D01*
X52040000Y-45922164D02*
X52040000Y-46137836D01*
%TD*%
M02*
