%TF.GenerationSoftware,KiCad,Pcbnew,9.0.0*%
%TF.CreationDate,2025-11-21T20:27:59+01:00*%
%TF.ProjectId,LR2021-Explorer,4c523230-3231-42d4-9578-706c6f726572,rev?*%
%TF.SameCoordinates,Original*%
%TF.FileFunction,Copper,L2,Inr*%
%TF.FilePolarity,Positive*%
%FSLAX46Y46*%
G04 Gerber Fmt 4.6, Leading zero omitted, Abs format (unit mm)*
G04 Created by KiCad (PCBNEW 9.0.0) date 2025-11-21 20:27:59*
%MOMM*%
%LPD*%
G01*
G04 APERTURE LIST*
%TA.AperFunction,ComponentPad*%
%ADD10O,1.700000X1.700000*%
%TD*%
%TA.AperFunction,ComponentPad*%
%ADD11C,1.700000*%
%TD*%
%TA.AperFunction,ViaPad*%
%ADD12C,0.450000*%
%TD*%
%TA.AperFunction,Conductor*%
%ADD13C,0.200000*%
%TD*%
G04 APERTURE END LIST*
D10*
%TO.N,GND*%
%TO.C,J2*%
X48260000Y-56515000D03*
%TO.N,VDD*%
X48260000Y-53975000D03*
%TO.N,/DIO7*%
X48260000Y-51435000D03*
%TO.N,/DIO8*%
X48260000Y-48895000D03*
%TO.N,/DIO9*%
X48260000Y-46355000D03*
%TO.N,/DIO10*%
X48260000Y-43815000D03*
%TO.N,/DIO11*%
X48260000Y-41275000D03*
D11*
%TO.N,GND*%
X48260000Y-38735000D03*
%TD*%
%TO.N,/BUSY*%
%TO.C,J1*%
X66040000Y-38735000D03*
%TD*%
D12*
%TO.N,GND*%
X50500000Y-54750000D03*
X50500000Y-52500000D03*
X50500000Y-57750000D03*
X58250000Y-28000000D03*
X56750000Y-28000000D03*
X50500000Y-35750000D03*
X50250000Y-32500000D03*
X49250000Y-27000000D03*
X48750000Y-30500000D03*
X65532000Y-27432000D03*
X65750000Y-29500000D03*
X64750000Y-31250000D03*
X65250000Y-32500000D03*
X64500000Y-33750000D03*
X65500000Y-35000000D03*
X64000000Y-36250000D03*
X57500000Y-33250000D03*
X57500000Y-31250000D03*
X57500000Y-29250000D03*
X57500000Y-27000000D03*
X49000000Y-29000000D03*
X50250000Y-31000000D03*
X49000000Y-32500000D03*
X50250000Y-34250000D03*
X49000000Y-36000000D03*
X50750000Y-37500000D03*
X50500000Y-39750000D03*
X50750000Y-42000000D03*
X64500000Y-58000000D03*
X62250000Y-56896000D03*
X63500000Y-57000000D03*
X63373000Y-58250000D03*
X52500000Y-56750000D03*
X66000000Y-26000000D03*
X64500000Y-25500000D03*
X63500000Y-25500000D03*
X62500000Y-25500000D03*
X58250000Y-25500000D03*
X59250000Y-25500000D03*
X60250000Y-25500000D03*
X56500000Y-25500000D03*
X55500000Y-25500000D03*
X54500000Y-25500000D03*
X52250000Y-25500000D03*
X51250000Y-25500000D03*
X50250000Y-25500000D03*
X49250000Y-25500000D03*
X48250000Y-26000000D03*
X47500000Y-27000000D03*
X47500000Y-28000000D03*
X47500000Y-34000000D03*
X47500000Y-31000000D03*
X47500000Y-36000000D03*
X47500000Y-30000000D03*
X47500000Y-32000000D03*
X47500000Y-35000000D03*
X47500000Y-33000000D03*
X47500000Y-29000000D03*
X66750000Y-27000000D03*
X66750000Y-28000000D03*
X66750000Y-29000000D03*
X66750000Y-30000000D03*
X66750000Y-31000000D03*
X66750000Y-32000000D03*
X66750000Y-33000000D03*
X66750000Y-34000000D03*
X66750000Y-35000000D03*
X66750000Y-36000000D03*
X66750000Y-37000000D03*
X47500000Y-37000000D03*
X58000000Y-59000000D03*
X57250000Y-59000000D03*
X56250000Y-59000000D03*
X55250000Y-59000000D03*
X59000000Y-59000000D03*
X60000000Y-59000000D03*
X61000000Y-59000000D03*
X62000000Y-59000000D03*
X63000000Y-59000000D03*
X64000000Y-59000000D03*
X65000000Y-59000000D03*
X54250000Y-59000000D03*
X53250000Y-59000000D03*
X52250000Y-59000000D03*
X51250000Y-59000000D03*
X50250000Y-59000000D03*
X49250000Y-59000000D03*
X66000000Y-59000000D03*
X66500000Y-58250000D03*
X47750000Y-58250000D03*
X48250000Y-59000000D03*
X51750000Y-30000000D03*
X57000000Y-35500000D03*
X62250000Y-42500000D03*
X63000000Y-41250000D03*
X63250000Y-40000000D03*
X63250000Y-39000000D03*
X63250000Y-38000000D03*
X62250000Y-35750000D03*
X63000000Y-36750000D03*
X63250000Y-34250000D03*
X63250000Y-33250000D03*
X63250000Y-32250000D03*
X63250000Y-31250000D03*
X63250000Y-30250000D03*
X61500000Y-28000000D03*
X53500000Y-28000000D03*
X51750000Y-35000000D03*
X51750000Y-31000000D03*
X51750000Y-32000000D03*
X51750000Y-33000000D03*
X51750000Y-34000000D03*
X52000000Y-36000000D03*
X51750000Y-37000000D03*
X51750000Y-38000000D03*
X51750000Y-39000000D03*
X51750000Y-40000000D03*
X51750000Y-41000000D03*
X51750000Y-42750000D03*
X51250000Y-43500000D03*
X55750000Y-29750000D03*
X56000000Y-31000000D03*
X56000000Y-33000000D03*
X56000000Y-32000000D03*
X56000000Y-34000000D03*
X56000000Y-35000000D03*
X56000000Y-36000000D03*
X59000000Y-30000000D03*
X58750000Y-31250000D03*
X58750000Y-32250000D03*
X58750000Y-33250000D03*
X58750000Y-34500000D03*
X58000000Y-35500000D03*
X57250000Y-36500000D03*
X56000000Y-36750000D03*
X56750000Y-37250000D03*
X56000000Y-38000000D03*
X56750000Y-38750000D03*
X52750000Y-42750000D03*
X52250000Y-43750000D03*
X51500000Y-44500000D03*
X51500000Y-45500000D03*
X51000000Y-46500000D03*
X54500000Y-46500000D03*
X53500000Y-46500000D03*
X53500000Y-44500000D03*
X53500000Y-43500000D03*
X53500000Y-42500000D03*
X53500000Y-41500000D03*
X52500000Y-41500000D03*
X52500000Y-40500000D03*
X52500000Y-39500000D03*
X52500000Y-38500000D03*
X52500000Y-37500000D03*
X52750000Y-36500000D03*
X53500000Y-36000000D03*
X52750000Y-35500000D03*
X52500000Y-34500000D03*
X52500000Y-33500000D03*
X52500000Y-32500000D03*
X52500000Y-31500000D03*
X52500000Y-30500000D03*
X54750000Y-29750000D03*
X55250000Y-30500000D03*
X55250000Y-31500000D03*
X55250000Y-32500000D03*
X55250000Y-33500000D03*
X55250000Y-34500000D03*
X55250000Y-35500000D03*
X55250000Y-36500000D03*
X55250000Y-37500000D03*
X55250000Y-38500000D03*
X56000000Y-39250000D03*
X56750000Y-40000000D03*
X55250000Y-40500000D03*
X55250000Y-41500000D03*
X55250000Y-42500000D03*
X55250000Y-43500000D03*
X55250000Y-44500000D03*
X55250000Y-45500000D03*
X56500000Y-46500000D03*
X61250000Y-44500000D03*
X57500000Y-44500000D03*
X57500000Y-45500000D03*
X59500000Y-44500000D03*
X59500000Y-43500000D03*
X59500000Y-42500000D03*
X59500000Y-41500000D03*
X59500000Y-37500000D03*
X59500000Y-38500000D03*
X59500000Y-40500000D03*
X59500000Y-39500000D03*
X62000000Y-43750000D03*
X61250000Y-43250000D03*
X61250000Y-42250000D03*
X62000000Y-41500000D03*
X62500000Y-40500000D03*
X62500000Y-39500000D03*
X62500000Y-38500000D03*
X62000000Y-36500000D03*
X62500000Y-37500000D03*
X61250000Y-36000000D03*
X62500000Y-34750000D03*
X62500000Y-33750000D03*
X62500000Y-32750000D03*
X62500000Y-31750000D03*
X62500000Y-29750000D03*
X62500000Y-30750000D03*
X60000000Y-29750000D03*
X59500000Y-30750000D03*
X59500000Y-31750000D03*
X59500000Y-32750000D03*
X59500000Y-33750000D03*
X59500000Y-34750000D03*
X59000000Y-35750000D03*
X58250000Y-36500000D03*
X57500000Y-37500000D03*
X57500000Y-38500000D03*
X57500000Y-39500000D03*
X57500000Y-40500000D03*
X53550000Y-56500000D03*
X63750000Y-49750000D03*
%TO.N,VDD*%
X63650000Y-54100000D03*
%TO.N,/VR_PA*%
X52425600Y-48793400D03*
X52400200Y-44678600D03*
X62407800Y-44653200D03*
%TO.N,VDC*%
X59766200Y-46329600D03*
X54965600Y-56845200D03*
%TO.N,/BUSY*%
X59715400Y-48158400D03*
%TO.N,/DIO7*%
X55448200Y-54762400D03*
%TO.N,/DIO10*%
X53924200Y-54610000D03*
%TO.N,/DIO11*%
X53441600Y-54102000D03*
%TO.N,/NTC*%
X52095400Y-53492400D03*
X50520600Y-50190400D03*
%TO.N,/DIO9*%
X54711600Y-53746400D03*
%TO.N,/DIO8*%
X54686200Y-54533800D03*
%TO.N,/VPAX*%
X50495200Y-48945800D03*
X55981600Y-56667400D03*
%TO.N,GND*%
X57500000Y-42500000D03*
%TD*%
D13*
%TO.N,/DIO10*%
X53881200Y-54653000D02*
X53924200Y-54610000D01*
X51803000Y-54653000D02*
X53881200Y-54653000D01*
X49530000Y-45085000D02*
X49530000Y-52380000D01*
X49530000Y-52380000D02*
X51803000Y-54653000D01*
X48260000Y-43815000D02*
X49530000Y-45085000D01*
%TO.N,/VR_PA*%
X62407800Y-44653200D02*
X62400000Y-44661000D01*
%TO.N,/NTC*%
X52095400Y-51765200D02*
X52095400Y-53492400D01*
X50520600Y-50190400D02*
X52095400Y-51765200D01*
%TD*%
%TA.AperFunction,Conductor*%
%TO.N,GND*%
G36*
X64771851Y-24965611D02*
G01*
X65048283Y-24982333D01*
X65055650Y-24983227D01*
X65326238Y-25032814D01*
X65333422Y-25034586D01*
X65596046Y-25116423D01*
X65602986Y-25119055D01*
X65853825Y-25231948D01*
X65860401Y-25235399D01*
X66095804Y-25377705D01*
X66101916Y-25381924D01*
X66318447Y-25551565D01*
X66324006Y-25556490D01*
X66518509Y-25750993D01*
X66523434Y-25756552D01*
X66693075Y-25973083D01*
X66697294Y-25979195D01*
X66839600Y-26214598D01*
X66843051Y-26221174D01*
X66955944Y-26472013D01*
X66958577Y-26478956D01*
X67040409Y-26741561D01*
X67042187Y-26748772D01*
X67091771Y-27019346D01*
X67092666Y-27026718D01*
X67109388Y-27303147D01*
X67109500Y-27306861D01*
X67109500Y-38262732D01*
X67091487Y-38306219D01*
X67048000Y-38324232D01*
X67004513Y-38306219D01*
X66991182Y-38286267D01*
X66970943Y-38237408D01*
X66970941Y-38237402D01*
X66855977Y-38065345D01*
X66709655Y-37919023D01*
X66709654Y-37919022D01*
X66709655Y-37919022D01*
X66537599Y-37804060D01*
X66537600Y-37804060D01*
X66537598Y-37804059D01*
X66537591Y-37804056D01*
X66346430Y-37724873D01*
X66346414Y-37724868D01*
X66143468Y-37684500D01*
X66143465Y-37684500D01*
X65936535Y-37684500D01*
X65936532Y-37684500D01*
X65733585Y-37724868D01*
X65733569Y-37724873D01*
X65542408Y-37804056D01*
X65542400Y-37804060D01*
X65370345Y-37919022D01*
X65224022Y-38065345D01*
X65109060Y-38237400D01*
X65109056Y-38237408D01*
X65029873Y-38428569D01*
X65029868Y-38428585D01*
X64989500Y-38631531D01*
X64989500Y-38838468D01*
X65029868Y-39041414D01*
X65029873Y-39041430D01*
X65098566Y-39207267D01*
X65109059Y-39232598D01*
X65166541Y-39318626D01*
X65224022Y-39404654D01*
X65370345Y-39550977D01*
X65370344Y-39550977D01*
X65456664Y-39608653D01*
X65542402Y-39665941D01*
X65631466Y-39702832D01*
X65733569Y-39745126D01*
X65733574Y-39745127D01*
X65733580Y-39745130D01*
X65936531Y-39785499D01*
X65936532Y-39785500D01*
X65936535Y-39785500D01*
X66143468Y-39785500D01*
X66143468Y-39785499D01*
X66346420Y-39745130D01*
X66537598Y-39665941D01*
X66709655Y-39550977D01*
X66855977Y-39404655D01*
X66970941Y-39232598D01*
X66991182Y-39183730D01*
X67024465Y-39150448D01*
X67071535Y-39150448D01*
X67104819Y-39183732D01*
X67109500Y-39207267D01*
X67109500Y-58417314D01*
X67109266Y-58422674D01*
X67093720Y-58600359D01*
X67091858Y-58610916D01*
X67046394Y-58780590D01*
X67042728Y-58790664D01*
X66968488Y-58949873D01*
X66963128Y-58959157D01*
X66862370Y-59103054D01*
X66855479Y-59111266D01*
X66731266Y-59235479D01*
X66723054Y-59242370D01*
X66579157Y-59343128D01*
X66569873Y-59348488D01*
X66410664Y-59422728D01*
X66400590Y-59426394D01*
X66230916Y-59471858D01*
X66220359Y-59473720D01*
X66042675Y-59489266D01*
X66037315Y-59489500D01*
X48262685Y-59489500D01*
X48257325Y-59489266D01*
X48079640Y-59473720D01*
X48069083Y-59471858D01*
X47899409Y-59426394D01*
X47889335Y-59422728D01*
X47820607Y-59390679D01*
X47730123Y-59348486D01*
X47720846Y-59343130D01*
X47576945Y-59242370D01*
X47568733Y-59235479D01*
X47444520Y-59111266D01*
X47437629Y-59103054D01*
X47336867Y-58959150D01*
X47331515Y-58949880D01*
X47257269Y-58790660D01*
X47253605Y-58780590D01*
X47208141Y-58610916D01*
X47206279Y-58600359D01*
X47190734Y-58422674D01*
X47190500Y-58417314D01*
X47190500Y-57503162D01*
X47208513Y-57459675D01*
X47252000Y-57441662D01*
X47295487Y-57459675D01*
X47380531Y-57544719D01*
X47552445Y-57669622D01*
X47741777Y-57766092D01*
X47741778Y-57766093D01*
X47943874Y-57831758D01*
X48009999Y-57842231D01*
X48010000Y-57842231D01*
X48010000Y-56948012D01*
X48067007Y-56980925D01*
X48194174Y-57015000D01*
X48325826Y-57015000D01*
X48452993Y-56980925D01*
X48510000Y-56948012D01*
X48510000Y-57842231D01*
X48576125Y-57831758D01*
X48778221Y-57766093D01*
X48778222Y-57766092D01*
X48967554Y-57669622D01*
X49139468Y-57544719D01*
X49289719Y-57394468D01*
X49414622Y-57222554D01*
X49511092Y-57033222D01*
X49511093Y-57033221D01*
X49576758Y-56831125D01*
X49583922Y-56785888D01*
X54515100Y-56785888D01*
X54515100Y-56904511D01*
X54545799Y-57019081D01*
X54545803Y-57019091D01*
X54605106Y-57121806D01*
X54605109Y-57121810D01*
X54605111Y-57121813D01*
X54688987Y-57205689D01*
X54688990Y-57205691D01*
X54688993Y-57205693D01*
X54791708Y-57264996D01*
X54791710Y-57264997D01*
X54791714Y-57264999D01*
X54791718Y-57265000D01*
X54906289Y-57295700D01*
X54906291Y-57295700D01*
X55024910Y-57295700D01*
X55075426Y-57282163D01*
X55139486Y-57264999D01*
X55242213Y-57205689D01*
X55326089Y-57121813D01*
X55385399Y-57019086D01*
X55405517Y-56944006D01*
X55416100Y-56904511D01*
X55416100Y-56785888D01*
X55385400Y-56671318D01*
X55385399Y-56671314D01*
X55364322Y-56634809D01*
X55364322Y-56634807D01*
X55348896Y-56608088D01*
X55531100Y-56608088D01*
X55531100Y-56726711D01*
X55561799Y-56841281D01*
X55561803Y-56841291D01*
X55621106Y-56944006D01*
X55621109Y-56944010D01*
X55621111Y-56944013D01*
X55704987Y-57027889D01*
X55704990Y-57027891D01*
X55704993Y-57027893D01*
X55807708Y-57087196D01*
X55807710Y-57087197D01*
X55807714Y-57087199D01*
X55807718Y-57087200D01*
X55922289Y-57117900D01*
X55922291Y-57117900D01*
X56040910Y-57117900D01*
X56091426Y-57104363D01*
X56155486Y-57087199D01*
X56258213Y-57027889D01*
X56342089Y-56944013D01*
X56401399Y-56841286D01*
X56426264Y-56748490D01*
X56432100Y-56726711D01*
X56432100Y-56608088D01*
X56401400Y-56493518D01*
X56401399Y-56493514D01*
X56396318Y-56484714D01*
X56384297Y-56463892D01*
X56384295Y-56463890D01*
X56368282Y-56436154D01*
X65239500Y-56436154D01*
X65239500Y-56593845D01*
X65270261Y-56748490D01*
X65270263Y-56748498D01*
X65330607Y-56894181D01*
X65330611Y-56894188D01*
X65418205Y-57025282D01*
X65418210Y-57025288D01*
X65529711Y-57136789D01*
X65529717Y-57136794D01*
X65660811Y-57224388D01*
X65660818Y-57224392D01*
X65660821Y-57224394D01*
X65806503Y-57284737D01*
X65961154Y-57315499D01*
X65961155Y-57315500D01*
X65961158Y-57315500D01*
X66118845Y-57315500D01*
X66118845Y-57315499D01*
X66273497Y-57284737D01*
X66419179Y-57224394D01*
X66550289Y-57136789D01*
X66661789Y-57025289D01*
X66665931Y-57019091D01*
X66749388Y-56894188D01*
X66749388Y-56894187D01*
X66749394Y-56894179D01*
X66809737Y-56748497D01*
X66840499Y-56593845D01*
X66840500Y-56593845D01*
X66840500Y-56436155D01*
X66840499Y-56436154D01*
X66838360Y-56425403D01*
X66809737Y-56281503D01*
X66749394Y-56135821D01*
X66749392Y-56135818D01*
X66749388Y-56135811D01*
X66661794Y-56004717D01*
X66661789Y-56004711D01*
X66550288Y-55893210D01*
X66550282Y-55893205D01*
X66419188Y-55805611D01*
X66419181Y-55805607D01*
X66273498Y-55745263D01*
X66273490Y-55745261D01*
X66118845Y-55714500D01*
X66118842Y-55714500D01*
X65961158Y-55714500D01*
X65961155Y-55714500D01*
X65806509Y-55745261D01*
X65806501Y-55745263D01*
X65660818Y-55805607D01*
X65660811Y-55805611D01*
X65529717Y-55893205D01*
X65529711Y-55893210D01*
X65418210Y-56004711D01*
X65418205Y-56004717D01*
X65330611Y-56135811D01*
X65330607Y-56135818D01*
X65270263Y-56281501D01*
X65270261Y-56281509D01*
X65239500Y-56436154D01*
X56368282Y-56436154D01*
X56342089Y-56390787D01*
X56258213Y-56306911D01*
X56258210Y-56306909D01*
X56258206Y-56306906D01*
X56155491Y-56247603D01*
X56155481Y-56247599D01*
X56040911Y-56216900D01*
X56040909Y-56216900D01*
X55922291Y-56216900D01*
X55922289Y-56216900D01*
X55807718Y-56247599D01*
X55807708Y-56247603D01*
X55704993Y-56306906D01*
X55704983Y-56306914D01*
X55621114Y-56390783D01*
X55621106Y-56390793D01*
X55561803Y-56493508D01*
X55561799Y-56493518D01*
X55531100Y-56608088D01*
X55348896Y-56608088D01*
X55326093Y-56568593D01*
X55326091Y-56568590D01*
X55326089Y-56568587D01*
X55242213Y-56484711D01*
X55242210Y-56484709D01*
X55242206Y-56484706D01*
X55139491Y-56425403D01*
X55139481Y-56425399D01*
X55024911Y-56394700D01*
X55024909Y-56394700D01*
X54906291Y-56394700D01*
X54906289Y-56394700D01*
X54791718Y-56425399D01*
X54791708Y-56425403D01*
X54688993Y-56484706D01*
X54688983Y-56484714D01*
X54605114Y-56568583D01*
X54605106Y-56568593D01*
X54545803Y-56671308D01*
X54545799Y-56671318D01*
X54515100Y-56785888D01*
X49583922Y-56785888D01*
X49586084Y-56772240D01*
X49586084Y-56772239D01*
X49587231Y-56765000D01*
X48693012Y-56765000D01*
X48725925Y-56707993D01*
X48760000Y-56580826D01*
X48760000Y-56449174D01*
X48725925Y-56322007D01*
X48693012Y-56265000D01*
X49587231Y-56265000D01*
X49587231Y-56264999D01*
X49576758Y-56198874D01*
X49511093Y-55996778D01*
X49511092Y-55996777D01*
X49414622Y-55807445D01*
X49289719Y-55635531D01*
X49139468Y-55485280D01*
X48967554Y-55360377D01*
X48778222Y-55263907D01*
X48778221Y-55263906D01*
X48576127Y-55198242D01*
X48510000Y-55187768D01*
X48510000Y-56081988D01*
X48452993Y-56049075D01*
X48325826Y-56015000D01*
X48194174Y-56015000D01*
X48067007Y-56049075D01*
X48010000Y-56081988D01*
X48010000Y-55187768D01*
X47943872Y-55198242D01*
X47741778Y-55263906D01*
X47741777Y-55263907D01*
X47552445Y-55360377D01*
X47380531Y-55485280D01*
X47295487Y-55570324D01*
X47252000Y-55588337D01*
X47208513Y-55570324D01*
X47190500Y-55526837D01*
X47190500Y-54447267D01*
X47208513Y-54403780D01*
X47252000Y-54385767D01*
X47295487Y-54403780D01*
X47308816Y-54423727D01*
X47329059Y-54472598D01*
X47360598Y-54519800D01*
X47444022Y-54644654D01*
X47590345Y-54790977D01*
X47590344Y-54790977D01*
X47676664Y-54848653D01*
X47762402Y-54905941D01*
X47835649Y-54936281D01*
X47953569Y-54985126D01*
X47953574Y-54985127D01*
X47953580Y-54985130D01*
X48156531Y-55025499D01*
X48156532Y-55025500D01*
X48156535Y-55025500D01*
X48363468Y-55025500D01*
X48363468Y-55025499D01*
X48566420Y-54985130D01*
X48757598Y-54905941D01*
X48929655Y-54790977D01*
X49075977Y-54644655D01*
X49190941Y-54472598D01*
X49266267Y-54290747D01*
X49270126Y-54281430D01*
X49270126Y-54281428D01*
X49270130Y-54281420D01*
X49310499Y-54078468D01*
X49310500Y-54078468D01*
X49310500Y-53871532D01*
X49310499Y-53871531D01*
X49301320Y-53825387D01*
X49270130Y-53668580D01*
X49270127Y-53668574D01*
X49270126Y-53668569D01*
X49221720Y-53551709D01*
X49190941Y-53477402D01*
X49075977Y-53305345D01*
X48929655Y-53159023D01*
X48929654Y-53159022D01*
X48929655Y-53159022D01*
X48757599Y-53044060D01*
X48757600Y-53044060D01*
X48757598Y-53044059D01*
X48757591Y-53044056D01*
X48566430Y-52964873D01*
X48566414Y-52964868D01*
X48363468Y-52924500D01*
X48363465Y-52924500D01*
X48156535Y-52924500D01*
X48156532Y-52924500D01*
X47953585Y-52964868D01*
X47953569Y-52964873D01*
X47762408Y-53044056D01*
X47762400Y-53044060D01*
X47590345Y-53159022D01*
X47444022Y-53305345D01*
X47329060Y-53477400D01*
X47329056Y-53477408D01*
X47308818Y-53526267D01*
X47275535Y-53559551D01*
X47228465Y-53559550D01*
X47195181Y-53526267D01*
X47190500Y-53502732D01*
X47190500Y-51907267D01*
X47208513Y-51863780D01*
X47252000Y-51845767D01*
X47295487Y-51863780D01*
X47308816Y-51883727D01*
X47329059Y-51932598D01*
X47329060Y-51932599D01*
X47444022Y-52104654D01*
X47590345Y-52250977D01*
X47590344Y-52250977D01*
X47624116Y-52273542D01*
X47762402Y-52365941D01*
X47851466Y-52402832D01*
X47953569Y-52445126D01*
X47953574Y-52445127D01*
X47953580Y-52445130D01*
X48156531Y-52485499D01*
X48156532Y-52485500D01*
X48156535Y-52485500D01*
X48363468Y-52485500D01*
X48363468Y-52485499D01*
X48566420Y-52445130D01*
X48757598Y-52365941D01*
X48929655Y-52250977D01*
X49075977Y-52104655D01*
X49116865Y-52043461D01*
X49156001Y-52017311D01*
X49202167Y-52026493D01*
X49228318Y-52065630D01*
X49229500Y-52077629D01*
X49229500Y-52419564D01*
X49249977Y-52495984D01*
X49249978Y-52495986D01*
X49249979Y-52495989D01*
X49289540Y-52564511D01*
X51562540Y-54837511D01*
X51618489Y-54893460D01*
X51687011Y-54933021D01*
X51687015Y-54933022D01*
X51763436Y-54953500D01*
X51763438Y-54953500D01*
X51842562Y-54953500D01*
X53429635Y-54953500D01*
X53447169Y-54956053D01*
X53448987Y-54956594D01*
X53448992Y-54956595D01*
X53448995Y-54956596D01*
X53701255Y-55005365D01*
X53720328Y-55012486D01*
X53750314Y-55029799D01*
X53784675Y-55039006D01*
X53864889Y-55060500D01*
X53864891Y-55060500D01*
X53983510Y-55060500D01*
X54034026Y-55046963D01*
X54098086Y-55029799D01*
X54200813Y-54970489D01*
X54284689Y-54886613D01*
X54287519Y-54881711D01*
X54324858Y-54853054D01*
X54371526Y-54859194D01*
X54384268Y-54868970D01*
X54409587Y-54894289D01*
X54409590Y-54894291D01*
X54409593Y-54894293D01*
X54512308Y-54953596D01*
X54512310Y-54953597D01*
X54512314Y-54953599D01*
X54512318Y-54953600D01*
X54626889Y-54984300D01*
X54626891Y-54984300D01*
X54745510Y-54984300D01*
X54797067Y-54970485D01*
X54860086Y-54953599D01*
X54940972Y-54906898D01*
X54987639Y-54900754D01*
X55024982Y-54929409D01*
X55028222Y-54935978D01*
X55087706Y-55039006D01*
X55087709Y-55039010D01*
X55087711Y-55039013D01*
X55171587Y-55122889D01*
X55171590Y-55122891D01*
X55171593Y-55122893D01*
X55274308Y-55182196D01*
X55274310Y-55182197D01*
X55274314Y-55182199D01*
X55274318Y-55182200D01*
X55388889Y-55212900D01*
X55388891Y-55212900D01*
X55507510Y-55212900D01*
X55562213Y-55198242D01*
X55622086Y-55182199D01*
X55724813Y-55122889D01*
X55808689Y-55039013D01*
X55867999Y-54936286D01*
X55882622Y-54881712D01*
X55898700Y-54821711D01*
X55898700Y-54703088D01*
X55868000Y-54588518D01*
X55867999Y-54588514D01*
X55867996Y-54588508D01*
X55808693Y-54485793D01*
X55808691Y-54485790D01*
X55808689Y-54485787D01*
X55724813Y-54401911D01*
X55724810Y-54401909D01*
X55724806Y-54401906D01*
X55622091Y-54342603D01*
X55622081Y-54342599D01*
X55507511Y-54311900D01*
X55507509Y-54311900D01*
X55388891Y-54311900D01*
X55388889Y-54311900D01*
X55274318Y-54342599D01*
X55274314Y-54342601D01*
X55193427Y-54389301D01*
X55146759Y-54395444D01*
X55109416Y-54366790D01*
X55106181Y-54360230D01*
X55102687Y-54354179D01*
X55057485Y-54275886D01*
X55046693Y-54257193D01*
X55046691Y-54257190D01*
X55046689Y-54257187D01*
X54985789Y-54196287D01*
X54967776Y-54152800D01*
X54985789Y-54109313D01*
X55016637Y-54078465D01*
X55054414Y-54040688D01*
X63199500Y-54040688D01*
X63199500Y-54159311D01*
X63230199Y-54273881D01*
X63230203Y-54273891D01*
X63289506Y-54376606D01*
X63289509Y-54376610D01*
X63289511Y-54376613D01*
X63373387Y-54460489D01*
X63373390Y-54460491D01*
X63373393Y-54460493D01*
X63476108Y-54519796D01*
X63476110Y-54519797D01*
X63476114Y-54519799D01*
X63476118Y-54519800D01*
X63590689Y-54550500D01*
X63590691Y-54550500D01*
X63709310Y-54550500D01*
X63759826Y-54536963D01*
X63823886Y-54519799D01*
X63926613Y-54460489D01*
X64010489Y-54376613D01*
X64069799Y-54273886D01*
X64092222Y-54190203D01*
X64100500Y-54159311D01*
X64100500Y-54040688D01*
X64069800Y-53926118D01*
X64069799Y-53926114D01*
X64052502Y-53896155D01*
X64052501Y-53896154D01*
X65239500Y-53896154D01*
X65239500Y-54053845D01*
X65270261Y-54208490D01*
X65270263Y-54208498D01*
X65301786Y-54284601D01*
X65329042Y-54350404D01*
X65330607Y-54354181D01*
X65330611Y-54354188D01*
X65418205Y-54485282D01*
X65418210Y-54485288D01*
X65529711Y-54596789D01*
X65529717Y-54596794D01*
X65660811Y-54684388D01*
X65660818Y-54684392D01*
X65660821Y-54684394D01*
X65806503Y-54744737D01*
X65961154Y-54775499D01*
X65961155Y-54775500D01*
X65961158Y-54775500D01*
X66118845Y-54775500D01*
X66118845Y-54775499D01*
X66273497Y-54744737D01*
X66419179Y-54684394D01*
X66550289Y-54596789D01*
X66661789Y-54485289D01*
X66717499Y-54401914D01*
X66749388Y-54354188D01*
X66749388Y-54354187D01*
X66749394Y-54354179D01*
X66809737Y-54208497D01*
X66840499Y-54053845D01*
X66840500Y-54053845D01*
X66840500Y-53896155D01*
X66840499Y-53896154D01*
X66835601Y-53871532D01*
X66809737Y-53741503D01*
X66749394Y-53595821D01*
X66749392Y-53595818D01*
X66749388Y-53595811D01*
X66661794Y-53464717D01*
X66661789Y-53464711D01*
X66550288Y-53353210D01*
X66550282Y-53353205D01*
X66419188Y-53265611D01*
X66419181Y-53265607D01*
X66273498Y-53205263D01*
X66273490Y-53205261D01*
X66118845Y-53174500D01*
X66118842Y-53174500D01*
X65961158Y-53174500D01*
X65961155Y-53174500D01*
X65806509Y-53205261D01*
X65806501Y-53205263D01*
X65660818Y-53265607D01*
X65660811Y-53265611D01*
X65529717Y-53353205D01*
X65529711Y-53353210D01*
X65418210Y-53464711D01*
X65418205Y-53464717D01*
X65330611Y-53595811D01*
X65330607Y-53595818D01*
X65270263Y-53741501D01*
X65270261Y-53741509D01*
X65239500Y-53896154D01*
X64052501Y-53896154D01*
X64010493Y-53823393D01*
X64010491Y-53823390D01*
X64010489Y-53823387D01*
X63926613Y-53739511D01*
X63926610Y-53739509D01*
X63926606Y-53739506D01*
X63823891Y-53680203D01*
X63823881Y-53680199D01*
X63709311Y-53649500D01*
X63709309Y-53649500D01*
X63590691Y-53649500D01*
X63590689Y-53649500D01*
X63476118Y-53680199D01*
X63476108Y-53680203D01*
X63373393Y-53739506D01*
X63373383Y-53739514D01*
X63289514Y-53823383D01*
X63289506Y-53823393D01*
X63230203Y-53926108D01*
X63230199Y-53926118D01*
X63199500Y-54040688D01*
X55054414Y-54040688D01*
X55072089Y-54023013D01*
X55131399Y-53920286D01*
X55156826Y-53825393D01*
X55162100Y-53805711D01*
X55162100Y-53687088D01*
X55131400Y-53572518D01*
X55131399Y-53572514D01*
X55123915Y-53559551D01*
X55072093Y-53469793D01*
X55072091Y-53469790D01*
X55072089Y-53469787D01*
X54988213Y-53385911D01*
X54988210Y-53385909D01*
X54988206Y-53385906D01*
X54885491Y-53326603D01*
X54885481Y-53326599D01*
X54770911Y-53295900D01*
X54770909Y-53295900D01*
X54652291Y-53295900D01*
X54652289Y-53295900D01*
X54537718Y-53326599D01*
X54537708Y-53326603D01*
X54434993Y-53385906D01*
X54434983Y-53385914D01*
X54351114Y-53469783D01*
X54351106Y-53469793D01*
X54291803Y-53572508D01*
X54291799Y-53572518D01*
X54261100Y-53687088D01*
X54261100Y-53805711D01*
X54291799Y-53920281D01*
X54291803Y-53920291D01*
X54351106Y-54023006D01*
X54351109Y-54023010D01*
X54351111Y-54023013D01*
X54351114Y-54023016D01*
X54412011Y-54083913D01*
X54430024Y-54127400D01*
X54412011Y-54170887D01*
X54325714Y-54257183D01*
X54325708Y-54257191D01*
X54322877Y-54262095D01*
X54285532Y-54290747D01*
X54238865Y-54284601D01*
X54226131Y-54274829D01*
X54200816Y-54249514D01*
X54200813Y-54249511D01*
X54200810Y-54249509D01*
X54200806Y-54249506D01*
X54098091Y-54190203D01*
X54098081Y-54190199D01*
X53983511Y-54159500D01*
X53983509Y-54159500D01*
X53953600Y-54159500D01*
X53910113Y-54141487D01*
X53892100Y-54098000D01*
X53892100Y-54042688D01*
X53861400Y-53928118D01*
X53861399Y-53928114D01*
X53860247Y-53926118D01*
X53802093Y-53825393D01*
X53802091Y-53825390D01*
X53802089Y-53825387D01*
X53718213Y-53741511D01*
X53718210Y-53741509D01*
X53718206Y-53741506D01*
X53615491Y-53682203D01*
X53615481Y-53682199D01*
X53500911Y-53651500D01*
X53500909Y-53651500D01*
X53382291Y-53651500D01*
X53382289Y-53651500D01*
X53267718Y-53682199D01*
X53267708Y-53682203D01*
X53164993Y-53741506D01*
X53164983Y-53741514D01*
X53081114Y-53825383D01*
X53081106Y-53825393D01*
X53021803Y-53928108D01*
X53021799Y-53928118D01*
X52991100Y-54042688D01*
X52991100Y-54161312D01*
X53021585Y-54275083D01*
X53015442Y-54321750D01*
X52978098Y-54350404D01*
X52962181Y-54352500D01*
X51952945Y-54352500D01*
X51909458Y-54334487D01*
X49848513Y-52273542D01*
X49830500Y-52230055D01*
X49830500Y-50131088D01*
X50070100Y-50131088D01*
X50070100Y-50249711D01*
X50100799Y-50364281D01*
X50100803Y-50364291D01*
X50160106Y-50467006D01*
X50160109Y-50467010D01*
X50160111Y-50467013D01*
X50243987Y-50550889D01*
X50243990Y-50550891D01*
X50243993Y-50550893D01*
X50346708Y-50610196D01*
X50346712Y-50610198D01*
X50346714Y-50610199D01*
X50434821Y-50633807D01*
X50448030Y-50639049D01*
X50648418Y-50746866D01*
X50662766Y-50757537D01*
X51776887Y-51871658D01*
X51794900Y-51915145D01*
X51794900Y-52990843D01*
X51792300Y-53008534D01*
X51726840Y-53226471D01*
X51721201Y-53239529D01*
X51675603Y-53318510D01*
X51675599Y-53318518D01*
X51644900Y-53433088D01*
X51644900Y-53551711D01*
X51675599Y-53666281D01*
X51675603Y-53666291D01*
X51734906Y-53769006D01*
X51734909Y-53769010D01*
X51734911Y-53769013D01*
X51818787Y-53852889D01*
X51818790Y-53852891D01*
X51818793Y-53852893D01*
X51921508Y-53912196D01*
X51921510Y-53912197D01*
X51921514Y-53912199D01*
X51921518Y-53912200D01*
X52036089Y-53942900D01*
X52036091Y-53942900D01*
X52154710Y-53942900D01*
X52217377Y-53926108D01*
X52269286Y-53912199D01*
X52372013Y-53852889D01*
X52455889Y-53769013D01*
X52515199Y-53666286D01*
X52534083Y-53595811D01*
X52545900Y-53551711D01*
X52545900Y-53433088D01*
X52515199Y-53318515D01*
X52515197Y-53318511D01*
X52469594Y-53239527D01*
X52463956Y-53226473D01*
X52398499Y-53008534D01*
X52395900Y-52990843D01*
X52395900Y-51725637D01*
X52392072Y-51711352D01*
X52380589Y-51668497D01*
X52375422Y-51649212D01*
X52335860Y-51580689D01*
X52111325Y-51356154D01*
X65239500Y-51356154D01*
X65239500Y-51513845D01*
X65270261Y-51668490D01*
X65270263Y-51668498D01*
X65330607Y-51814181D01*
X65330611Y-51814188D01*
X65418205Y-51945282D01*
X65418210Y-51945288D01*
X65529711Y-52056789D01*
X65529717Y-52056794D01*
X65660811Y-52144388D01*
X65660818Y-52144392D01*
X65660821Y-52144394D01*
X65806503Y-52204737D01*
X65961154Y-52235499D01*
X65961155Y-52235500D01*
X65961158Y-52235500D01*
X66118845Y-52235500D01*
X66118845Y-52235499D01*
X66273497Y-52204737D01*
X66419179Y-52144394D01*
X66550289Y-52056789D01*
X66661789Y-51945289D01*
X66749394Y-51814179D01*
X66809737Y-51668497D01*
X66840499Y-51513845D01*
X66840500Y-51513845D01*
X66840500Y-51356155D01*
X66840499Y-51356154D01*
X66809738Y-51201509D01*
X66809737Y-51201503D01*
X66749394Y-51055821D01*
X66749392Y-51055818D01*
X66749388Y-51055811D01*
X66661794Y-50924717D01*
X66661789Y-50924711D01*
X66550288Y-50813210D01*
X66550282Y-50813205D01*
X66419188Y-50725611D01*
X66419181Y-50725607D01*
X66273498Y-50665263D01*
X66273490Y-50665261D01*
X66118845Y-50634500D01*
X66118842Y-50634500D01*
X65961158Y-50634500D01*
X65961155Y-50634500D01*
X65806509Y-50665261D01*
X65806501Y-50665263D01*
X65660818Y-50725607D01*
X65660811Y-50725611D01*
X65529717Y-50813205D01*
X65529711Y-50813210D01*
X65418210Y-50924711D01*
X65418205Y-50924717D01*
X65330611Y-51055811D01*
X65330607Y-51055818D01*
X65270263Y-51201501D01*
X65270261Y-51201509D01*
X65239500Y-51356154D01*
X52111325Y-51356154D01*
X51087737Y-50332566D01*
X51077066Y-50318218D01*
X50969249Y-50117830D01*
X50964007Y-50104621D01*
X50940399Y-50016514D01*
X50899399Y-49945500D01*
X50881093Y-49913793D01*
X50881091Y-49913790D01*
X50881089Y-49913787D01*
X50797213Y-49829911D01*
X50797210Y-49829909D01*
X50797206Y-49829906D01*
X50694491Y-49770603D01*
X50694481Y-49770599D01*
X50579911Y-49739900D01*
X50579909Y-49739900D01*
X50461291Y-49739900D01*
X50461289Y-49739900D01*
X50346718Y-49770599D01*
X50346708Y-49770603D01*
X50243993Y-49829906D01*
X50243983Y-49829914D01*
X50160114Y-49913783D01*
X50160106Y-49913793D01*
X50100803Y-50016508D01*
X50100799Y-50016518D01*
X50070100Y-50131088D01*
X49830500Y-50131088D01*
X49830500Y-48886488D01*
X50044700Y-48886488D01*
X50044700Y-49005111D01*
X50075399Y-49119681D01*
X50075403Y-49119691D01*
X50134706Y-49222406D01*
X50134709Y-49222410D01*
X50134711Y-49222413D01*
X50218587Y-49306289D01*
X50218590Y-49306291D01*
X50218593Y-49306293D01*
X50321308Y-49365596D01*
X50321310Y-49365597D01*
X50321314Y-49365599D01*
X50321318Y-49365600D01*
X50435889Y-49396300D01*
X50435891Y-49396300D01*
X50554510Y-49396300D01*
X50605026Y-49382763D01*
X50669086Y-49365599D01*
X50771813Y-49306289D01*
X50855689Y-49222413D01*
X50914999Y-49119686D01*
X50928311Y-49070006D01*
X50945700Y-49005111D01*
X50945700Y-48886488D01*
X50915000Y-48771918D01*
X50914999Y-48771914D01*
X50911379Y-48765644D01*
X50908588Y-48760809D01*
X50908587Y-48760808D01*
X50893160Y-48734088D01*
X51975100Y-48734088D01*
X51975100Y-48852711D01*
X52005799Y-48967281D01*
X52005803Y-48967291D01*
X52065106Y-49070006D01*
X52065109Y-49070010D01*
X52065111Y-49070013D01*
X52148987Y-49153889D01*
X52148990Y-49153891D01*
X52148993Y-49153893D01*
X52251708Y-49213196D01*
X52251710Y-49213197D01*
X52251714Y-49213199D01*
X52251718Y-49213200D01*
X52366289Y-49243900D01*
X52366291Y-49243900D01*
X52484910Y-49243900D01*
X52535426Y-49230363D01*
X52599486Y-49213199D01*
X52702213Y-49153889D01*
X52786089Y-49070013D01*
X52845399Y-48967286D01*
X52867049Y-48886488D01*
X52876100Y-48852711D01*
X52876100Y-48816154D01*
X65239500Y-48816154D01*
X65239500Y-48973845D01*
X65270261Y-49128490D01*
X65270263Y-49128498D01*
X65330607Y-49274181D01*
X65330611Y-49274188D01*
X65418205Y-49405282D01*
X65418210Y-49405288D01*
X65529711Y-49516789D01*
X65529717Y-49516794D01*
X65660811Y-49604388D01*
X65660818Y-49604392D01*
X65660821Y-49604394D01*
X65806503Y-49664737D01*
X65961154Y-49695499D01*
X65961155Y-49695500D01*
X65961158Y-49695500D01*
X66118845Y-49695500D01*
X66118845Y-49695499D01*
X66273497Y-49664737D01*
X66419179Y-49604394D01*
X66550289Y-49516789D01*
X66661789Y-49405289D01*
X66667796Y-49396300D01*
X66749388Y-49274188D01*
X66749388Y-49274187D01*
X66749394Y-49274179D01*
X66809737Y-49128497D01*
X66840499Y-48973845D01*
X66840500Y-48973845D01*
X66840500Y-48816155D01*
X66840499Y-48816154D01*
X66811266Y-48669193D01*
X66809737Y-48661503D01*
X66749394Y-48515821D01*
X66749392Y-48515818D01*
X66749388Y-48515811D01*
X66661794Y-48384717D01*
X66661789Y-48384711D01*
X66550288Y-48273210D01*
X66550282Y-48273205D01*
X66419188Y-48185611D01*
X66419181Y-48185607D01*
X66273498Y-48125263D01*
X66273490Y-48125261D01*
X66118845Y-48094500D01*
X66118842Y-48094500D01*
X65961158Y-48094500D01*
X65961155Y-48094500D01*
X65806509Y-48125261D01*
X65806501Y-48125263D01*
X65660818Y-48185607D01*
X65660811Y-48185611D01*
X65529717Y-48273205D01*
X65529711Y-48273210D01*
X65418210Y-48384711D01*
X65418205Y-48384717D01*
X65330611Y-48515811D01*
X65330607Y-48515818D01*
X65270263Y-48661501D01*
X65270261Y-48661509D01*
X65239500Y-48816154D01*
X52876100Y-48816154D01*
X52876100Y-48734088D01*
X52845400Y-48619518D01*
X52845399Y-48619514D01*
X52839271Y-48608900D01*
X52786093Y-48516793D01*
X52786091Y-48516790D01*
X52786089Y-48516787D01*
X52702213Y-48432911D01*
X52702210Y-48432909D01*
X52702206Y-48432906D01*
X52599491Y-48373603D01*
X52599481Y-48373599D01*
X52484911Y-48342900D01*
X52484909Y-48342900D01*
X52366291Y-48342900D01*
X52366289Y-48342900D01*
X52251718Y-48373599D01*
X52251708Y-48373603D01*
X52148993Y-48432906D01*
X52148983Y-48432914D01*
X52065114Y-48516783D01*
X52065106Y-48516793D01*
X52005803Y-48619508D01*
X52005799Y-48619518D01*
X51975100Y-48734088D01*
X50893160Y-48734088D01*
X50855693Y-48669194D01*
X50855692Y-48669193D01*
X50855689Y-48669187D01*
X50771813Y-48585311D01*
X50771810Y-48585309D01*
X50771806Y-48585306D01*
X50669091Y-48526003D01*
X50669081Y-48525999D01*
X50554511Y-48495300D01*
X50554509Y-48495300D01*
X50435891Y-48495300D01*
X50435889Y-48495300D01*
X50321318Y-48525999D01*
X50321308Y-48526003D01*
X50218593Y-48585306D01*
X50218583Y-48585314D01*
X50134714Y-48669183D01*
X50134706Y-48669193D01*
X50075403Y-48771908D01*
X50075399Y-48771918D01*
X50044700Y-48886488D01*
X49830500Y-48886488D01*
X49830500Y-48099088D01*
X59264900Y-48099088D01*
X59264900Y-48217711D01*
X59295599Y-48332281D01*
X59295603Y-48332291D01*
X59354906Y-48435006D01*
X59354909Y-48435010D01*
X59354911Y-48435013D01*
X59438787Y-48518889D01*
X59438790Y-48518891D01*
X59438793Y-48518893D01*
X59541508Y-48578196D01*
X59541510Y-48578197D01*
X59541514Y-48578199D01*
X59541518Y-48578200D01*
X59656089Y-48608900D01*
X59656091Y-48608900D01*
X59774710Y-48608900D01*
X59825226Y-48595363D01*
X59889286Y-48578199D01*
X59992013Y-48518889D01*
X60075889Y-48435013D01*
X60135199Y-48332286D01*
X60151028Y-48273211D01*
X60165900Y-48217711D01*
X60165900Y-48099088D01*
X60135200Y-47984518D01*
X60135199Y-47984514D01*
X60123390Y-47964060D01*
X60075893Y-47881793D01*
X60075891Y-47881790D01*
X60075889Y-47881787D01*
X59992013Y-47797911D01*
X59992010Y-47797909D01*
X59992006Y-47797906D01*
X59889291Y-47738603D01*
X59889281Y-47738599D01*
X59774711Y-47707900D01*
X59774709Y-47707900D01*
X59656091Y-47707900D01*
X59656089Y-47707900D01*
X59541518Y-47738599D01*
X59541508Y-47738603D01*
X59438793Y-47797906D01*
X59438783Y-47797914D01*
X59354914Y-47881783D01*
X59354906Y-47881793D01*
X59295603Y-47984508D01*
X59295599Y-47984518D01*
X59264900Y-48099088D01*
X49830500Y-48099088D01*
X49830500Y-46270288D01*
X59315700Y-46270288D01*
X59315700Y-46388911D01*
X59346399Y-46503481D01*
X59346403Y-46503491D01*
X59405706Y-46606206D01*
X59405709Y-46606210D01*
X59405711Y-46606213D01*
X59489587Y-46690089D01*
X59489590Y-46690091D01*
X59489593Y-46690093D01*
X59592308Y-46749396D01*
X59592310Y-46749397D01*
X59592314Y-46749399D01*
X59592318Y-46749400D01*
X59706889Y-46780100D01*
X59706891Y-46780100D01*
X59825510Y-46780100D01*
X59879000Y-46765767D01*
X59940086Y-46749399D01*
X60042813Y-46690089D01*
X60126689Y-46606213D01*
X60185999Y-46503486D01*
X60198062Y-46458465D01*
X60216700Y-46388911D01*
X60216700Y-46276154D01*
X65239500Y-46276154D01*
X65239500Y-46433845D01*
X65270261Y-46588490D01*
X65270263Y-46588498D01*
X65330607Y-46734181D01*
X65330611Y-46734188D01*
X65418205Y-46865282D01*
X65418210Y-46865288D01*
X65529711Y-46976789D01*
X65529717Y-46976794D01*
X65660811Y-47064388D01*
X65660818Y-47064392D01*
X65660821Y-47064394D01*
X65806503Y-47124737D01*
X65961154Y-47155499D01*
X65961155Y-47155500D01*
X65961158Y-47155500D01*
X66118845Y-47155500D01*
X66118845Y-47155499D01*
X66273497Y-47124737D01*
X66419179Y-47064394D01*
X66550289Y-46976789D01*
X66661789Y-46865289D01*
X66749394Y-46734179D01*
X66809737Y-46588497D01*
X66840499Y-46433845D01*
X66840500Y-46433845D01*
X66840500Y-46276155D01*
X66840499Y-46276154D01*
X66809738Y-46121509D01*
X66809737Y-46121503D01*
X66749394Y-45975821D01*
X66749392Y-45975818D01*
X66749388Y-45975811D01*
X66661794Y-45844717D01*
X66661789Y-45844711D01*
X66550288Y-45733210D01*
X66550282Y-45733205D01*
X66419188Y-45645611D01*
X66419181Y-45645607D01*
X66273498Y-45585263D01*
X66273490Y-45585261D01*
X66118845Y-45554500D01*
X66118842Y-45554500D01*
X65961158Y-45554500D01*
X65961155Y-45554500D01*
X65806509Y-45585261D01*
X65806501Y-45585263D01*
X65660818Y-45645607D01*
X65660811Y-45645611D01*
X65529717Y-45733205D01*
X65529711Y-45733210D01*
X65418210Y-45844711D01*
X65418205Y-45844717D01*
X65330611Y-45975811D01*
X65330607Y-45975818D01*
X65270263Y-46121501D01*
X65270261Y-46121509D01*
X65239500Y-46276154D01*
X60216700Y-46276154D01*
X60216700Y-46270288D01*
X60186000Y-46155718D01*
X60185999Y-46155714D01*
X60166251Y-46121509D01*
X60126693Y-46052993D01*
X60126691Y-46052990D01*
X60126689Y-46052987D01*
X60042813Y-45969111D01*
X60042810Y-45969109D01*
X60042806Y-45969106D01*
X59940091Y-45909803D01*
X59940081Y-45909799D01*
X59825511Y-45879100D01*
X59825509Y-45879100D01*
X59706891Y-45879100D01*
X59706889Y-45879100D01*
X59592318Y-45909799D01*
X59592308Y-45909803D01*
X59489593Y-45969106D01*
X59489583Y-45969114D01*
X59405714Y-46052983D01*
X59405706Y-46052993D01*
X59346403Y-46155708D01*
X59346399Y-46155718D01*
X59315700Y-46270288D01*
X49830500Y-46270288D01*
X49830500Y-45045435D01*
X49810022Y-44969015D01*
X49810021Y-44969011D01*
X49770460Y-44900489D01*
X49714712Y-44844741D01*
X49699842Y-44820662D01*
X49672321Y-44737911D01*
X49632870Y-44619288D01*
X51949700Y-44619288D01*
X51949700Y-44737911D01*
X51980399Y-44852481D01*
X51980403Y-44852491D01*
X52039706Y-44955206D01*
X52039709Y-44955210D01*
X52039711Y-44955213D01*
X52123587Y-45039089D01*
X52123590Y-45039091D01*
X52123593Y-45039093D01*
X52226308Y-45098396D01*
X52226310Y-45098397D01*
X52226314Y-45098399D01*
X52226318Y-45098400D01*
X52340889Y-45129100D01*
X52340891Y-45129100D01*
X52459510Y-45129100D01*
X52510026Y-45115563D01*
X52574086Y-45098399D01*
X52676813Y-45039089D01*
X52760689Y-44955213D01*
X52819999Y-44852486D01*
X52831911Y-44808027D01*
X52850700Y-44737911D01*
X52850700Y-44619291D01*
X52847079Y-44605777D01*
X52847079Y-44605775D01*
X52843894Y-44593888D01*
X61957300Y-44593888D01*
X61957300Y-44712511D01*
X61987999Y-44827081D01*
X61988003Y-44827091D01*
X62047306Y-44929806D01*
X62047309Y-44929810D01*
X62047311Y-44929813D01*
X62131187Y-45013689D01*
X62131190Y-45013691D01*
X62131193Y-45013693D01*
X62233908Y-45072996D01*
X62233910Y-45072997D01*
X62233914Y-45072999D01*
X62233918Y-45073000D01*
X62348489Y-45103700D01*
X62348491Y-45103700D01*
X62467110Y-45103700D01*
X62517626Y-45090163D01*
X62581686Y-45072999D01*
X62684413Y-45013689D01*
X62768289Y-44929813D01*
X62827599Y-44827086D01*
X62839511Y-44782627D01*
X62858300Y-44712511D01*
X62858300Y-44593888D01*
X62827600Y-44479318D01*
X62827599Y-44479314D01*
X62803047Y-44436789D01*
X62768293Y-44376593D01*
X62768291Y-44376590D01*
X62768289Y-44376587D01*
X62684413Y-44292711D01*
X62684410Y-44292709D01*
X62684406Y-44292706D01*
X62581691Y-44233403D01*
X62581681Y-44233399D01*
X62467111Y-44202700D01*
X62467109Y-44202700D01*
X62348491Y-44202700D01*
X62348489Y-44202700D01*
X62233918Y-44233399D01*
X62233908Y-44233403D01*
X62131193Y-44292706D01*
X62131183Y-44292714D01*
X62047314Y-44376583D01*
X62047306Y-44376593D01*
X61988003Y-44479308D01*
X61987999Y-44479318D01*
X61957300Y-44593888D01*
X52843894Y-44593888D01*
X52820000Y-44504718D01*
X52819999Y-44504714D01*
X52808418Y-44484655D01*
X52760693Y-44401993D01*
X52760691Y-44401990D01*
X52760689Y-44401987D01*
X52676813Y-44318111D01*
X52676810Y-44318109D01*
X52676806Y-44318106D01*
X52574091Y-44258803D01*
X52574081Y-44258799D01*
X52459511Y-44228100D01*
X52459509Y-44228100D01*
X52340891Y-44228100D01*
X52340889Y-44228100D01*
X52226318Y-44258799D01*
X52226308Y-44258803D01*
X52123593Y-44318106D01*
X52123583Y-44318114D01*
X52039714Y-44401983D01*
X52039706Y-44401993D01*
X51980403Y-44504708D01*
X51980399Y-44504718D01*
X51949700Y-44619288D01*
X49632870Y-44619288D01*
X49552153Y-44376583D01*
X49344614Y-43752545D01*
X49339163Y-43736154D01*
X65239500Y-43736154D01*
X65239500Y-43893845D01*
X65270261Y-44048490D01*
X65270263Y-44048498D01*
X65330607Y-44194181D01*
X65330611Y-44194188D01*
X65418205Y-44325282D01*
X65418210Y-44325288D01*
X65529711Y-44436789D01*
X65529717Y-44436794D01*
X65660811Y-44524388D01*
X65660818Y-44524392D01*
X65660821Y-44524394D01*
X65806503Y-44584737D01*
X65961154Y-44615499D01*
X65961155Y-44615500D01*
X65961158Y-44615500D01*
X66118845Y-44615500D01*
X66118845Y-44615499D01*
X66273497Y-44584737D01*
X66419179Y-44524394D01*
X66550289Y-44436789D01*
X66661789Y-44325289D01*
X66683561Y-44292706D01*
X66749388Y-44194188D01*
X66749388Y-44194187D01*
X66749394Y-44194179D01*
X66809737Y-44048497D01*
X66840499Y-43893845D01*
X66840500Y-43893845D01*
X66840500Y-43736155D01*
X66840499Y-43736154D01*
X66810934Y-43587524D01*
X66809737Y-43581503D01*
X66749394Y-43435821D01*
X66749392Y-43435818D01*
X66749388Y-43435811D01*
X66661794Y-43304717D01*
X66661789Y-43304711D01*
X66550288Y-43193210D01*
X66550282Y-43193205D01*
X66419188Y-43105611D01*
X66419181Y-43105607D01*
X66273498Y-43045263D01*
X66273490Y-43045261D01*
X66118845Y-43014500D01*
X66118842Y-43014500D01*
X65961158Y-43014500D01*
X65961155Y-43014500D01*
X65806509Y-43045261D01*
X65806501Y-43045263D01*
X65660818Y-43105607D01*
X65660811Y-43105611D01*
X65529717Y-43193205D01*
X65529711Y-43193210D01*
X65418210Y-43304711D01*
X65418205Y-43304717D01*
X65330611Y-43435811D01*
X65330607Y-43435818D01*
X65270263Y-43581501D01*
X65270261Y-43581509D01*
X65239500Y-43736154D01*
X49339163Y-43736154D01*
X49291924Y-43594116D01*
X49291922Y-43594111D01*
X49291921Y-43594110D01*
X49291921Y-43594108D01*
X49288443Y-43587524D01*
X49282506Y-43570802D01*
X49270130Y-43508580D01*
X49270129Y-43508577D01*
X49270126Y-43508569D01*
X49224968Y-43399550D01*
X49190941Y-43317402D01*
X49075977Y-43145345D01*
X48929655Y-42999023D01*
X48929654Y-42999022D01*
X48929655Y-42999022D01*
X48757599Y-42884060D01*
X48757600Y-42884060D01*
X48757598Y-42884059D01*
X48757591Y-42884056D01*
X48566430Y-42804873D01*
X48566414Y-42804868D01*
X48363468Y-42764500D01*
X48363465Y-42764500D01*
X48156535Y-42764500D01*
X48156532Y-42764500D01*
X47953585Y-42804868D01*
X47953569Y-42804873D01*
X47762408Y-42884056D01*
X47762400Y-42884060D01*
X47590345Y-42999022D01*
X47444022Y-43145345D01*
X47329060Y-43317400D01*
X47329056Y-43317408D01*
X47308818Y-43366267D01*
X47275535Y-43399551D01*
X47228465Y-43399550D01*
X47195181Y-43366267D01*
X47190500Y-43342732D01*
X47190500Y-41747267D01*
X47208513Y-41703780D01*
X47252000Y-41685767D01*
X47295487Y-41703780D01*
X47308816Y-41723727D01*
X47329059Y-41772598D01*
X47329060Y-41772599D01*
X47444022Y-41944654D01*
X47590345Y-42090977D01*
X47590344Y-42090977D01*
X47676664Y-42148653D01*
X47762402Y-42205941D01*
X47851466Y-42242832D01*
X47953569Y-42285126D01*
X47953574Y-42285127D01*
X47953580Y-42285130D01*
X48156531Y-42325499D01*
X48156532Y-42325500D01*
X48156535Y-42325500D01*
X48363468Y-42325500D01*
X48363468Y-42325499D01*
X48566420Y-42285130D01*
X48757598Y-42205941D01*
X48929655Y-42090977D01*
X49075977Y-41944655D01*
X49190941Y-41772598D01*
X49270130Y-41581420D01*
X49310499Y-41378468D01*
X49310500Y-41378468D01*
X49310500Y-41196154D01*
X65239500Y-41196154D01*
X65239500Y-41353845D01*
X65270261Y-41508490D01*
X65270263Y-41508498D01*
X65330607Y-41654181D01*
X65330611Y-41654188D01*
X65418205Y-41785282D01*
X65418210Y-41785288D01*
X65529711Y-41896789D01*
X65529717Y-41896794D01*
X65660811Y-41984388D01*
X65660818Y-41984392D01*
X65660821Y-41984394D01*
X65806503Y-42044737D01*
X65961154Y-42075499D01*
X65961155Y-42075500D01*
X65961158Y-42075500D01*
X66118845Y-42075500D01*
X66118845Y-42075499D01*
X66273497Y-42044737D01*
X66419179Y-41984394D01*
X66550289Y-41896789D01*
X66661789Y-41785289D01*
X66749394Y-41654179D01*
X66809737Y-41508497D01*
X66840499Y-41353845D01*
X66840500Y-41353845D01*
X66840500Y-41196155D01*
X66840499Y-41196154D01*
X66835601Y-41171532D01*
X66809737Y-41041503D01*
X66749394Y-40895821D01*
X66749392Y-40895818D01*
X66749388Y-40895811D01*
X66661794Y-40764717D01*
X66661789Y-40764711D01*
X66550288Y-40653210D01*
X66550282Y-40653205D01*
X66419188Y-40565611D01*
X66419181Y-40565607D01*
X66273498Y-40505263D01*
X66273490Y-40505261D01*
X66118845Y-40474500D01*
X66118842Y-40474500D01*
X65961158Y-40474500D01*
X65961155Y-40474500D01*
X65806509Y-40505261D01*
X65806501Y-40505263D01*
X65660818Y-40565607D01*
X65660811Y-40565611D01*
X65529717Y-40653205D01*
X65529711Y-40653210D01*
X65418210Y-40764711D01*
X65418205Y-40764717D01*
X65330611Y-40895811D01*
X65330607Y-40895818D01*
X65270263Y-41041501D01*
X65270261Y-41041509D01*
X65239500Y-41196154D01*
X49310500Y-41196154D01*
X49310500Y-41171532D01*
X49310499Y-41171531D01*
X49270131Y-40968585D01*
X49270130Y-40968584D01*
X49270130Y-40968580D01*
X49270127Y-40968574D01*
X49270126Y-40968569D01*
X49224968Y-40859550D01*
X49190941Y-40777402D01*
X49075977Y-40605345D01*
X48929655Y-40459023D01*
X48929654Y-40459022D01*
X48929655Y-40459022D01*
X48757599Y-40344060D01*
X48757600Y-40344060D01*
X48757598Y-40344059D01*
X48757591Y-40344056D01*
X48566430Y-40264873D01*
X48566414Y-40264868D01*
X48363468Y-40224500D01*
X48363465Y-40224500D01*
X48156535Y-40224500D01*
X48156532Y-40224500D01*
X47953585Y-40264868D01*
X47953569Y-40264873D01*
X47762408Y-40344056D01*
X47762400Y-40344060D01*
X47590345Y-40459022D01*
X47444022Y-40605345D01*
X47329060Y-40777400D01*
X47329056Y-40777408D01*
X47308818Y-40826267D01*
X47275535Y-40859551D01*
X47228465Y-40859550D01*
X47195181Y-40826267D01*
X47190500Y-40802732D01*
X47190500Y-39476420D01*
X47208513Y-39432933D01*
X47777037Y-38864408D01*
X47794075Y-38927993D01*
X47859901Y-39042007D01*
X47952993Y-39135099D01*
X48067007Y-39200925D01*
X48130591Y-39217962D01*
X47498282Y-39850270D01*
X47552445Y-39889622D01*
X47741777Y-39986092D01*
X47741778Y-39986093D01*
X47943873Y-40051757D01*
X48153749Y-40084999D01*
X48153757Y-40085000D01*
X48366243Y-40085000D01*
X48366250Y-40084999D01*
X48576126Y-40051757D01*
X48778221Y-39986093D01*
X48778222Y-39986092D01*
X48967556Y-39889621D01*
X49021717Y-39850271D01*
X48389408Y-39217962D01*
X48452993Y-39200925D01*
X48567007Y-39135099D01*
X48660099Y-39042007D01*
X48725925Y-38927993D01*
X48742962Y-38864408D01*
X49375271Y-39496717D01*
X49414621Y-39442556D01*
X49511092Y-39253222D01*
X49511093Y-39253221D01*
X49576757Y-39051126D01*
X49609999Y-38841250D01*
X49610000Y-38841242D01*
X49610000Y-38628757D01*
X49609999Y-38628749D01*
X49576757Y-38418873D01*
X49511093Y-38216778D01*
X49511092Y-38216777D01*
X49414622Y-38027445D01*
X49375270Y-37973282D01*
X48742962Y-38605590D01*
X48725925Y-38542007D01*
X48660099Y-38427993D01*
X48567007Y-38334901D01*
X48452993Y-38269075D01*
X48389407Y-38252036D01*
X49021717Y-37619727D01*
X48967557Y-37580379D01*
X48778222Y-37483907D01*
X48778221Y-37483906D01*
X48576126Y-37418242D01*
X48366250Y-37385000D01*
X48153749Y-37385000D01*
X47943873Y-37418242D01*
X47741778Y-37483906D01*
X47741777Y-37483907D01*
X47552446Y-37580377D01*
X47498281Y-37619727D01*
X48130591Y-38252037D01*
X48067007Y-38269075D01*
X47952993Y-38334901D01*
X47859901Y-38427993D01*
X47794075Y-38542007D01*
X47777037Y-38605591D01*
X47208513Y-38037067D01*
X47190500Y-37993580D01*
X47190500Y-27306861D01*
X47190612Y-27303148D01*
X47192912Y-27265118D01*
X47207333Y-27026714D01*
X47208228Y-27019346D01*
X47257815Y-26748757D01*
X47259584Y-26741581D01*
X47341424Y-26478948D01*
X47344055Y-26472013D01*
X47456951Y-26221167D01*
X47460395Y-26214605D01*
X47602708Y-25979190D01*
X47606920Y-25973088D01*
X47776572Y-25756543D01*
X47781482Y-25751001D01*
X47976001Y-25556482D01*
X47981543Y-25551572D01*
X48198088Y-25381920D01*
X48204190Y-25377708D01*
X48439605Y-25235395D01*
X48446167Y-25231951D01*
X48697016Y-25119053D01*
X48703948Y-25116424D01*
X48966581Y-25034584D01*
X48973757Y-25032815D01*
X49244351Y-24983227D01*
X49251714Y-24982333D01*
X49528148Y-24965611D01*
X49531861Y-24965500D01*
X49569882Y-24965500D01*
X64730118Y-24965500D01*
X64768139Y-24965500D01*
X64771851Y-24965611D01*
G37*
%TD.AperFunction*%
%TD*%
%TA.AperFunction,Conductor*%
%TO.N,/DIO10*%
G36*
X53876193Y-54394697D02*
G01*
X53882487Y-54401066D01*
X53883117Y-54403148D01*
X53924725Y-54607668D01*
X53924725Y-54612333D01*
X53882614Y-54819323D01*
X53877607Y-54826746D01*
X53868928Y-54828477D01*
X53488002Y-54754832D01*
X53480530Y-54749897D01*
X53478523Y-54743345D01*
X53478523Y-54564200D01*
X53481950Y-54555927D01*
X53490223Y-54552500D01*
X53500910Y-54552500D01*
X53500910Y-54552499D01*
X53558197Y-54537149D01*
X53615484Y-54521800D01*
X53615488Y-54521798D01*
X53649728Y-54502029D01*
X53718213Y-54462489D01*
X53728582Y-54452119D01*
X53732432Y-54449562D01*
X53867240Y-54394645D01*
X53876193Y-54394697D01*
G37*
%TD.AperFunction*%
%TD*%
%TA.AperFunction,Conductor*%
%TO.N,/DIO10*%
G36*
X49092330Y-43652930D02*
G01*
X49096922Y-43658960D01*
X49518962Y-44927966D01*
X49518321Y-44936898D01*
X49516133Y-44939931D01*
X49384931Y-45071133D01*
X49376658Y-45074560D01*
X49372966Y-45073962D01*
X48103960Y-44651922D01*
X48097191Y-44646060D01*
X48096175Y-44638549D01*
X48257772Y-43821978D01*
X48262739Y-43814527D01*
X48266977Y-43812772D01*
X49083549Y-43651175D01*
X49092330Y-43652930D01*
G37*
%TD.AperFunction*%
%TD*%
%TA.AperFunction,Conductor*%
%TO.N,/NTC*%
G36*
X52194971Y-53050150D02*
G01*
X52197903Y-53055057D01*
X52312389Y-53436229D01*
X52311487Y-53445139D01*
X52304550Y-53450800D01*
X52303516Y-53451060D01*
X52097732Y-53492925D01*
X52093068Y-53492925D01*
X51887283Y-53451060D01*
X51879859Y-53446053D01*
X51878150Y-53437263D01*
X51878410Y-53436229D01*
X51992897Y-53055057D01*
X51998558Y-53048120D01*
X52004102Y-53046723D01*
X52186698Y-53046723D01*
X52194971Y-53050150D01*
G37*
%TD.AperFunction*%
%TD*%
%TA.AperFunction,Conductor*%
%TO.N,/NTC*%
G36*
X50713206Y-50075769D02*
G01*
X50713753Y-50076683D01*
X50902327Y-50427166D01*
X50903229Y-50436076D01*
X50900297Y-50440983D01*
X50771183Y-50570097D01*
X50762910Y-50573524D01*
X50757366Y-50572127D01*
X50406883Y-50383553D01*
X50401222Y-50376616D01*
X50402124Y-50367706D01*
X50402661Y-50366807D01*
X50518581Y-50191674D01*
X50521874Y-50188381D01*
X50696994Y-50072470D01*
X50705783Y-50070762D01*
X50713206Y-50075769D01*
G37*
%TD.AperFunction*%
%TD*%
M02*
