%TF.GenerationSoftware,KiCad,Pcbnew,9.0.0*%
%TF.CreationDate,2025-11-21T20:27:59+01:00*%
%TF.ProjectId,LR2021-Explorer,4c523230-3231-42d4-9578-706c6f726572,rev?*%
%TF.SameCoordinates,Original*%
%TF.FileFunction,Copper,L4,Bot*%
%TF.FilePolarity,Positive*%
%FSLAX46Y46*%
G04 Gerber Fmt 4.6, Leading zero omitted, Abs format (unit mm)*
G04 Created by KiCad (PCBNEW 9.0.0) date 2025-11-21 20:27:59*
%MOMM*%
%LPD*%
G01*
G04 APERTURE LIST*
%TA.AperFunction,ComponentPad*%
%ADD10O,1.700000X1.700000*%
%TD*%
%TA.AperFunction,ComponentPad*%
%ADD11C,1.700000*%
%TD*%
%TA.AperFunction,ViaPad*%
%ADD12C,0.450000*%
%TD*%
%TA.AperFunction,Conductor*%
%ADD13C,0.200000*%
%TD*%
%TA.AperFunction,Conductor*%
%ADD14C,0.150000*%
%TD*%
%TA.AperFunction,Conductor*%
%ADD15C,0.125000*%
%TD*%
G04 APERTURE END LIST*
D10*
%TO.P,J2,8,Pin_8*%
%TO.N,GND*%
X48260000Y-56515000D03*
%TO.P,J2,7,Pin_7*%
%TO.N,VDD*%
X48260000Y-53975000D03*
%TO.P,J2,6,Pin_6*%
%TO.N,/DIO7*%
X48260000Y-51435000D03*
%TO.P,J2,5,Pin_5*%
%TO.N,/DIO8*%
X48260000Y-48895000D03*
%TO.P,J2,4,Pin_4*%
%TO.N,/DIO9*%
X48260000Y-46355000D03*
%TO.P,J2,3,Pin_3*%
%TO.N,/DIO10*%
X48260000Y-43815000D03*
%TO.P,J2,2,Pin_2*%
%TO.N,/DIO11*%
X48260000Y-41275000D03*
D11*
%TO.P,J2,1,Pin_1*%
%TO.N,GND*%
X48260000Y-38735000D03*
%TD*%
D10*
%TO.P,J1,8,Pin_8*%
%TO.N,/DIO6*%
X66040000Y-56515000D03*
%TO.P,J1,7,Pin_7*%
%TO.N,/DIO5*%
X66040000Y-53975000D03*
%TO.P,J1,6,Pin_6*%
%TO.N,/~{NRESET}*%
X66040000Y-51435000D03*
%TO.P,J1,5,Pin_5*%
%TO.N,/MISO*%
X66040000Y-48895000D03*
%TO.P,J1,4,Pin_4*%
%TO.N,/MOSI*%
X66040000Y-46355000D03*
%TO.P,J1,3,Pin_3*%
%TO.N,/SCK*%
X66040000Y-43815000D03*
%TO.P,J1,2,Pin_2*%
%TO.N,/NSS*%
X66040000Y-41275000D03*
D11*
%TO.P,J1,1,Pin_1*%
%TO.N,/BUSY*%
X66040000Y-38735000D03*
%TD*%
D12*
%TO.N,GND*%
X50500000Y-54750000D03*
X50500000Y-52500000D03*
X50500000Y-57750000D03*
X58250000Y-28000000D03*
X56750000Y-28000000D03*
X50500000Y-35750000D03*
X50250000Y-32500000D03*
X49250000Y-27000000D03*
X48750000Y-30500000D03*
X65532000Y-27432000D03*
X65750000Y-29500000D03*
X64750000Y-31250000D03*
X65250000Y-32500000D03*
X64500000Y-33750000D03*
X65500000Y-35000000D03*
X64000000Y-36250000D03*
X57500000Y-33250000D03*
X57500000Y-31250000D03*
X57500000Y-29250000D03*
X57500000Y-27000000D03*
X49000000Y-29000000D03*
X50250000Y-31000000D03*
X49000000Y-32500000D03*
X50250000Y-34250000D03*
X49000000Y-36000000D03*
X50750000Y-37500000D03*
X50500000Y-39750000D03*
X50750000Y-42000000D03*
X64500000Y-58000000D03*
X62250000Y-56896000D03*
X63500000Y-57000000D03*
X63373000Y-58250000D03*
X52500000Y-56750000D03*
X66000000Y-26000000D03*
X64500000Y-25500000D03*
X63500000Y-25500000D03*
X62500000Y-25500000D03*
X58250000Y-25500000D03*
X59250000Y-25500000D03*
X60250000Y-25500000D03*
X56500000Y-25500000D03*
X55500000Y-25500000D03*
X54500000Y-25500000D03*
X52250000Y-25500000D03*
X51250000Y-25500000D03*
X50250000Y-25500000D03*
X49250000Y-25500000D03*
X48250000Y-26000000D03*
X47500000Y-27000000D03*
X47500000Y-28000000D03*
X47500000Y-34000000D03*
X47500000Y-31000000D03*
X47500000Y-36000000D03*
X47500000Y-30000000D03*
X47500000Y-32000000D03*
X47500000Y-35000000D03*
X47500000Y-33000000D03*
X47500000Y-29000000D03*
X66750000Y-27000000D03*
X66750000Y-28000000D03*
X66750000Y-29000000D03*
X66750000Y-30000000D03*
X66750000Y-31000000D03*
X66750000Y-32000000D03*
X66750000Y-33000000D03*
X66750000Y-34000000D03*
X66750000Y-35000000D03*
X66750000Y-36000000D03*
X66750000Y-37000000D03*
X47500000Y-37000000D03*
X58000000Y-59000000D03*
X57250000Y-59000000D03*
X56250000Y-59000000D03*
X55250000Y-59000000D03*
X59000000Y-59000000D03*
X60000000Y-59000000D03*
X61000000Y-59000000D03*
X62000000Y-59000000D03*
X63000000Y-59000000D03*
X64000000Y-59000000D03*
X65000000Y-59000000D03*
X54250000Y-59000000D03*
X53250000Y-59000000D03*
X52250000Y-59000000D03*
X51250000Y-59000000D03*
X50250000Y-59000000D03*
X49250000Y-59000000D03*
X66000000Y-59000000D03*
X66500000Y-58250000D03*
X47750000Y-58250000D03*
X48250000Y-59000000D03*
X51750000Y-30000000D03*
X57000000Y-35500000D03*
X62250000Y-42500000D03*
X63000000Y-41250000D03*
X63250000Y-40000000D03*
X63250000Y-39000000D03*
X63250000Y-38000000D03*
X62250000Y-35750000D03*
X63000000Y-36750000D03*
X63250000Y-34250000D03*
X63250000Y-33250000D03*
X63250000Y-32250000D03*
X63250000Y-31250000D03*
X63250000Y-30250000D03*
X61500000Y-28000000D03*
X53500000Y-28000000D03*
X51750000Y-35000000D03*
X51750000Y-31000000D03*
X51750000Y-32000000D03*
X51750000Y-33000000D03*
X51750000Y-34000000D03*
X52000000Y-36000000D03*
X51750000Y-37000000D03*
X51750000Y-38000000D03*
X51750000Y-39000000D03*
X51750000Y-40000000D03*
X51750000Y-41000000D03*
X51750000Y-42750000D03*
X51250000Y-43500000D03*
X55750000Y-29750000D03*
X56000000Y-31000000D03*
X56000000Y-33000000D03*
X56000000Y-32000000D03*
X56000000Y-34000000D03*
X56000000Y-35000000D03*
X56000000Y-36000000D03*
X59000000Y-30000000D03*
X58750000Y-31250000D03*
X58750000Y-32250000D03*
X58750000Y-33250000D03*
X58750000Y-34500000D03*
X58000000Y-35500000D03*
X57250000Y-36500000D03*
X56000000Y-36750000D03*
X56750000Y-37250000D03*
X56000000Y-38000000D03*
X56750000Y-38750000D03*
X52750000Y-42750000D03*
X52250000Y-43750000D03*
X51500000Y-44500000D03*
X51500000Y-45500000D03*
X51000000Y-46500000D03*
X54500000Y-46500000D03*
X53500000Y-46500000D03*
X53500000Y-44500000D03*
X53500000Y-43500000D03*
X53500000Y-42500000D03*
X53500000Y-41500000D03*
X52500000Y-41500000D03*
X52500000Y-40500000D03*
X52500000Y-39500000D03*
X52500000Y-38500000D03*
X52500000Y-37500000D03*
X52750000Y-36500000D03*
X53500000Y-36000000D03*
X52750000Y-35500000D03*
X52500000Y-34500000D03*
X52500000Y-33500000D03*
X52500000Y-32500000D03*
X52500000Y-31500000D03*
X52500000Y-30500000D03*
X54750000Y-29750000D03*
X55250000Y-30500000D03*
X55250000Y-31500000D03*
X55250000Y-32500000D03*
X55250000Y-33500000D03*
X55250000Y-34500000D03*
X55250000Y-35500000D03*
X55250000Y-36500000D03*
X55250000Y-37500000D03*
X55250000Y-38500000D03*
X56000000Y-39250000D03*
X56750000Y-40000000D03*
X55250000Y-40500000D03*
X55250000Y-41500000D03*
X55250000Y-42500000D03*
X55250000Y-43500000D03*
X55250000Y-44500000D03*
X55250000Y-45500000D03*
X56500000Y-46500000D03*
X61250000Y-44500000D03*
X57500000Y-44500000D03*
X57500000Y-45500000D03*
X59500000Y-44500000D03*
X59500000Y-43500000D03*
X59500000Y-42500000D03*
X59500000Y-41500000D03*
X59500000Y-37500000D03*
X59500000Y-38500000D03*
X59500000Y-40500000D03*
X59500000Y-39500000D03*
X62000000Y-43750000D03*
X61250000Y-43250000D03*
X61250000Y-42250000D03*
X62000000Y-41500000D03*
X62500000Y-40500000D03*
X62500000Y-39500000D03*
X62500000Y-38500000D03*
X62000000Y-36500000D03*
X62500000Y-37500000D03*
X61250000Y-36000000D03*
X62500000Y-34750000D03*
X62500000Y-33750000D03*
X62500000Y-32750000D03*
X62500000Y-31750000D03*
X62500000Y-29750000D03*
X62500000Y-30750000D03*
X60000000Y-29750000D03*
X59500000Y-30750000D03*
X59500000Y-31750000D03*
X59500000Y-32750000D03*
X59500000Y-33750000D03*
X59500000Y-34750000D03*
X59000000Y-35750000D03*
X58250000Y-36500000D03*
X57500000Y-37500000D03*
X57500000Y-38500000D03*
X57500000Y-39500000D03*
X57500000Y-40500000D03*
X53550000Y-56500000D03*
X63750000Y-49750000D03*
%TO.N,VDD*%
X63650000Y-54100000D03*
%TO.N,/VR_PA*%
X52425600Y-48793400D03*
X52400200Y-44678600D03*
X62407800Y-44653200D03*
%TO.N,VDC*%
X59766200Y-46329600D03*
X54965600Y-56845200D03*
%TO.N,/BUSY*%
X59715400Y-48158400D03*
%TO.N,/DIO7*%
X55448200Y-54762400D03*
%TO.N,/DIO10*%
X53924200Y-54610000D03*
%TO.N,/DIO11*%
X53441600Y-54102000D03*
%TO.N,/NTC*%
X52095400Y-53492400D03*
X50520600Y-50190400D03*
%TO.N,/DIO9*%
X54711600Y-53746400D03*
%TO.N,/DIO8*%
X54686200Y-54533800D03*
%TO.N,/VPAX*%
X50495200Y-48945800D03*
X55981600Y-56667400D03*
%TO.N,GND*%
X57500000Y-42500000D03*
%TD*%
D13*
%TO.N,/VR_PA*%
X53969000Y-47250000D02*
X52425600Y-48793400D01*
X62407800Y-46092200D02*
X61250000Y-47250000D01*
X61250000Y-47250000D02*
X53969000Y-47250000D01*
X62407800Y-44653200D02*
X62407800Y-46092200D01*
D14*
%TO.N,/DIO7*%
X52755800Y-55930800D02*
X48260000Y-51435000D01*
X54279800Y-55930800D02*
X52755800Y-55930800D01*
X55448200Y-54762400D02*
X54279800Y-55930800D01*
D15*
%TO.N,/DIO8*%
X52343900Y-52978900D02*
X48260000Y-48895000D01*
X53131300Y-52978900D02*
X52343900Y-52978900D01*
X54686200Y-54533800D02*
X53131300Y-52978900D01*
D13*
%TO.N,/BUSY*%
X64287400Y-40487600D02*
X66040000Y-38735000D01*
X63017400Y-48158400D02*
X64287400Y-46888400D01*
X59715400Y-48158400D02*
X63017400Y-48158400D01*
X64287400Y-46888400D02*
X64287400Y-40487600D01*
D14*
%TO.N,/DIO9*%
X54711600Y-52230568D02*
X54711600Y-53746400D01*
X48260000Y-46355000D02*
X48836032Y-46355000D01*
X48836032Y-46355000D02*
X54711600Y-52230568D01*
D13*
%TO.N,/DIO8*%
X54686200Y-54627232D02*
X54686200Y-54533800D01*
%TD*%
%TA.AperFunction,Conductor*%
%TO.N,GND*%
G36*
X64771851Y-24965611D02*
G01*
X65048283Y-24982333D01*
X65055650Y-24983227D01*
X65326238Y-25032814D01*
X65333422Y-25034586D01*
X65596046Y-25116423D01*
X65602986Y-25119055D01*
X65853825Y-25231948D01*
X65860401Y-25235399D01*
X66095804Y-25377705D01*
X66101916Y-25381924D01*
X66318447Y-25551565D01*
X66324006Y-25556490D01*
X66518509Y-25750993D01*
X66523434Y-25756552D01*
X66693075Y-25973083D01*
X66697294Y-25979195D01*
X66839600Y-26214598D01*
X66843051Y-26221174D01*
X66955944Y-26472013D01*
X66958577Y-26478956D01*
X67040409Y-26741561D01*
X67042187Y-26748772D01*
X67091771Y-27019346D01*
X67092666Y-27026718D01*
X67109388Y-27303147D01*
X67109500Y-27306861D01*
X67109500Y-38262732D01*
X67091487Y-38306219D01*
X67048000Y-38324232D01*
X67004513Y-38306219D01*
X66991182Y-38286267D01*
X66970943Y-38237408D01*
X66970941Y-38237402D01*
X66855977Y-38065345D01*
X66709655Y-37919023D01*
X66709654Y-37919022D01*
X66709655Y-37919022D01*
X66537599Y-37804060D01*
X66537600Y-37804060D01*
X66537598Y-37804059D01*
X66537591Y-37804056D01*
X66346430Y-37724873D01*
X66346414Y-37724868D01*
X66143468Y-37684500D01*
X66143465Y-37684500D01*
X65936535Y-37684500D01*
X65936532Y-37684500D01*
X65733585Y-37724868D01*
X65733569Y-37724873D01*
X65542408Y-37804056D01*
X65542400Y-37804060D01*
X65370345Y-37919022D01*
X65224022Y-38065345D01*
X65109060Y-38237400D01*
X65109056Y-38237408D01*
X65029872Y-38428571D01*
X65029868Y-38428585D01*
X65017368Y-38491429D01*
X65010500Y-38509851D01*
X65008077Y-38514106D01*
X64600154Y-39740664D01*
X64585284Y-39764743D01*
X64102889Y-40247140D01*
X64046943Y-40303085D01*
X64046939Y-40303090D01*
X64007379Y-40371611D01*
X64007377Y-40371615D01*
X63986900Y-40448035D01*
X63986900Y-46738455D01*
X63968887Y-46781942D01*
X62910942Y-47839887D01*
X62867455Y-47857900D01*
X60216957Y-47857900D01*
X60199266Y-47855300D01*
X59981327Y-47789840D01*
X59968268Y-47784201D01*
X59889286Y-47738601D01*
X59889281Y-47738599D01*
X59774711Y-47707900D01*
X59774709Y-47707900D01*
X59656091Y-47707900D01*
X59656089Y-47707900D01*
X59541518Y-47738599D01*
X59541508Y-47738603D01*
X59438793Y-47797906D01*
X59438783Y-47797914D01*
X59354914Y-47881783D01*
X59354906Y-47881793D01*
X59295603Y-47984508D01*
X59295599Y-47984518D01*
X59264900Y-48099088D01*
X59264900Y-48217711D01*
X59295599Y-48332281D01*
X59295603Y-48332291D01*
X59354906Y-48435006D01*
X59354909Y-48435010D01*
X59354911Y-48435013D01*
X59438787Y-48518889D01*
X59438790Y-48518891D01*
X59438793Y-48518893D01*
X59541508Y-48578196D01*
X59541510Y-48578197D01*
X59541514Y-48578199D01*
X59541518Y-48578200D01*
X59656089Y-48608900D01*
X59656091Y-48608900D01*
X59774710Y-48608900D01*
X59812901Y-48598666D01*
X59889286Y-48578199D01*
X59968275Y-48532593D01*
X59981322Y-48526957D01*
X60199265Y-48461499D01*
X60216956Y-48458900D01*
X63056963Y-48458900D01*
X63104108Y-48446267D01*
X63133389Y-48438421D01*
X63201911Y-48398860D01*
X63257860Y-48342911D01*
X64527860Y-47072911D01*
X64529319Y-47070383D01*
X64564448Y-47009540D01*
X64564449Y-47009535D01*
X64567421Y-47004389D01*
X64582129Y-46949500D01*
X64587900Y-46927964D01*
X64587900Y-40637544D01*
X64605912Y-40594058D01*
X65010259Y-40189710D01*
X65034334Y-40174843D01*
X66260891Y-39766921D01*
X66265014Y-39764743D01*
X66267470Y-39763446D01*
X66284200Y-39757506D01*
X66346412Y-39745132D01*
X66346415Y-39745130D01*
X66346420Y-39745130D01*
X66537598Y-39665941D01*
X66709655Y-39550977D01*
X66855977Y-39404655D01*
X66970941Y-39232598D01*
X66991182Y-39183730D01*
X67024465Y-39150448D01*
X67071535Y-39150448D01*
X67104819Y-39183732D01*
X67109500Y-39207267D01*
X67109500Y-40802732D01*
X67091487Y-40846219D01*
X67048000Y-40864232D01*
X67004513Y-40846219D01*
X66991182Y-40826267D01*
X66970943Y-40777408D01*
X66970941Y-40777402D01*
X66855977Y-40605345D01*
X66709655Y-40459023D01*
X66709654Y-40459022D01*
X66709655Y-40459022D01*
X66537599Y-40344060D01*
X66537600Y-40344060D01*
X66537598Y-40344059D01*
X66537591Y-40344056D01*
X66346430Y-40264873D01*
X66346414Y-40264868D01*
X66143468Y-40224500D01*
X66143465Y-40224500D01*
X65936535Y-40224500D01*
X65936532Y-40224500D01*
X65733585Y-40264868D01*
X65733569Y-40264873D01*
X65542408Y-40344056D01*
X65542400Y-40344060D01*
X65370345Y-40459022D01*
X65224022Y-40605345D01*
X65109060Y-40777400D01*
X65109056Y-40777408D01*
X65029873Y-40968569D01*
X65029868Y-40968585D01*
X64989500Y-41171531D01*
X64989500Y-41378468D01*
X65029868Y-41581414D01*
X65029873Y-41581430D01*
X65073092Y-41685767D01*
X65109059Y-41772598D01*
X65109060Y-41772599D01*
X65224022Y-41944654D01*
X65370345Y-42090977D01*
X65370344Y-42090977D01*
X65456664Y-42148653D01*
X65542402Y-42205941D01*
X65631466Y-42242832D01*
X65733569Y-42285126D01*
X65733574Y-42285127D01*
X65733580Y-42285130D01*
X65936531Y-42325499D01*
X65936532Y-42325500D01*
X65936535Y-42325500D01*
X66143468Y-42325500D01*
X66143468Y-42325499D01*
X66346420Y-42285130D01*
X66537598Y-42205941D01*
X66709655Y-42090977D01*
X66855977Y-41944655D01*
X66970941Y-41772598D01*
X66991182Y-41723730D01*
X67024465Y-41690448D01*
X67071535Y-41690448D01*
X67104819Y-41723732D01*
X67109500Y-41747267D01*
X67109500Y-43342732D01*
X67091487Y-43386219D01*
X67048000Y-43404232D01*
X67004513Y-43386219D01*
X66991182Y-43366267D01*
X66970943Y-43317408D01*
X66970941Y-43317402D01*
X66855977Y-43145345D01*
X66709655Y-42999023D01*
X66709654Y-42999022D01*
X66709655Y-42999022D01*
X66537599Y-42884060D01*
X66537600Y-42884060D01*
X66537598Y-42884059D01*
X66537591Y-42884056D01*
X66346430Y-42804873D01*
X66346414Y-42804868D01*
X66143468Y-42764500D01*
X66143465Y-42764500D01*
X65936535Y-42764500D01*
X65936532Y-42764500D01*
X65733585Y-42804868D01*
X65733569Y-42804873D01*
X65542408Y-42884056D01*
X65542400Y-42884060D01*
X65370345Y-42999022D01*
X65224022Y-43145345D01*
X65109060Y-43317400D01*
X65109056Y-43317408D01*
X65029873Y-43508569D01*
X65029868Y-43508585D01*
X64989500Y-43711531D01*
X64989500Y-43918468D01*
X65029868Y-44121414D01*
X65029873Y-44121430D01*
X65086775Y-44258801D01*
X65109059Y-44312598D01*
X65112743Y-44318111D01*
X65224022Y-44484654D01*
X65370345Y-44630977D01*
X65370344Y-44630977D01*
X65456664Y-44688653D01*
X65542402Y-44745941D01*
X65631466Y-44782832D01*
X65733569Y-44825126D01*
X65733574Y-44825127D01*
X65733580Y-44825130D01*
X65936531Y-44865499D01*
X65936532Y-44865500D01*
X65936535Y-44865500D01*
X66143468Y-44865500D01*
X66143468Y-44865499D01*
X66346420Y-44825130D01*
X66537598Y-44745941D01*
X66709655Y-44630977D01*
X66855977Y-44484655D01*
X66970941Y-44312598D01*
X66991182Y-44263730D01*
X67024465Y-44230448D01*
X67071535Y-44230448D01*
X67104819Y-44263732D01*
X67109500Y-44287267D01*
X67109500Y-45882732D01*
X67091487Y-45926219D01*
X67048000Y-45944232D01*
X67004513Y-45926219D01*
X66991182Y-45906267D01*
X66970943Y-45857408D01*
X66970941Y-45857402D01*
X66855977Y-45685345D01*
X66709655Y-45539023D01*
X66709654Y-45539022D01*
X66709655Y-45539022D01*
X66537599Y-45424060D01*
X66537600Y-45424060D01*
X66537598Y-45424059D01*
X66537591Y-45424056D01*
X66346430Y-45344873D01*
X66346414Y-45344868D01*
X66143468Y-45304500D01*
X66143465Y-45304500D01*
X65936535Y-45304500D01*
X65936532Y-45304500D01*
X65733585Y-45344868D01*
X65733569Y-45344873D01*
X65542408Y-45424056D01*
X65542400Y-45424060D01*
X65370345Y-45539022D01*
X65224022Y-45685345D01*
X65109060Y-45857400D01*
X65109056Y-45857408D01*
X65029873Y-46048569D01*
X65029868Y-46048585D01*
X64989500Y-46251531D01*
X64989500Y-46458468D01*
X65029868Y-46661414D01*
X65029873Y-46661430D01*
X65088818Y-46803732D01*
X65109059Y-46852598D01*
X65109060Y-46852599D01*
X65224022Y-47024654D01*
X65370345Y-47170977D01*
X65370344Y-47170977D01*
X65456664Y-47228653D01*
X65542402Y-47285941D01*
X65631466Y-47322832D01*
X65733569Y-47365126D01*
X65733574Y-47365127D01*
X65733580Y-47365130D01*
X65936531Y-47405499D01*
X65936532Y-47405500D01*
X65936535Y-47405500D01*
X66143468Y-47405500D01*
X66143468Y-47405499D01*
X66346420Y-47365130D01*
X66537598Y-47285941D01*
X66709655Y-47170977D01*
X66855977Y-47024655D01*
X66970941Y-46852598D01*
X66991182Y-46803730D01*
X67024465Y-46770448D01*
X67071535Y-46770448D01*
X67104819Y-46803732D01*
X67109500Y-46827267D01*
X67109500Y-48422732D01*
X67091487Y-48466219D01*
X67048000Y-48484232D01*
X67004513Y-48466219D01*
X66991182Y-48446267D01*
X66981433Y-48422732D01*
X66970941Y-48397402D01*
X66855977Y-48225345D01*
X66709655Y-48079023D01*
X66709654Y-48079022D01*
X66709655Y-48079022D01*
X66537599Y-47964060D01*
X66537600Y-47964060D01*
X66537598Y-47964059D01*
X66537591Y-47964056D01*
X66346430Y-47884873D01*
X66346414Y-47884868D01*
X66143468Y-47844500D01*
X66143465Y-47844500D01*
X65936535Y-47844500D01*
X65936532Y-47844500D01*
X65733585Y-47884868D01*
X65733569Y-47884873D01*
X65542408Y-47964056D01*
X65542400Y-47964060D01*
X65370345Y-48079022D01*
X65224022Y-48225345D01*
X65109060Y-48397400D01*
X65109056Y-48397408D01*
X65029873Y-48588569D01*
X65029868Y-48588585D01*
X64989500Y-48791531D01*
X64989500Y-48998468D01*
X65029868Y-49201414D01*
X65029873Y-49201430D01*
X65097876Y-49365600D01*
X65109059Y-49392598D01*
X65109060Y-49392599D01*
X65224022Y-49564654D01*
X65370345Y-49710977D01*
X65370344Y-49710977D01*
X65456664Y-49768653D01*
X65542402Y-49825941D01*
X65631466Y-49862832D01*
X65733569Y-49905126D01*
X65733574Y-49905127D01*
X65733580Y-49905130D01*
X65936531Y-49945499D01*
X65936532Y-49945500D01*
X65936535Y-49945500D01*
X66143468Y-49945500D01*
X66143468Y-49945499D01*
X66346420Y-49905130D01*
X66537598Y-49825941D01*
X66709655Y-49710977D01*
X66855977Y-49564655D01*
X66970941Y-49392598D01*
X66991182Y-49343730D01*
X67024465Y-49310448D01*
X67071535Y-49310448D01*
X67104819Y-49343732D01*
X67109500Y-49367267D01*
X67109500Y-50962732D01*
X67091487Y-51006219D01*
X67048000Y-51024232D01*
X67004513Y-51006219D01*
X66991182Y-50986267D01*
X66970943Y-50937408D01*
X66970941Y-50937402D01*
X66855977Y-50765345D01*
X66709655Y-50619023D01*
X66709654Y-50619022D01*
X66709655Y-50619022D01*
X66537599Y-50504060D01*
X66537600Y-50504060D01*
X66537598Y-50504059D01*
X66537591Y-50504056D01*
X66346430Y-50424873D01*
X66346414Y-50424868D01*
X66143468Y-50384500D01*
X66143465Y-50384500D01*
X65936535Y-50384500D01*
X65936532Y-50384500D01*
X65733585Y-50424868D01*
X65733569Y-50424873D01*
X65542408Y-50504056D01*
X65542400Y-50504060D01*
X65370345Y-50619022D01*
X65224022Y-50765345D01*
X65109060Y-50937400D01*
X65109056Y-50937408D01*
X65029873Y-51128569D01*
X65029868Y-51128585D01*
X64989500Y-51331531D01*
X64989500Y-51538468D01*
X65029868Y-51741414D01*
X65029873Y-51741430D01*
X65073092Y-51845767D01*
X65109059Y-51932598D01*
X65109060Y-51932599D01*
X65224022Y-52104654D01*
X65370345Y-52250977D01*
X65370344Y-52250977D01*
X65456664Y-52308653D01*
X65542402Y-52365941D01*
X65631466Y-52402832D01*
X65733569Y-52445126D01*
X65733574Y-52445127D01*
X65733580Y-52445130D01*
X65936531Y-52485499D01*
X65936532Y-52485500D01*
X65936535Y-52485500D01*
X66143468Y-52485500D01*
X66143468Y-52485499D01*
X66346420Y-52445130D01*
X66537598Y-52365941D01*
X66709655Y-52250977D01*
X66855977Y-52104655D01*
X66970941Y-51932598D01*
X66991182Y-51883730D01*
X67024465Y-51850448D01*
X67071535Y-51850448D01*
X67104819Y-51883732D01*
X67109500Y-51907267D01*
X67109500Y-53502732D01*
X67091487Y-53546219D01*
X67048000Y-53564232D01*
X67004513Y-53546219D01*
X66991182Y-53526267D01*
X66970943Y-53477408D01*
X66970941Y-53477402D01*
X66855977Y-53305345D01*
X66709655Y-53159023D01*
X66709654Y-53159022D01*
X66709655Y-53159022D01*
X66575982Y-53069706D01*
X66537598Y-53044059D01*
X66537591Y-53044056D01*
X66346430Y-52964873D01*
X66346414Y-52964868D01*
X66143468Y-52924500D01*
X66143465Y-52924500D01*
X65936535Y-52924500D01*
X65936532Y-52924500D01*
X65733585Y-52964868D01*
X65733569Y-52964873D01*
X65542408Y-53044056D01*
X65542400Y-53044060D01*
X65370345Y-53159022D01*
X65224022Y-53305345D01*
X65109060Y-53477400D01*
X65109056Y-53477408D01*
X65029873Y-53668569D01*
X65029868Y-53668585D01*
X64989500Y-53871531D01*
X64989500Y-54078468D01*
X65029868Y-54281414D01*
X65029873Y-54281430D01*
X65104043Y-54460489D01*
X65109059Y-54472598D01*
X65161111Y-54550500D01*
X65224022Y-54644654D01*
X65370345Y-54790977D01*
X65370344Y-54790977D01*
X65416339Y-54821709D01*
X65542402Y-54905941D01*
X65615649Y-54936281D01*
X65733569Y-54985126D01*
X65733574Y-54985127D01*
X65733580Y-54985130D01*
X65936531Y-55025499D01*
X65936532Y-55025500D01*
X65936535Y-55025500D01*
X66143468Y-55025500D01*
X66143468Y-55025499D01*
X66346420Y-54985130D01*
X66537598Y-54905941D01*
X66709655Y-54790977D01*
X66855977Y-54644655D01*
X66970941Y-54472598D01*
X66991182Y-54423730D01*
X67024465Y-54390448D01*
X67071535Y-54390448D01*
X67104819Y-54423732D01*
X67109500Y-54447267D01*
X67109500Y-56042732D01*
X67091487Y-56086219D01*
X67048000Y-56104232D01*
X67004513Y-56086219D01*
X66991182Y-56066267D01*
X66970943Y-56017408D01*
X66970941Y-56017402D01*
X66855977Y-55845345D01*
X66709655Y-55699023D01*
X66709654Y-55699022D01*
X66709655Y-55699022D01*
X66580466Y-55612702D01*
X66537598Y-55584059D01*
X66537591Y-55584056D01*
X66346430Y-55504873D01*
X66346414Y-55504868D01*
X66143468Y-55464500D01*
X66143465Y-55464500D01*
X65936535Y-55464500D01*
X65936532Y-55464500D01*
X65733585Y-55504868D01*
X65733569Y-55504873D01*
X65542408Y-55584056D01*
X65542400Y-55584060D01*
X65370345Y-55699022D01*
X65224022Y-55845345D01*
X65109060Y-56017400D01*
X65109056Y-56017408D01*
X65029873Y-56208569D01*
X65029868Y-56208585D01*
X64989500Y-56411531D01*
X64989500Y-56618468D01*
X65029868Y-56821414D01*
X65029873Y-56821430D01*
X65098566Y-56987267D01*
X65109059Y-57012598D01*
X65158903Y-57087196D01*
X65224022Y-57184654D01*
X65370345Y-57330977D01*
X65370344Y-57330977D01*
X65456664Y-57388653D01*
X65542402Y-57445941D01*
X65575559Y-57459675D01*
X65733569Y-57525126D01*
X65733574Y-57525127D01*
X65733580Y-57525130D01*
X65936531Y-57565499D01*
X65936532Y-57565500D01*
X65936535Y-57565500D01*
X66143468Y-57565500D01*
X66143468Y-57565499D01*
X66346420Y-57525130D01*
X66537598Y-57445941D01*
X66709655Y-57330977D01*
X66855977Y-57184655D01*
X66970941Y-57012598D01*
X66991182Y-56963730D01*
X67024465Y-56930448D01*
X67071535Y-56930448D01*
X67104819Y-56963732D01*
X67109500Y-56987267D01*
X67109500Y-58417314D01*
X67109266Y-58422674D01*
X67093720Y-58600359D01*
X67091858Y-58610916D01*
X67046394Y-58780590D01*
X67042728Y-58790664D01*
X66968488Y-58949873D01*
X66963128Y-58959157D01*
X66862370Y-59103054D01*
X66855479Y-59111266D01*
X66731266Y-59235479D01*
X66723054Y-59242370D01*
X66579157Y-59343128D01*
X66569873Y-59348488D01*
X66410664Y-59422728D01*
X66400590Y-59426394D01*
X66230916Y-59471858D01*
X66220359Y-59473720D01*
X66042675Y-59489266D01*
X66037315Y-59489500D01*
X48262685Y-59489500D01*
X48257325Y-59489266D01*
X48079640Y-59473720D01*
X48069083Y-59471858D01*
X47899409Y-59426394D01*
X47889335Y-59422728D01*
X47820607Y-59390679D01*
X47730123Y-59348486D01*
X47720846Y-59343130D01*
X47576945Y-59242370D01*
X47568733Y-59235479D01*
X47444520Y-59111266D01*
X47437629Y-59103054D01*
X47336867Y-58959150D01*
X47331515Y-58949880D01*
X47257269Y-58790660D01*
X47253605Y-58780590D01*
X47208141Y-58610916D01*
X47206279Y-58600359D01*
X47190734Y-58422674D01*
X47190500Y-58417314D01*
X47190500Y-57503162D01*
X47208513Y-57459675D01*
X47252000Y-57441662D01*
X47295487Y-57459675D01*
X47380531Y-57544719D01*
X47552445Y-57669622D01*
X47741777Y-57766092D01*
X47741778Y-57766093D01*
X47943874Y-57831758D01*
X48009999Y-57842231D01*
X48010000Y-57842231D01*
X48010000Y-56948012D01*
X48067007Y-56980925D01*
X48194174Y-57015000D01*
X48325826Y-57015000D01*
X48452993Y-56980925D01*
X48510000Y-56948012D01*
X48510000Y-57842231D01*
X48576125Y-57831758D01*
X48778221Y-57766093D01*
X48778222Y-57766092D01*
X48967554Y-57669622D01*
X49139468Y-57544719D01*
X49289719Y-57394468D01*
X49414622Y-57222554D01*
X49511092Y-57033222D01*
X49511093Y-57033221D01*
X49576758Y-56831125D01*
X49583922Y-56785888D01*
X54515100Y-56785888D01*
X54515100Y-56904511D01*
X54545799Y-57019081D01*
X54545803Y-57019091D01*
X54605106Y-57121806D01*
X54605109Y-57121810D01*
X54605111Y-57121813D01*
X54688987Y-57205689D01*
X54688990Y-57205691D01*
X54688993Y-57205693D01*
X54791708Y-57264996D01*
X54791710Y-57264997D01*
X54791714Y-57264999D01*
X54791718Y-57265000D01*
X54906289Y-57295700D01*
X54906291Y-57295700D01*
X55024910Y-57295700D01*
X55075426Y-57282163D01*
X55139486Y-57264999D01*
X55242213Y-57205689D01*
X55326089Y-57121813D01*
X55385399Y-57019086D01*
X55409150Y-56930448D01*
X55416100Y-56904511D01*
X55416100Y-56785888D01*
X55385400Y-56671318D01*
X55385399Y-56671314D01*
X55364322Y-56634809D01*
X55364322Y-56634807D01*
X55348896Y-56608088D01*
X55531100Y-56608088D01*
X55531100Y-56726711D01*
X55561799Y-56841281D01*
X55561803Y-56841291D01*
X55621106Y-56944006D01*
X55621109Y-56944010D01*
X55621111Y-56944013D01*
X55704987Y-57027889D01*
X55704990Y-57027891D01*
X55704993Y-57027893D01*
X55807708Y-57087196D01*
X55807710Y-57087197D01*
X55807714Y-57087199D01*
X55807718Y-57087200D01*
X55922289Y-57117900D01*
X55922291Y-57117900D01*
X56040910Y-57117900D01*
X56091426Y-57104363D01*
X56155486Y-57087199D01*
X56258213Y-57027889D01*
X56342089Y-56944013D01*
X56401399Y-56841286D01*
X56421840Y-56765000D01*
X56432100Y-56726711D01*
X56432100Y-56608088D01*
X56401400Y-56493518D01*
X56401399Y-56493514D01*
X56401396Y-56493508D01*
X56342093Y-56390793D01*
X56342091Y-56390790D01*
X56342089Y-56390787D01*
X56258213Y-56306911D01*
X56258210Y-56306909D01*
X56258206Y-56306906D01*
X56155491Y-56247603D01*
X56155481Y-56247599D01*
X56040911Y-56216900D01*
X56040909Y-56216900D01*
X55922291Y-56216900D01*
X55922289Y-56216900D01*
X55807718Y-56247599D01*
X55807708Y-56247603D01*
X55704993Y-56306906D01*
X55704983Y-56306914D01*
X55621114Y-56390783D01*
X55621106Y-56390793D01*
X55561803Y-56493508D01*
X55561799Y-56493518D01*
X55531100Y-56608088D01*
X55348896Y-56608088D01*
X55326093Y-56568593D01*
X55326091Y-56568590D01*
X55326089Y-56568587D01*
X55242213Y-56484711D01*
X55242210Y-56484709D01*
X55242206Y-56484706D01*
X55139491Y-56425403D01*
X55139481Y-56425399D01*
X55024911Y-56394700D01*
X55024909Y-56394700D01*
X54906291Y-56394700D01*
X54906289Y-56394700D01*
X54791718Y-56425399D01*
X54791708Y-56425403D01*
X54688993Y-56484706D01*
X54688983Y-56484714D01*
X54605114Y-56568583D01*
X54605106Y-56568593D01*
X54545803Y-56671308D01*
X54545799Y-56671318D01*
X54515100Y-56785888D01*
X49583922Y-56785888D01*
X49586084Y-56772240D01*
X49586084Y-56772239D01*
X49587231Y-56765000D01*
X48693012Y-56765000D01*
X48725925Y-56707993D01*
X48760000Y-56580826D01*
X48760000Y-56449174D01*
X48725925Y-56322007D01*
X48693012Y-56265000D01*
X49587231Y-56265000D01*
X49587231Y-56264999D01*
X49576758Y-56198874D01*
X49511093Y-55996778D01*
X49511092Y-55996777D01*
X49414622Y-55807445D01*
X49289719Y-55635531D01*
X49139468Y-55485280D01*
X48967554Y-55360377D01*
X48778222Y-55263907D01*
X48778221Y-55263906D01*
X48576127Y-55198242D01*
X48510000Y-55187768D01*
X48510000Y-56081988D01*
X48452993Y-56049075D01*
X48325826Y-56015000D01*
X48194174Y-56015000D01*
X48067007Y-56049075D01*
X48010000Y-56081988D01*
X48010000Y-55187768D01*
X47943872Y-55198242D01*
X47741778Y-55263906D01*
X47741777Y-55263907D01*
X47552445Y-55360377D01*
X47380531Y-55485280D01*
X47295487Y-55570324D01*
X47252000Y-55588337D01*
X47208513Y-55570324D01*
X47190500Y-55526837D01*
X47190500Y-54447267D01*
X47208513Y-54403780D01*
X47252000Y-54385767D01*
X47295487Y-54403780D01*
X47308816Y-54423727D01*
X47329059Y-54472598D01*
X47381111Y-54550500D01*
X47444022Y-54644654D01*
X47590345Y-54790977D01*
X47590344Y-54790977D01*
X47636339Y-54821709D01*
X47762402Y-54905941D01*
X47835649Y-54936281D01*
X47953569Y-54985126D01*
X47953574Y-54985127D01*
X47953580Y-54985130D01*
X48156531Y-55025499D01*
X48156532Y-55025500D01*
X48156535Y-55025500D01*
X48363468Y-55025500D01*
X48363468Y-55025499D01*
X48566420Y-54985130D01*
X48757598Y-54905941D01*
X48929655Y-54790977D01*
X49075977Y-54644655D01*
X49190941Y-54472598D01*
X49270130Y-54281420D01*
X49310499Y-54078468D01*
X49310500Y-54078468D01*
X49310500Y-53871532D01*
X49310499Y-53871531D01*
X49301320Y-53825387D01*
X49270130Y-53668580D01*
X49270127Y-53668572D01*
X49270126Y-53668569D01*
X49219446Y-53546219D01*
X49190941Y-53477402D01*
X49075977Y-53305345D01*
X48929655Y-53159023D01*
X48929654Y-53159022D01*
X48929655Y-53159022D01*
X48795982Y-53069706D01*
X48757598Y-53044059D01*
X48757591Y-53044056D01*
X48566430Y-52964873D01*
X48566414Y-52964868D01*
X48363468Y-52924500D01*
X48363465Y-52924500D01*
X48156535Y-52924500D01*
X48156532Y-52924500D01*
X47953585Y-52964868D01*
X47953569Y-52964873D01*
X47762408Y-53044056D01*
X47762400Y-53044060D01*
X47590345Y-53159022D01*
X47444022Y-53305345D01*
X47329060Y-53477400D01*
X47329056Y-53477408D01*
X47308818Y-53526267D01*
X47275535Y-53559551D01*
X47228465Y-53559550D01*
X47195181Y-53526267D01*
X47190500Y-53502732D01*
X47190500Y-51907267D01*
X47208513Y-51863780D01*
X47252000Y-51845767D01*
X47295487Y-51863780D01*
X47308816Y-51883727D01*
X47329059Y-51932598D01*
X47329060Y-51932599D01*
X47444022Y-52104654D01*
X47590345Y-52250977D01*
X47590344Y-52250977D01*
X47676664Y-52308653D01*
X47762402Y-52365941D01*
X47851466Y-52402832D01*
X47953569Y-52445126D01*
X47953577Y-52445129D01*
X47953578Y-52445129D01*
X47953580Y-52445130D01*
X48018857Y-52458113D01*
X48036393Y-52464489D01*
X48042522Y-52467846D01*
X49283739Y-52858210D01*
X49308774Y-52873389D01*
X52599741Y-56164357D01*
X52629399Y-56176641D01*
X52629400Y-56176642D01*
X52660626Y-56189576D01*
X52701000Y-56206300D01*
X52701003Y-56206300D01*
X54334599Y-56206300D01*
X54334600Y-56206300D01*
X54334601Y-56206299D01*
X54334603Y-56206299D01*
X54352528Y-56198874D01*
X54435858Y-56164357D01*
X54513357Y-56086858D01*
X54513356Y-56086858D01*
X55284948Y-55315266D01*
X55302370Y-55303051D01*
X55482697Y-55218693D01*
X55503596Y-55214047D01*
X55503515Y-55213426D01*
X55507510Y-55212900D01*
X55562213Y-55198242D01*
X55622086Y-55182199D01*
X55724813Y-55122889D01*
X55808689Y-55039013D01*
X55867999Y-54936286D01*
X55882622Y-54881712D01*
X55898700Y-54821711D01*
X55898700Y-54703088D01*
X55868000Y-54588518D01*
X55867999Y-54588514D01*
X55867996Y-54588508D01*
X55808693Y-54485793D01*
X55808691Y-54485790D01*
X55808689Y-54485787D01*
X55724813Y-54401911D01*
X55724810Y-54401909D01*
X55724806Y-54401906D01*
X55622091Y-54342603D01*
X55622081Y-54342599D01*
X55507511Y-54311900D01*
X55507509Y-54311900D01*
X55388891Y-54311900D01*
X55388889Y-54311900D01*
X55274318Y-54342599D01*
X55274314Y-54342601D01*
X55193427Y-54389301D01*
X55146759Y-54395444D01*
X55109416Y-54366790D01*
X55106181Y-54360230D01*
X55046693Y-54257193D01*
X55046691Y-54257190D01*
X55046689Y-54257187D01*
X54985789Y-54196287D01*
X54967776Y-54152800D01*
X54985789Y-54109313D01*
X55016637Y-54078465D01*
X55054414Y-54040688D01*
X63199500Y-54040688D01*
X63199500Y-54159311D01*
X63230199Y-54273881D01*
X63230203Y-54273891D01*
X63289506Y-54376606D01*
X63289509Y-54376610D01*
X63289511Y-54376613D01*
X63373387Y-54460489D01*
X63373390Y-54460491D01*
X63373393Y-54460493D01*
X63476108Y-54519796D01*
X63476110Y-54519797D01*
X63476114Y-54519799D01*
X63476118Y-54519800D01*
X63590689Y-54550500D01*
X63590691Y-54550500D01*
X63709310Y-54550500D01*
X63759826Y-54536963D01*
X63823886Y-54519799D01*
X63926613Y-54460489D01*
X64010489Y-54376613D01*
X64069799Y-54273886D01*
X64090592Y-54196287D01*
X64100500Y-54159311D01*
X64100500Y-54040688D01*
X64069800Y-53926118D01*
X64069799Y-53926114D01*
X64069796Y-53926108D01*
X64010493Y-53823393D01*
X64010491Y-53823390D01*
X64010489Y-53823387D01*
X63926613Y-53739511D01*
X63926610Y-53739509D01*
X63926606Y-53739506D01*
X63823891Y-53680203D01*
X63823881Y-53680199D01*
X63709311Y-53649500D01*
X63709309Y-53649500D01*
X63590691Y-53649500D01*
X63590689Y-53649500D01*
X63476118Y-53680199D01*
X63476108Y-53680203D01*
X63373393Y-53739506D01*
X63373383Y-53739514D01*
X63289514Y-53823383D01*
X63289506Y-53823393D01*
X63230203Y-53926108D01*
X63230199Y-53926118D01*
X63199500Y-54040688D01*
X55054414Y-54040688D01*
X55072089Y-54023013D01*
X55131399Y-53920286D01*
X55156826Y-53825393D01*
X55162100Y-53805711D01*
X55162100Y-53687088D01*
X55131400Y-53572518D01*
X55131399Y-53572514D01*
X55127454Y-53565681D01*
X55072093Y-53469793D01*
X55072090Y-53469790D01*
X55072089Y-53469787D01*
X55072086Y-53469784D01*
X55069635Y-53466590D01*
X55070133Y-53466207D01*
X55058642Y-53448146D01*
X55053183Y-53433091D01*
X54990783Y-53260986D01*
X54987100Y-53240023D01*
X54987100Y-52175768D01*
X54987099Y-52175764D01*
X54968550Y-52130985D01*
X54945157Y-52074510D01*
X54867658Y-51997011D01*
X52183769Y-49313122D01*
X52165756Y-49269635D01*
X52183769Y-49226148D01*
X52227256Y-49208135D01*
X52247803Y-49212222D01*
X52247821Y-49212156D01*
X52248832Y-49212426D01*
X52250793Y-49212817D01*
X52251709Y-49213196D01*
X52251714Y-49213199D01*
X52251718Y-49213200D01*
X52366289Y-49243900D01*
X52366291Y-49243900D01*
X52484910Y-49243900D01*
X52551160Y-49226148D01*
X52599486Y-49213199D01*
X52702213Y-49153889D01*
X52786089Y-49070013D01*
X52845399Y-48967286D01*
X52869006Y-48879179D01*
X52874252Y-48865961D01*
X52924856Y-48771908D01*
X52982064Y-48665580D01*
X52992732Y-48651237D01*
X54075458Y-47568513D01*
X54118945Y-47550500D01*
X61289563Y-47550500D01*
X61323257Y-47541471D01*
X61365989Y-47530021D01*
X61434511Y-47490460D01*
X61490460Y-47434511D01*
X62648260Y-46276711D01*
X62648561Y-46276189D01*
X62648591Y-46276165D01*
X62648579Y-46276158D01*
X62662797Y-46251531D01*
X62687821Y-46208189D01*
X62701884Y-46155708D01*
X62708300Y-46131764D01*
X62708300Y-45154755D01*
X62710899Y-45137064D01*
X62722513Y-45098396D01*
X62776357Y-44919122D01*
X62781993Y-44906075D01*
X62827599Y-44827086D01*
X62842949Y-44769797D01*
X62858300Y-44712511D01*
X62858300Y-44593888D01*
X62827600Y-44479318D01*
X62827599Y-44479314D01*
X62827596Y-44479308D01*
X62768293Y-44376593D01*
X62768291Y-44376590D01*
X62768289Y-44376587D01*
X62684413Y-44292711D01*
X62684410Y-44292709D01*
X62684406Y-44292706D01*
X62581691Y-44233403D01*
X62581681Y-44233399D01*
X62467111Y-44202700D01*
X62467109Y-44202700D01*
X62348491Y-44202700D01*
X62348489Y-44202700D01*
X62233918Y-44233399D01*
X62233908Y-44233403D01*
X62131193Y-44292706D01*
X62131183Y-44292714D01*
X62047314Y-44376583D01*
X62047306Y-44376593D01*
X61988003Y-44479308D01*
X61987999Y-44479318D01*
X61957300Y-44593888D01*
X61957300Y-44712511D01*
X61987999Y-44827081D01*
X61988003Y-44827091D01*
X62033600Y-44906066D01*
X62039240Y-44919125D01*
X62104700Y-45137064D01*
X62107300Y-45154755D01*
X62107300Y-45942255D01*
X62089287Y-45985742D01*
X61143542Y-46931487D01*
X61100055Y-46949500D01*
X53929436Y-46949500D01*
X53853015Y-46969977D01*
X53853011Y-46969979D01*
X53793413Y-47004388D01*
X53793412Y-47004388D01*
X53784487Y-47009540D01*
X52567768Y-48226259D01*
X52553421Y-48236930D01*
X52353028Y-48344750D01*
X52339806Y-48349996D01*
X52251718Y-48373599D01*
X52251708Y-48373603D01*
X52148993Y-48432906D01*
X52148983Y-48432914D01*
X52065114Y-48516783D01*
X52065106Y-48516793D01*
X52005803Y-48619508D01*
X52005799Y-48619518D01*
X51975100Y-48734088D01*
X51975100Y-48852711D01*
X52005802Y-48967291D01*
X52006184Y-48968213D01*
X52006183Y-48968715D01*
X52006844Y-48971179D01*
X52006183Y-48971355D01*
X52006181Y-49015283D01*
X51972894Y-49048563D01*
X51925824Y-49048560D01*
X51905877Y-49035230D01*
X49899939Y-47029292D01*
X49890757Y-47017558D01*
X49440299Y-46270288D01*
X59315700Y-46270288D01*
X59315700Y-46388911D01*
X59346399Y-46503481D01*
X59346403Y-46503491D01*
X59405706Y-46606206D01*
X59405709Y-46606210D01*
X59405711Y-46606213D01*
X59489587Y-46690089D01*
X59489590Y-46690091D01*
X59489593Y-46690093D01*
X59592308Y-46749396D01*
X59592310Y-46749397D01*
X59592314Y-46749399D01*
X59592318Y-46749400D01*
X59706889Y-46780100D01*
X59706891Y-46780100D01*
X59825510Y-46780100D01*
X59879000Y-46765767D01*
X59940086Y-46749399D01*
X60042813Y-46690089D01*
X60126689Y-46606213D01*
X60185999Y-46503486D01*
X60198062Y-46458465D01*
X60216700Y-46388911D01*
X60216700Y-46270288D01*
X60186000Y-46155718D01*
X60185999Y-46155714D01*
X60185996Y-46155708D01*
X60126693Y-46052993D01*
X60126691Y-46052990D01*
X60126689Y-46052987D01*
X60042813Y-45969111D01*
X60042810Y-45969109D01*
X60042806Y-45969106D01*
X59940091Y-45909803D01*
X59940081Y-45909799D01*
X59825511Y-45879100D01*
X59825509Y-45879100D01*
X59706891Y-45879100D01*
X59706889Y-45879100D01*
X59592318Y-45909799D01*
X59592308Y-45909803D01*
X59489593Y-45969106D01*
X59489583Y-45969114D01*
X59405714Y-46052983D01*
X59405706Y-46052993D01*
X59346403Y-46155708D01*
X59346399Y-46155718D01*
X59315700Y-46270288D01*
X49440299Y-46270288D01*
X49149067Y-45787159D01*
X49146744Y-45783399D01*
X49146460Y-45782950D01*
X49133629Y-45769777D01*
X49126556Y-45761041D01*
X49075977Y-45685345D01*
X48929655Y-45539023D01*
X48929654Y-45539022D01*
X48929655Y-45539022D01*
X48757599Y-45424060D01*
X48757600Y-45424060D01*
X48757598Y-45424059D01*
X48757591Y-45424056D01*
X48566430Y-45344873D01*
X48566414Y-45344868D01*
X48363468Y-45304500D01*
X48363465Y-45304500D01*
X48156535Y-45304500D01*
X48156532Y-45304500D01*
X47953585Y-45344868D01*
X47953569Y-45344873D01*
X47762408Y-45424056D01*
X47762400Y-45424060D01*
X47590345Y-45539022D01*
X47444022Y-45685345D01*
X47329060Y-45857400D01*
X47329056Y-45857408D01*
X47308818Y-45906267D01*
X47275535Y-45939551D01*
X47228465Y-45939550D01*
X47195181Y-45906267D01*
X47190500Y-45882732D01*
X47190500Y-44287267D01*
X47208513Y-44243780D01*
X47252000Y-44225767D01*
X47295487Y-44243780D01*
X47308816Y-44263727D01*
X47329059Y-44312598D01*
X47332743Y-44318111D01*
X47444022Y-44484654D01*
X47590345Y-44630977D01*
X47590344Y-44630977D01*
X47676664Y-44688653D01*
X47762402Y-44745941D01*
X47851466Y-44782832D01*
X47953569Y-44825126D01*
X47953574Y-44825127D01*
X47953580Y-44825130D01*
X48156531Y-44865499D01*
X48156532Y-44865500D01*
X48156535Y-44865500D01*
X48363468Y-44865500D01*
X48363468Y-44865499D01*
X48566420Y-44825130D01*
X48757598Y-44745941D01*
X48929655Y-44630977D01*
X48941344Y-44619288D01*
X51949700Y-44619288D01*
X51949700Y-44737911D01*
X51980399Y-44852481D01*
X51980403Y-44852491D01*
X52039706Y-44955206D01*
X52039709Y-44955210D01*
X52039711Y-44955213D01*
X52123587Y-45039089D01*
X52123590Y-45039091D01*
X52123593Y-45039093D01*
X52226308Y-45098396D01*
X52226310Y-45098397D01*
X52226314Y-45098399D01*
X52226318Y-45098400D01*
X52340889Y-45129100D01*
X52340891Y-45129100D01*
X52459510Y-45129100D01*
X52510026Y-45115563D01*
X52574086Y-45098399D01*
X52676813Y-45039089D01*
X52760689Y-44955213D01*
X52819999Y-44852486D01*
X52831911Y-44808027D01*
X52850700Y-44737911D01*
X52850700Y-44619288D01*
X52820000Y-44504718D01*
X52819999Y-44504714D01*
X52808418Y-44484655D01*
X52760693Y-44401993D01*
X52760691Y-44401990D01*
X52760689Y-44401987D01*
X52676813Y-44318111D01*
X52676810Y-44318109D01*
X52676806Y-44318106D01*
X52574091Y-44258803D01*
X52574081Y-44258799D01*
X52459511Y-44228100D01*
X52459509Y-44228100D01*
X52340891Y-44228100D01*
X52340889Y-44228100D01*
X52226318Y-44258799D01*
X52226308Y-44258803D01*
X52123593Y-44318106D01*
X52123583Y-44318114D01*
X52039714Y-44401983D01*
X52039706Y-44401993D01*
X51980403Y-44504708D01*
X51980399Y-44504718D01*
X51949700Y-44619288D01*
X48941344Y-44619288D01*
X49075977Y-44484655D01*
X49190941Y-44312598D01*
X49270130Y-44121420D01*
X49310499Y-43918468D01*
X49310500Y-43918468D01*
X49310500Y-43711532D01*
X49310499Y-43711531D01*
X49270131Y-43508585D01*
X49270130Y-43508584D01*
X49270130Y-43508580D01*
X49270127Y-43508574D01*
X49270126Y-43508569D01*
X49219446Y-43386219D01*
X49190941Y-43317402D01*
X49075977Y-43145345D01*
X48929655Y-42999023D01*
X48929654Y-42999022D01*
X48929655Y-42999022D01*
X48757599Y-42884060D01*
X48757600Y-42884060D01*
X48757598Y-42884059D01*
X48757591Y-42884056D01*
X48566430Y-42804873D01*
X48566414Y-42804868D01*
X48363468Y-42764500D01*
X48363465Y-42764500D01*
X48156535Y-42764500D01*
X48156532Y-42764500D01*
X47953585Y-42804868D01*
X47953569Y-42804873D01*
X47762408Y-42884056D01*
X47762400Y-42884060D01*
X47590345Y-42999022D01*
X47444022Y-43145345D01*
X47329060Y-43317400D01*
X47329056Y-43317408D01*
X47308818Y-43366267D01*
X47275535Y-43399551D01*
X47228465Y-43399550D01*
X47195181Y-43366267D01*
X47190500Y-43342732D01*
X47190500Y-41747267D01*
X47208513Y-41703780D01*
X47252000Y-41685767D01*
X47295487Y-41703780D01*
X47308816Y-41723727D01*
X47329059Y-41772598D01*
X47329060Y-41772599D01*
X47444022Y-41944654D01*
X47590345Y-42090977D01*
X47590344Y-42090977D01*
X47676664Y-42148653D01*
X47762402Y-42205941D01*
X47851466Y-42242832D01*
X47953569Y-42285126D01*
X47953574Y-42285127D01*
X47953580Y-42285130D01*
X48156531Y-42325499D01*
X48156532Y-42325500D01*
X48156535Y-42325500D01*
X48363468Y-42325500D01*
X48363468Y-42325499D01*
X48566420Y-42285130D01*
X48757598Y-42205941D01*
X48929655Y-42090977D01*
X49075977Y-41944655D01*
X49190941Y-41772598D01*
X49270130Y-41581420D01*
X49310499Y-41378468D01*
X49310500Y-41378468D01*
X49310500Y-41171532D01*
X49310499Y-41171531D01*
X49270131Y-40968585D01*
X49270130Y-40968584D01*
X49270130Y-40968580D01*
X49270127Y-40968574D01*
X49270126Y-40968569D01*
X49219446Y-40846219D01*
X49190941Y-40777402D01*
X49075977Y-40605345D01*
X48929655Y-40459023D01*
X48929654Y-40459022D01*
X48929655Y-40459022D01*
X48757599Y-40344060D01*
X48757600Y-40344060D01*
X48757598Y-40344059D01*
X48757591Y-40344056D01*
X48566430Y-40264873D01*
X48566414Y-40264868D01*
X48363468Y-40224500D01*
X48363465Y-40224500D01*
X48156535Y-40224500D01*
X48156532Y-40224500D01*
X47953585Y-40264868D01*
X47953569Y-40264873D01*
X47762408Y-40344056D01*
X47762400Y-40344060D01*
X47590345Y-40459022D01*
X47444022Y-40605345D01*
X47329060Y-40777400D01*
X47329056Y-40777408D01*
X47308818Y-40826267D01*
X47275535Y-40859551D01*
X47228465Y-40859550D01*
X47195181Y-40826267D01*
X47190500Y-40802732D01*
X47190500Y-39476420D01*
X47208513Y-39432933D01*
X47777037Y-38864408D01*
X47794075Y-38927993D01*
X47859901Y-39042007D01*
X47952993Y-39135099D01*
X48067007Y-39200925D01*
X48130591Y-39217962D01*
X47498282Y-39850270D01*
X47552445Y-39889622D01*
X47741777Y-39986092D01*
X47741778Y-39986093D01*
X47943873Y-40051757D01*
X48153749Y-40084999D01*
X48153757Y-40085000D01*
X48366243Y-40085000D01*
X48366250Y-40084999D01*
X48576126Y-40051757D01*
X48778221Y-39986093D01*
X48778222Y-39986092D01*
X48967556Y-39889621D01*
X49021717Y-39850271D01*
X48389408Y-39217962D01*
X48452993Y-39200925D01*
X48567007Y-39135099D01*
X48660099Y-39042007D01*
X48725925Y-38927993D01*
X48742962Y-38864408D01*
X49375271Y-39496717D01*
X49414621Y-39442556D01*
X49511092Y-39253222D01*
X49511093Y-39253221D01*
X49576757Y-39051126D01*
X49609999Y-38841250D01*
X49610000Y-38841242D01*
X49610000Y-38628757D01*
X49609999Y-38628749D01*
X49576757Y-38418873D01*
X49511093Y-38216778D01*
X49511092Y-38216777D01*
X49414622Y-38027445D01*
X49375270Y-37973282D01*
X48742962Y-38605590D01*
X48725925Y-38542007D01*
X48660099Y-38427993D01*
X48567007Y-38334901D01*
X48452993Y-38269075D01*
X48389407Y-38252036D01*
X49021717Y-37619727D01*
X48967557Y-37580379D01*
X48778222Y-37483907D01*
X48778221Y-37483906D01*
X48576126Y-37418242D01*
X48366250Y-37385000D01*
X48153749Y-37385000D01*
X47943873Y-37418242D01*
X47741778Y-37483906D01*
X47741777Y-37483907D01*
X47552446Y-37580377D01*
X47498281Y-37619727D01*
X48130591Y-38252037D01*
X48067007Y-38269075D01*
X47952993Y-38334901D01*
X47859901Y-38427993D01*
X47794075Y-38542007D01*
X47777037Y-38605591D01*
X47208513Y-38037067D01*
X47190500Y-37993580D01*
X47190500Y-27306861D01*
X47190612Y-27303148D01*
X47192912Y-27265118D01*
X47207333Y-27026714D01*
X47208228Y-27019346D01*
X47257815Y-26748757D01*
X47259584Y-26741581D01*
X47341424Y-26478948D01*
X47344055Y-26472013D01*
X47456951Y-26221167D01*
X47460395Y-26214605D01*
X47602708Y-25979190D01*
X47606920Y-25973088D01*
X47776572Y-25756543D01*
X47781482Y-25751001D01*
X47976001Y-25556482D01*
X47981543Y-25551572D01*
X48198088Y-25381920D01*
X48204190Y-25377708D01*
X48439605Y-25235395D01*
X48446167Y-25231951D01*
X48697016Y-25119053D01*
X48703948Y-25116424D01*
X48966581Y-25034584D01*
X48973757Y-25032815D01*
X49244351Y-24983227D01*
X49251714Y-24982333D01*
X49528148Y-24965611D01*
X49531861Y-24965500D01*
X49569882Y-24965500D01*
X64730118Y-24965500D01*
X64768139Y-24965500D01*
X64771851Y-24965611D01*
G37*
%TD.AperFunction*%
%TA.AperFunction,Conductor*%
G36*
X47295487Y-49323780D02*
G01*
X47308816Y-49343727D01*
X47329059Y-49392598D01*
X47329060Y-49392599D01*
X47444022Y-49564654D01*
X47590345Y-49710977D01*
X47590344Y-49710977D01*
X47676664Y-49768653D01*
X47762402Y-49825941D01*
X47851466Y-49862832D01*
X47953569Y-49905126D01*
X47953575Y-49905128D01*
X47953580Y-49905130D01*
X47953582Y-49905130D01*
X47953587Y-49905132D01*
X48020058Y-49918353D01*
X48037164Y-49924493D01*
X48044215Y-49928281D01*
X49292779Y-50309901D01*
X49318290Y-50325228D01*
X51959878Y-52966816D01*
X51977891Y-53010303D01*
X51959878Y-53053790D01*
X51932314Y-53069706D01*
X51921518Y-53072599D01*
X51921508Y-53072603D01*
X51818793Y-53131906D01*
X51818783Y-53131914D01*
X51734914Y-53215783D01*
X51734906Y-53215793D01*
X51675603Y-53318508D01*
X51675599Y-53318518D01*
X51644900Y-53433088D01*
X51644900Y-53551711D01*
X51675599Y-53666281D01*
X51675603Y-53666291D01*
X51734906Y-53769006D01*
X51734909Y-53769010D01*
X51734911Y-53769013D01*
X51818787Y-53852889D01*
X51818790Y-53852891D01*
X51818793Y-53852893D01*
X51921508Y-53912196D01*
X51921510Y-53912197D01*
X51921514Y-53912199D01*
X51921518Y-53912200D01*
X52036089Y-53942900D01*
X52036091Y-53942900D01*
X52154710Y-53942900D01*
X52239086Y-53920291D01*
X52269286Y-53912199D01*
X52372013Y-53852889D01*
X52455889Y-53769013D01*
X52515199Y-53666286D01*
X52530504Y-53609168D01*
X52545900Y-53551711D01*
X52545900Y-53433088D01*
X52545899Y-53433087D01*
X52515415Y-53319317D01*
X52521558Y-53272650D01*
X52558902Y-53243996D01*
X52574819Y-53241900D01*
X52996888Y-53241900D01*
X53040375Y-53259913D01*
X53346143Y-53565681D01*
X53364156Y-53609168D01*
X53346143Y-53652655D01*
X53318574Y-53668572D01*
X53267718Y-53682199D01*
X53267708Y-53682203D01*
X53164993Y-53741506D01*
X53164983Y-53741514D01*
X53081114Y-53825383D01*
X53081106Y-53825393D01*
X53021803Y-53928108D01*
X53021799Y-53928118D01*
X52991100Y-54042688D01*
X52991100Y-54161311D01*
X53021799Y-54275881D01*
X53021803Y-54275891D01*
X53081106Y-54378606D01*
X53081109Y-54378610D01*
X53081111Y-54378613D01*
X53164987Y-54462489D01*
X53164990Y-54462491D01*
X53164993Y-54462493D01*
X53267708Y-54521796D01*
X53267710Y-54521797D01*
X53267714Y-54521799D01*
X53267718Y-54521800D01*
X53382289Y-54552500D01*
X53382291Y-54552500D01*
X53412200Y-54552500D01*
X53455687Y-54570513D01*
X53473700Y-54614000D01*
X53473700Y-54669311D01*
X53504399Y-54783881D01*
X53504403Y-54783891D01*
X53563706Y-54886606D01*
X53563708Y-54886608D01*
X53563711Y-54886613D01*
X53647587Y-54970489D01*
X53647590Y-54970491D01*
X53647593Y-54970493D01*
X53750308Y-55029796D01*
X53750310Y-55029797D01*
X53750314Y-55029799D01*
X53750318Y-55029800D01*
X53864889Y-55060500D01*
X53864891Y-55060500D01*
X53983510Y-55060500D01*
X54038370Y-55045800D01*
X54098086Y-55029799D01*
X54200813Y-54970489D01*
X54284689Y-54886613D01*
X54287519Y-54881711D01*
X54324858Y-54853054D01*
X54371526Y-54859194D01*
X54384268Y-54868970D01*
X54409587Y-54894289D01*
X54409590Y-54894291D01*
X54409593Y-54894293D01*
X54512308Y-54953596D01*
X54512310Y-54953597D01*
X54512314Y-54953599D01*
X54512318Y-54953600D01*
X54626889Y-54984300D01*
X54688209Y-54984300D01*
X54731696Y-55002313D01*
X54749709Y-55045800D01*
X54731696Y-55089287D01*
X54183698Y-55637287D01*
X54140211Y-55655300D01*
X52895390Y-55655300D01*
X52851903Y-55637287D01*
X49698390Y-52483775D01*
X49683210Y-52458739D01*
X49292846Y-51217522D01*
X49288550Y-51209141D01*
X49282960Y-51193083D01*
X49270132Y-51128587D01*
X49270126Y-51128569D01*
X49219446Y-51006219D01*
X49190941Y-50937402D01*
X49075977Y-50765345D01*
X48929655Y-50619023D01*
X48929654Y-50619022D01*
X48929655Y-50619022D01*
X48757599Y-50504060D01*
X48757600Y-50504060D01*
X48757598Y-50504059D01*
X48757591Y-50504056D01*
X48566430Y-50424873D01*
X48566414Y-50424868D01*
X48363468Y-50384500D01*
X48363465Y-50384500D01*
X48156535Y-50384500D01*
X48156532Y-50384500D01*
X47953585Y-50424868D01*
X47953569Y-50424873D01*
X47762408Y-50504056D01*
X47762400Y-50504060D01*
X47590345Y-50619022D01*
X47444022Y-50765345D01*
X47329060Y-50937400D01*
X47329056Y-50937408D01*
X47308818Y-50986267D01*
X47275535Y-51019551D01*
X47228465Y-51019550D01*
X47195181Y-50986267D01*
X47190500Y-50962732D01*
X47190500Y-49367267D01*
X47208513Y-49323780D01*
X47252000Y-49305767D01*
X47295487Y-49323780D01*
G37*
%TD.AperFunction*%
%TD*%
%TA.AperFunction,Conductor*%
%TO.N,/VR_PA*%
G36*
X52676183Y-48413702D02*
G01*
X52805297Y-48542816D01*
X52808724Y-48551089D01*
X52807327Y-48556633D01*
X52618753Y-48907116D01*
X52611816Y-48912777D01*
X52602906Y-48911875D01*
X52601992Y-48911328D01*
X52426877Y-48795420D01*
X52423579Y-48792122D01*
X52307671Y-48617007D01*
X52305962Y-48608216D01*
X52310969Y-48600793D01*
X52311871Y-48600252D01*
X52662367Y-48411671D01*
X52671276Y-48410770D01*
X52676183Y-48413702D01*
G37*
%TD.AperFunction*%
%TD*%
%TA.AperFunction,Conductor*%
%TO.N,/VR_PA*%
G36*
X62615917Y-44694539D02*
G01*
X62623340Y-44699546D01*
X62625049Y-44708336D01*
X62624789Y-44709370D01*
X62510303Y-45090543D01*
X62504642Y-45097480D01*
X62499098Y-45098877D01*
X62316502Y-45098877D01*
X62308229Y-45095450D01*
X62305297Y-45090543D01*
X62190810Y-44709370D01*
X62191712Y-44700460D01*
X62198649Y-44694799D01*
X62199667Y-44694543D01*
X62405470Y-44652674D01*
X62410130Y-44652674D01*
X62615917Y-44694539D01*
G37*
%TD.AperFunction*%
%TD*%
%TA.AperFunction,Conductor*%
%TO.N,/DIO7*%
G36*
X49092161Y-51272963D02*
G01*
X49096812Y-51279175D01*
X49501436Y-52565732D01*
X49500649Y-52574652D01*
X49498548Y-52577515D01*
X49402515Y-52673548D01*
X49394242Y-52676975D01*
X49390732Y-52676436D01*
X48104175Y-52271812D01*
X48097311Y-52266061D01*
X48096208Y-52258382D01*
X48257772Y-51441977D01*
X48262739Y-51434527D01*
X48266977Y-51432772D01*
X49083381Y-51271208D01*
X49092161Y-51272963D01*
G37*
%TD.AperFunction*%
%TD*%
%TA.AperFunction,Conductor*%
%TO.N,/DIO7*%
G36*
X55270928Y-54644040D02*
G01*
X55272424Y-54644879D01*
X55446922Y-54760379D01*
X55450220Y-54763677D01*
X55565717Y-54938171D01*
X55567426Y-54946962D01*
X55562419Y-54954385D01*
X55560919Y-54955227D01*
X55193522Y-55127098D01*
X55184576Y-55127499D01*
X55180291Y-55124773D01*
X55085826Y-55030308D01*
X55082399Y-55022035D01*
X55083499Y-55017082D01*
X55255373Y-54649678D01*
X55261982Y-54643639D01*
X55270928Y-54644040D01*
G37*
%TD.AperFunction*%
%TD*%
%TA.AperFunction,Conductor*%
%TO.N,/DIO8*%
G36*
X49092077Y-48732980D02*
G01*
X49096756Y-48739282D01*
X49492671Y-50034615D01*
X49491812Y-50043529D01*
X49489755Y-50046308D01*
X49411308Y-50124755D01*
X49403035Y-50128182D01*
X49399615Y-50127671D01*
X48104282Y-49731756D01*
X48097372Y-49726061D01*
X48096225Y-49718296D01*
X48257772Y-48901978D01*
X48262739Y-48894527D01*
X48266977Y-48892772D01*
X49083296Y-48731225D01*
X49092077Y-48732980D01*
G37*
%TD.AperFunction*%
%TD*%
%TA.AperFunction,Conductor*%
%TO.N,/DIO8*%
G36*
X54422559Y-54177643D02*
G01*
X54443949Y-54186948D01*
X54798419Y-54341157D01*
X54804639Y-54347600D01*
X54804481Y-54356553D01*
X54803508Y-54358344D01*
X54688220Y-54532522D01*
X54684922Y-54535820D01*
X54510744Y-54651108D01*
X54501953Y-54652817D01*
X54494530Y-54647810D01*
X54493557Y-54646019D01*
X54444181Y-54532522D01*
X54330043Y-54270159D01*
X54329885Y-54261206D01*
X54332497Y-54257221D01*
X54409620Y-54180098D01*
X54417892Y-54176672D01*
X54422559Y-54177643D01*
G37*
%TD.AperFunction*%
%TD*%
%TA.AperFunction,Conductor*%
%TO.N,/BUSY*%
G36*
X65850405Y-38696632D02*
G01*
X66033021Y-38732772D01*
X66040472Y-38737739D01*
X66042227Y-38741978D01*
X66203824Y-39558549D01*
X66202069Y-39567330D01*
X66196039Y-39571922D01*
X64927033Y-39993962D01*
X64918101Y-39993321D01*
X64915068Y-39991133D01*
X64783866Y-39859931D01*
X64780439Y-39851658D01*
X64781037Y-39847966D01*
X65203078Y-38578957D01*
X65208939Y-38572191D01*
X65216449Y-38571175D01*
X65850405Y-38696632D01*
G37*
%TD.AperFunction*%
%TD*%
%TA.AperFunction,Conductor*%
%TO.N,/BUSY*%
G36*
X59771570Y-47941410D02*
G01*
X59801112Y-47950283D01*
X60152744Y-48055897D01*
X60159680Y-48061557D01*
X60161077Y-48067101D01*
X60161077Y-48249698D01*
X60157650Y-48257971D01*
X60152743Y-48260903D01*
X59771570Y-48375389D01*
X59762660Y-48374487D01*
X59756999Y-48367550D01*
X59756741Y-48366527D01*
X59714874Y-48160729D01*
X59714874Y-48156068D01*
X59756740Y-47950281D01*
X59761746Y-47942859D01*
X59770536Y-47941150D01*
X59771570Y-47941410D01*
G37*
%TD.AperFunction*%
%TD*%
%TA.AperFunction,Conductor*%
%TO.N,/DIO9*%
G36*
X54786670Y-53304150D02*
G01*
X54789396Y-53308435D01*
X54927654Y-53689755D01*
X54927253Y-53698701D01*
X54920643Y-53704742D01*
X54918988Y-53705208D01*
X54713933Y-53746925D01*
X54709268Y-53746925D01*
X54504212Y-53705208D01*
X54496788Y-53700201D01*
X54495079Y-53691411D01*
X54495542Y-53689765D01*
X54633804Y-53308435D01*
X54639845Y-53301825D01*
X54644803Y-53300723D01*
X54778397Y-53300723D01*
X54786670Y-53304150D01*
G37*
%TD.AperFunction*%
%TD*%
%TA.AperFunction,Conductor*%
%TO.N,/DIO9*%
G36*
X48972786Y-45892802D02*
G01*
X48973070Y-45893251D01*
X49716124Y-47125912D01*
X49717460Y-47134765D01*
X49714377Y-47140224D01*
X49618374Y-47236227D01*
X49610101Y-47239654D01*
X49609708Y-47239647D01*
X48107928Y-47189129D01*
X48099774Y-47185426D01*
X48096628Y-47177043D01*
X48096842Y-47175177D01*
X48258349Y-46359061D01*
X48263315Y-46351612D01*
X48956561Y-45889554D01*
X48965346Y-45887818D01*
X48972786Y-45892802D01*
G37*
%TD.AperFunction*%
%TD*%
M02*
